<svg id="Layer_1" data-name="Layer 1" xmlns="http://www.w3.org/2000/svg" viewBox="0 0 565 733"><defs><style>.cls-1{fill:#6d5a55;}.cls-2{fill:#323942;}.cls-3{fill:#e48282;}.cls-4{fill:#e49581;}.cls-5{fill:#f4b5a3;}.cls-6{fill:#5566b5;}</style></defs><title>Food</title><path class="cls-1" d="M196.67,214.82,155.36,204s-24.9,77.24,9.77,103.73S196.67,214.82,196.67,214.82Z"/><path class="cls-2" d="M60.14,706.39S103.8,492.18,291.65,492.18,504,706.39,504,706.39Z"/><circle class="cls-3" cx="155.36" cy="303.28" r="34.85" transform="translate(-103.8 82.03) rotate(-22.39)"/><circle class="cls-3" cx="414.15" cy="303.28" r="34.85" transform="translate(-93.15 381.68) rotate(-45)"/><path class="cls-4" d="M329.76,429.81l-5.89-77.42-60.45,8.29-9.88,113.18C273.49,471.46,306,462.3,329.76,429.81Z"/><path class="cls-5" d="M186.45,220c15.11,15.19-2.45,52.41-21.32,50.11-1.13,18.53-.3,24.09,1.74,42.55,4,36.57,21.53,68.41,54.72,86.1s78.61,24.05,114,9.47c27.45-11.3,48.64-31.43,59.49-58.57,12.37-30.93,12.51-70.48,10.84-103.87C399.76,122.08,299,123.91,299,123.91S223.56,127.22,186.45,220Z"/><path class="cls-5" d="M253.54,473.86l-4.35,49.8s1.78,24.89,42.08,29.64,45-37.34,45-37.34l-6.55-86.15C306,462.3,273.49,471.46,253.54,473.86Z"/><ellipse class="cls-2" cx="230.27" cy="295" rx="6.19" ry="12.37"/><path class="cls-2" d="M351,297.1c0,6.83-2.77,12.37-6.18,12.37s-6.19-5.54-6.19-12.37,2.77-12.37,6.19-12.37S351,290.26,351,297.1Z"/><path class="cls-2" d="M286.65,303.28A61.28,61.28,0,0,0,279,307a22.67,22.67,0,0,0-3.44,2.43,5.68,5.68,0,0,0-2.11,3.32,3.94,3.94,0,0,0,1.84,3.29,8.6,8.6,0,0,0,3.61,1.92,7.46,7.46,0,0,0,4.1-.26,11.21,11.21,0,0,0,3.69-2.06,10.41,10.41,0,0,1-3.57,2.4,7.8,7.8,0,0,1-4.33.49,8.55,8.55,0,0,1-3.94-2,7,7,0,0,1-1.54-1.62,3.59,3.59,0,0,1-.6-2.26,4.46,4.46,0,0,1,.88-2.13,9.07,9.07,0,0,1,1.52-1.63,19.63,19.63,0,0,1,3.61-2.42A41.6,41.6,0,0,1,286.65,303.28Z"/><path class="cls-2" d="M269.46,332.3a34.48,34.48,0,0,0,3.83,3,32,32,0,0,0,4.18,2.46,22.73,22.73,0,0,0,9.22,2.52,18.1,18.1,0,0,0,4.76-.39,20.77,20.77,0,0,0,4.5-1.65,29.61,29.61,0,0,0,7.63-5.95,25.35,25.35,0,0,1-7.36,6.46,18.06,18.06,0,0,1-9.56,2.28,22.48,22.48,0,0,1-9.45-2.76A29.55,29.55,0,0,1,269.46,332.3Z"/><circle class="cls-3" cx="224.08" cy="336.5" r="13.02"/><circle class="cls-3" cx="344.77" cy="336.5" r="13.02"/><path class="cls-1" d="M388.41,246.06c-3.36-9.89-4.65-20.36-7.61-30.37s-8-20-16.69-25.72-20-6.41-30.38-4.94C306,189,282,206.12,255.55,215.46a144.55,144.55,0,0,1-91.21,1.44c-10.34-3.29-20.44-7.84-28.7-14.85-16.81-14.26-24.21-38.69-18.12-59.88,1.1-3.83,2.68-7.67,5.6-10.39s7.42-4,11-2.3c5.75,2.81,6.06,10.25,7.06,15.74,1.33,7.27,3.48,17.54,8.57,23.08,3.92-6.49,1.69-17,2.49-24.37.93-8.5,3.76-17.44,10.61-22.54a7.71,7.71,0,0,1,5.35-1.88c5,.62,5.58,7.52,5.35,12.56a66.71,66.71,0,0,0,4.18,26.36c-.5-15.44-.6-32.19,8.59-44.61,2.11-2.86,5.33-5.61,8.81-4.88,4,.83,5.64,5.59,5.68,9.63s-.84,8.29.84,12c1.94,4.25,6.9,6.44,11.58,6.49s9.16-1.62,13.55-3.23c33.13-12.13,67.48-21.5,102.62-24.66,13.53-1.22,27.72-1.4,40,4.33,10.95,5.09,19.47,14.52,25.22,25.14S403.6,161,406,172.86a295.29,295.29,0,0,1,5.79,68.47c-.19,6,1.72,24.23-7.73,23.78C396.27,264.73,390.49,252.16,388.41,246.06Z"/><polygon class="cls-6" points="483.73 631.93 87.07 631.93 90.78 624.6 480.67 624.6 483.73 631.93"/><polygon class="cls-6" points="498.34 677.27 68.41 677.27 70.96 669.94 496.44 669.94 498.34 677.27"/><path class="cls-2" d="M326.3,270.34a36.44,36.44,0,0,1,9.5-7.92,30.57,30.57,0,0,1,11.79-4,26.15,26.15,0,0,1,12.32,1.78,29.09,29.09,0,0,1,2.82,1.34,27.72,27.72,0,0,1,2.67,1.6c.88.55,1.66,1.24,2.5,1.85s1.56,1.35,2.32,2a39.82,39.82,0,0,0-10.59-6.12,29.82,29.82,0,0,0-5.89-1.45,27.2,27.2,0,0,0-6.05,0,31.36,31.36,0,0,0-11.52,3.68,40.58,40.58,0,0,0-5.17,3.28A41.3,41.3,0,0,0,326.3,270.34Z"/><path class="cls-2" d="M250.14,267.28a23.12,23.12,0,0,0-4.24-5.1,23.87,23.87,0,0,0-5.39-3.77,25.47,25.47,0,0,0-12.72-2.69,41.88,41.88,0,0,0-12.9,2.68c-1,.41-2.08.77-3.09,1.21s-2,.88-3,1.38-2,.95-3,1.47-2,1.06-3,1.58a63.84,63.84,0,0,1,11.8-6.36,43.6,43.6,0,0,1,6.43-2,35.22,35.22,0,0,1,6.71-.94,25.45,25.45,0,0,1,13.11,3A22.61,22.61,0,0,1,250.14,267.28Z"/></svg>