<svg id="Layer_1" data-name="Layer 1" xmlns="http://www.w3.org/2000/svg" viewBox="0 0 805 733"><defs><style>.cls-1{fill:#c44d4d;}.cls-2{fill:#e55d57;}.cls-3{fill:#e8cbac;}.cls-4{fill:#fff;opacity:0.39;}.cls-5{fill:#f7dfcd;}.cls-6{fill:#60934c;}.cls-7{fill:#c3ea8f;}.cls-8{fill:#55664f;}.cls-9{fill:#4d5b47;}.cls-10{fill:#b57448;}.cls-11{fill:#e0b15c;}.cls-12{fill:#f7c663;}.cls-13{fill:#a8ce7c;}.cls-14{fill:#f4ccc1;}</style></defs><title>Food</title><path class="cls-1" d="M538.14,656.21s-11.67,40.1-104,39.85c-87.57-.23-104-39.85-104-39.85V593h208Z"/><path class="cls-2" d="M434.14,307.76H97.84S106.09,429,177.54,524c103,137.05,256.6,137.05,256.6,137.05s153.57,0,256.6-137.05c71.44-95,79.7-216.26,79.7-216.26Z"/><path class="cls-1" d="M715.62,307.76c-6.57,40.88-25.36,122.13-76.4,190-103,137.05-256.6,137.05-256.6,137.05s-49.9,0-111.9-25.39c83.32,51.63,163.42,51.63,163.42,51.63s153.57,0,256.6-137.05c71.44-95,79.7-216.26,79.7-216.26Z"/><ellipse class="cls-3" cx="434.14" cy="307.76" rx="336.3" ry="173.5"/><path class="cls-4" d="M178.34,455.38c-.27,11.42,5.88,21.88,11.82,31.64,5.16,8.46,10.32,16.93,16,25.06a237.1,237.1,0,0,0,28.58,33.72c3.7,3.62,7.75,7.25,12.77,8.45s11.23-.92,12.86-5.82c1.73-5.21-2.15-10.46-5.75-14.6-16.88-19.35-33.9-39.48-42.46-63.69-2-5.68-3.6-11.67-7.22-16.49C198.74,445.42,178.7,440.05,178.34,455.38Z"/><path class="cls-5" d="M434.14,144.13a606,606,0,0,1,128.8,13.4c39.2,8.56,74.35,20.78,104.48,36.32,29.68,15.31,52.88,33,69,52.63s24.19,40.2,24.19,61.28-8.13,41.7-24.19,61.28-39.28,37.32-69,52.63c-30.13,15.54-65.28,27.76-104.48,36.32a606,606,0,0,1-128.8,13.4A605.91,605.91,0,0,1,305.34,458c-39.21-8.56-74.36-20.78-104.48-36.32-29.68-15.31-52.89-33-69-52.63s-24.19-40.2-24.19-61.28,8.14-41.7,24.19-61.28,39.29-37.32,69-52.63c30.12-15.54,65.27-27.76,104.48-36.32a605.91,605.91,0,0,1,128.8-13.4Zm0-9.87c-185.74,0-336.3,77.68-336.3,173.5s150.56,173.5,336.3,173.5,336.3-77.68,336.3-173.5-150.57-173.5-336.3-173.5Z"/><path class="cls-6" d="M485.6,316.72c-12.81.51-25-.85-34.25-3.82-10.25-3.3-16-8.38-16.27-14.31s5.12-11.46,15.08-15.56c9-3.7,21-6,33.84-6.53s25,.84,34.24,3.82c10.26,3.29,16,8.37,16.27,14.31s-5.12,11.46-15.08,15.56C510.42,313.89,498.41,316.21,485.6,316.72Zm-1.36-34.1c-27,1.07-43.27,9.88-43,15.72s17.14,13.33,44.14,12.26,43.27-9.88,43-15.73S511.25,281.54,484.24,282.62Z"/><path class="cls-7" d="M485.41,312.09c-12.81.51-25-.85-34.24-3.82-10.26-3.3-16-8.38-16.27-14.31S440,282.5,450,278.4c9-3.7,21-6,33.83-6.53s25,.85,34.25,3.82c10.25,3.29,16,8.38,16.27,14.31s-5.12,11.46-15.08,15.56C510.24,309.26,498.22,311.58,485.41,312.09ZM484.06,278c-27,1.07-43.27,9.88-43,15.72s17.14,13.34,44.15,12.26,43.27-9.88,43-15.72S511.06,276.91,484.06,278Z"/><path class="cls-8" d="M496.19,130.6c1.47-3.69,3.18-7.6,6.56-9.69,2.67-1.65,6-1.86,9.1-2,31.19-1.39,64.28.94,90.2,18.35,4.05,2.72,8,5.89,10.41,10.12,3.17,5.52,3.48,12.17,3.6,18.54a622.76,622.76,0,0,1-14.72,147.47c-1.1,5-31.05,8.07-35.64,8.52a140.38,140.38,0,0,1-39.09-1.71c-18.75-3.47-50.72-11.85-60.43-30.4-10.37-19.81,1.16-56,5.37-76.54A493,493,0,0,1,496.19,130.6Z"/><path class="cls-9" d="M612.91,147.23c-2.44-4.23-6.36-7.4-10.41-10.12-17.87-12-39.15-16.84-60.87-18.23a98.16,98.16,0,0,1,18.94,21.29c2.66,4.09,5,8.54,5.6,13.39.76,6.33-1.58,12.57-4,18.47a623.74,623.74,0,0,1-71.44,129.85c-1.21,1.69-6.73,1.2-13.12-.06,14,10.29,35.38,15.64,49.41,18.23a140.36,140.36,0,0,0,39.09,1.71c4.58-.45,34.53-3.55,35.64-8.52a623.23,623.23,0,0,0,14.72-147.47C616.39,159.41,616.08,152.75,612.91,147.23Z"/><path class="cls-8" d="M601.28,152.64c2.24-3.28,4.76-6.74,8.51-8,3-1,6.23-.52,9.32,0,30.74,5.43,62.53,14.92,84,37.56,3.36,3.54,6.5,7.48,8,12.14,1.9,6.08.74,12.64-.52,18.88a623.25,623.25,0,0,1-46.5,140.72c-2.16,4.61-32.07,1.11-36.64.55a140.48,140.48,0,0,1-37.77-10.18c-17.55-7.48-46.92-22.62-52.36-42.84-5.81-21.59,13.34-54.42,21.91-73.53A493.33,493.33,0,0,1,601.28,152.64Z"/><path class="cls-9" d="M711.57,194.3c-1.45-4.66-4.59-8.61-8-12.15-14.83-15.6-34.55-25-55.44-31.05A98.21,98.21,0,0,1,662,176c1.71,4.58,3,9.44,2.55,14.29-.64,6.34-4.28,11.92-7.89,17.16a623.31,623.31,0,0,1-98,111.17c-1.55,1.38-6.82-.3-12.79-2.92,11.39,13.09,31.13,23,44.25,28.56a140.3,140.3,0,0,0,37.78,10.19c4.57.56,34.48,4.06,36.64-.55a623.58,623.58,0,0,0,46.5-140.72C712.31,206.94,713.47,200.38,711.57,194.3Z"/><path class="cls-8" d="M706.67,188.31c2.79-2.36,5.84-4.79,9-4.82,2.51,0,4.69,1.47,6.74,3,20.34,14.74,40,33.59,47.56,61.48a35.64,35.64,0,0,1,1.46,13.83c-.78,6.27-3.94,12-7.07,17.46A718,718,0,0,1,680.79,395.9c-3.2,3.62-23.63-9-26.75-11a97.38,97.38,0,0,1-23.75-21.39c-10.07-12.49-26-35.86-22.75-56.44,3.46-22,29-46.59,42-61.71A514,514,0,0,1,706.67,188.31Z"/><path class="cls-9" d="M771.81,261.87A36.05,36.05,0,0,0,770.35,248c-5.21-19.22-16.17-34.15-29.15-46.41a113.76,113.76,0,0,1,1.2,27.59c-.38,4.81-1.14,9.76-3.22,14.14-2.71,5.71-7.33,9.78-11.8,13.53a562.59,562.59,0,0,1-110.44,72.9c-1.61.8-4.84-2.42-8.23-6.74,3.61,15.79,14.4,31.22,21.93,40.57A97.38,97.38,0,0,0,654.4,385c3.11,2,23.54,14.63,26.74,11a717.61,717.61,0,0,0,83.59-116.68C767.86,273.9,771,268.14,771.81,261.87Z"/><path class="cls-10" d="M433.12,232.28C242.67,232.28,161.35,296,116,364.13c45.36,68.15,170.67,117.13,318.15,117.13s272.78-49,318.14-117.13C706.92,296,616.63,232.28,433.12,232.28Z"/><path class="cls-11" d="M479,480.27a6.16,6.16,0,0,1-5.91-7.9c1-3.24-1.64-7.11-4.57-9.11-4.12-2.83-9.73-3.86-15.15-4.86l-28-5.16c-8.08.78-16.14,1-24.05,1.24l-41.86,1.21c-26.42.76-53.81.06-73-17.27-9.21-8.33-15.89-22.26-10.05-34.62,1.93-4.07,5.13-7.7,9.8-11.11,17.7-12.94,39.66-12.81,60.9-12.68,4.63,0,9.42.05,14-.07a180.32,180.32,0,0,0,94.6-30.26c12.32-8.29,18.75-16.33,19.67-24.58s-3.84-16.41-8.87-22.36c-11.17.52-21.91,1.18-32.08,1.87-21.63,1.45-51.25,3.45-72.29-12.89-4.73-3.68-6.88-7.79-6.39-12.23.52-4.72,3.86-8.38,9.93-10.88,17.4-7.17,37.67-8.85,57.06-4.72a98.06,98.06,0,0,1,49,26.27c23.07-1,47.78-1.28,72.76,0,14.89.78,32,2.29,46.67,10.51,7.13,4,10.52,10.15,8.83,16.05-1.22,4.25-4.61,6.62-6.43,7.9-5,3.51-10.36,6.81-15.52,10-15.84,9.79-30.8,19-37.62,34.23-1.28,2.86-1,3.8-1,3.81s.29.49,1.94,1.35c11.87,6.13,26.54,1.38,34.23-2,12.56-5.52,24.27-14.18,35.59-22.56,16.63-12.31,33.83-25,55-29.12,13.94-2.7,30.44.66,35.88,14.24,2.83,7.08,1.82,15.52-3,25.09-12.57,24.94-36.62,39.77-54.58,47.81-16.43,7.37-33.89,12.14-50.77,16.76-5.42,1.48-11,3-16.5,4.61-7.45,2.17-14.62,4.47-20.27,8.71-4.35,3.27-8.87,9-8.49,15.4a6.16,6.16,0,0,1-7,6.49c-6.11-.81-13-1.72-19.4-4.91-8-4-13.22-10.9-14-18.48-.62-5.62,1.26-10.69,2.73-14,6.79-15.39,19.47-26.08,33.47-33.93a37.14,37.14,0,0,1-8.52-3.14,16,16,0,0,1-7.24-6.67c-3.1-6-.25-12.39.68-14.48,8.36-18.65,25.66-29.34,42.39-39.67,5-3.1,10.2-6.31,14.92-9.62.65-.45,1.06-.77,1.33-1a9.76,9.76,0,0,0-2.68-2.09c-12.34-6.92-27.78-8.25-41.28-8.95-21.28-1.12-42.42-1-62.52-.36,4.3,6.92,7.35,15.24,6.33,24.33-1.34,12.07-9.53,23-25,33.43a192.73,192.73,0,0,1-101.16,32.36c-4.77.13-9.66.1-14.4.07-20.12-.12-39.13-.22-53.54,10.31-3,2.17-4.91,4.27-5.93,6.43-3,6.31,1.35,14.94,7.17,20.2,15.78,14.27,40.44,14.79,64.35,14.1l30.4-.88a21,21,0,0,1-8-11.92c-2.2-9.07,2.12-18.91,12.16-27.69C416.45,383,450,375.48,479,383.81c10.68,3.06,17.39,8.29,19.94,15.54,3.31,9.42-1.16,20.13-12.27,29.37a106.29,106.29,0,0,1-30.39,17.68c5.93,1.1,13.13,2.55,19.17,6.69,7.9,5.41,11.78,14.77,9.43,22.76A6.17,6.17,0,0,1,479,480.27ZM691.26,343.92a35.44,35.44,0,0,0-1.61,3.87,29.52,29.52,0,0,1-4.45,8.74c-4.91,6.05-12.81,7.26-18,8.06a495.1,495.1,0,0,0-90.27,22.67c-20.58,7.28-45.41,18.39-54.85,39.77-1.42,3.22-2,5.67-1.76,7.7.36,3.3,3.23,6.75,7.31,8.79a33.73,33.73,0,0,0,9.18,2.78c1.64-7,6.11-13.6,12.75-18.59,7.31-5.48,16-8.29,24.23-10.69,5.55-1.62,11.22-3.17,16.69-4.67,16.43-4.49,33.42-9.13,49-16.11,16.14-7.23,37.67-20.4,48.61-42.11A27.27,27.27,0,0,0,691.26,343.92ZM454.59,392.76c-19.14,0-38.43,6.84-52.79,19.4-3,2.62-9.79,9.36-8.29,15.5,1.22,5,7.64,8.58,19.61,10.79l12.75,2.34A115.4,115.4,0,0,0,441,438.25a93.91,93.91,0,0,0,37.8-19c5.27-4.39,10.28-10.84,8.53-15.81-1.43-4.07-7.16-6.48-11.71-7.78A76.66,76.66,0,0,0,454.59,392.76ZM675,331.83a34.37,34.37,0,0,0-6.48.62c-18.39,3.55-33.73,14.91-50,26.93l-5.08,3.75A505.55,505.55,0,0,1,665.3,352.4c4.61-.7,8.57-1.46,10.33-3.64a21,21,0,0,0,2.46-5.25c.45-1.21.94-2.53,1.55-3.87a6.16,6.16,0,0,1,.69-7.34A29.15,29.15,0,0,0,675,331.83Zm-306.46-50.9a12.59,12.59,0,0,0,1.19,1.05c17.34,13.46,43.16,11.72,63.91,10.32q9.81-.66,20.29-1.26c-23.44-17.32-56.6-22.13-83.52-11A12.93,12.93,0,0,0,368.53,280.93Z"/><path class="cls-12" d="M390.79,440.66a160.55,160.55,0,0,1-18.34-1c-5.5-.63-11.9-1.76-17.55-4.67-17.82,1.79-36.53,1.08-54.92-.05-14-.87-31.46-1.95-45-12-15-11.11-22.51-30.57-22.26-57.89-11.27-.14-22.39,1.93-30.6,9.12a29.77,29.77,0,0,0,4.67,48.16A6.17,6.17,0,0,1,200.58,433,42.1,42.1,0,0,1,194,364.86c11.08-9.7,25.61-12.28,39.31-12.11.23-2.68.56-5.45,1-8.24l-1.48-.37c-11.11-2.56-23.42-.71-34.62,1.31a7.21,7.21,0,0,1-8.23,2.76,6.72,6.72,0,0,1-4.72-6.9c.2-2.95,2.27-6.44,7.51-7.4,13.2-2.42,28.17-5.17,42.84-1.78l1.72.43a46.56,46.56,0,0,1,9.28-16c9-9.93,22.83-15.52,41.09-16.61a81.11,81.11,0,0,1,30.06,3.43,114.62,114.62,0,0,1,31.93,4.52,93,93,0,0,1,10.17-11.12c19-17.41,48.17-23.39,72.52-14.86,8.49,3,15.11,7.22,19.68,12.64,10.86,12.9,9.5,34.21-2.92,45.62a34.32,34.32,0,0,1-12.95,7.41A174.82,174.82,0,0,1,462,349.19l.9-.46c23.31-11.81,54.3-6.28,72.08,12.87,4.93,5.3,8.73,11.3,12.41,17.09s7.05,11.11,11.35,15.65a53.35,53.35,0,0,0,15.29,11.07c3.2-1.37,6.36-2.78,9.47-4.2,14.77-6.76,30-14.63,41.44-26.35a46.72,46.72,0,0,0,9.61-14.27c-2.5.07-5,.07-7.56,0-17.06-.78-30.84-8.07-36.85-19.51a41.72,41.72,0,0,1-3.45-9.65c-6.38,1.18-12.8,2.66-19.09,4.12-22.71,5.26-46.2,10.7-68.83,2.16-14.77-5.57-28.39-20.21-24.55-36.37,2.29-9.61,10.65-17.59,21.83-20.82,9.19-2.66,18.7-2,27.1-1.39,13.4.95,27.27,1.92,40.52,6.91,15.55,5.85,27.12,16.66,31.74,29.65.22.62.43,1.24.62,1.86,1.7-.19,3.4-.35,5.11-.48,21.17-1.53,37.92,5.58,44.8,19a30,30,0,0,1,3.21,11.38,104.16,104.16,0,0,1,16,.15c15.1,1.52,26.62,8.88,30.79,19.67,3.38,8.73,1.6,19.53-4.65,28.18-5.9,8.16-14.55,13.26-20.54,16.38a125.71,125.71,0,0,1-70.66,13.36,99.1,99.1,0,0,1-26.24-6.35c-12.76,5.08-26.78,9.41-41.29,10.6-21.06,1.73-41.25-3-60.86-9.6A168.56,168.56,0,0,1,390.79,440.66Zm-4.17-12.38a155.85,155.85,0,0,0,69.14-14.21c-3.29-1.23-6.56-2.49-9.81-3.74-6.74-2.58-13.58-5.2-20.47-7.64A105.35,105.35,0,0,1,414.56,413,92.55,92.55,0,0,1,386.62,428.28ZM245,365.91c0,16.9,3.35,36.81,17.26,47.09,10.64,7.87,26.06,8.82,38.46,9.59,14.65.91,29.07,1.53,42.79.9a25.42,25.42,0,0,1-1.76-15.29c.1-.58.22-1.15.36-1.72-21.24-5.29-43-16.38-63.7-32.82a42.26,42.26,0,0,1-6-3.51c-5.23-.65-10.37-1.53-15.34-2.37l-4.36-.74C250.25,366.62,247.66,366.23,245,365.91Zm109.22,43c-.13.49-.24,1-.33,1.49-.51,2.81-.53,6.86,2.23,10.18a11.79,11.79,0,0,0,1.79,1.74c18.34-2.3,35-7.72,48.89-18.9,1.95-1.58,3.82-3.25,5.63-5l-1.18-.35a31.92,31.92,0,0,1-14.42,8.39A101,101,0,0,1,354.24,408.88Zm131.29,2.39c15.22,4.48,30.37,7.14,46,5.85A116.93,116.93,0,0,0,559.4,411a62.87,62.87,0,0,1-9.57-8.22c-5.12-5.41-9-11.56-12.81-17.52-3.53-5.57-6.88-10.84-11-15.31-10-10.79-25.31-16.17-40-15.05,12,4.78,19.34,12.4,20.9,21.94,1.27,7.71-.88,19.56-18.31,32.22C487.58,409.83,486.56,410.56,485.53,411.27Zm105.68,0a95.67,95.67,0,0,0,10.21,1.65,113.2,113.2,0,0,0,63.65-12c7.76-4,12.92-8.06,16.24-12.66,3.78-5.22,5-11.7,3.15-16.51-2.9-7.5-12.51-11-20.53-11.85a98.86,98.86,0,0,0-16,0c-2.52,9.11-8.12,17.51-14.07,23.62C621.65,395.94,606.26,404.25,591.21,411.25Zm-157-18.53c5.45,2,10.85,4.06,16.18,6.1,6.77,2.6,13.45,5.16,20.07,7.51q5.63-3.36,10.93-7.21c6.81-4.95,14.66-12.47,13.39-20.24C493.28,370,480.44,365.71,475,364.3q-5.26-1.37-10.55-2.27c-10.31,6.44-18.35,16.23-26.81,26.52ZM362,397.46a86.39,86.39,0,0,0,31.46-2.89c.6-.17,1.2-.37,1.79-.6-13.92-2.75-24-2-31.71,2.48C363,396.76,362.49,397.09,362,397.46Zm-55.06-19.14c11.29,6.69,25.17,13.23,40.38,16.77a32,32,0,0,1,10.06-9.31c13.73-7.93,29.87-6.07,41.32-3.69-4.3-2.36-9.46-3.55-14.9-4.8-6.33-1.45-12.88-3-18.94-6.48-.61-.35-1.2-.72-1.77-1.09-14.39,2.77-29.24,5.62-43.9,7.47C315.16,377.7,311.06,378.13,306.93,378.32Zm108.92,8.21c2,.59,3.92,1.21,5.87,1.85,2.12-2.49,4.23-5.05,6.38-7.66,5.84-7.1,11.79-14.35,18.69-20.62-19.67-1-39.64,1.57-60.16,5.19,6.77,1.56,13.77,3.18,20.11,7.25,4.61,2.95,7.5,6.56,8.6,10.73A15.3,15.3,0,0,1,415.85,386.53Zm-74.6-45.18c-7,9.56-14.92,18.37-25.87,23.89l2.26-.28c11.39-1.44,23-3.52,34.48-5.7a122.41,122.41,0,0,1-9.79-15.95ZM279.38,358.5c10.32.9,20.33.41,29.19-3.67,10.78-5,18.37-14.38,25.71-25a42.29,42.29,0,0,0-5.13-6,38.32,38.32,0,0,0-13.35-8.14,79.39,79.39,0,0,0-21.55,3.5c-12.19,3.82-25,13.42-24.39,25.43a17.15,17.15,0,0,0,2.66,8.15c1.88,1.53,3.75,3.08,5.6,4.63Zm69.68-28.42c1.42,2.43,2.76,4.89,4.09,7.32,4,7.28,7.77,14.24,13.07,19.15,15.68-3,31.55-5.95,47.47-7.6a56.82,56.82,0,0,1-8.5-2c-9.39-3-17.83-7.8-26-12.45-3.53-2-7.17-4.09-10.76-5.93a121.91,121.91,0,0,0-14.11-6.19C352.57,324.87,350.82,327.46,349.06,330.08ZM245.58,353.57c3.22.37,6.31.83,9.19,1.3l.29.05a86.32,86.32,0,0,0-9-5.65C245.87,350.71,245.71,352.15,245.58,353.57Zm353.42-24a27.37,27.37,0,0,0,2.09,5.71C607,346.44,622.86,348,627.6,348.23c3,.14,6.11.08,9.24-.06a17.36,17.36,0,0,0-1.84-6.51c-5.35-10.47-20.52-13.23-32.93-12.34C601.05,329.39,600,329.48,599,329.59Zm-350.11,7.28a85.17,85.17,0,0,1,8.69,4.89c.82-11.82,8.82-21.44,19.05-27.87-7.61,1.7-15.42,4.95-20.89,11A34.6,34.6,0,0,0,248.89,336.87Zm113.26-24.71q6,2.4,11.93,5.43c3.83,2,7.59,4.11,11.22,6.18,8,4.54,15.48,8.83,23.63,11.43,9.84,3.14,23.38,3.71,31.87-4.09,7.65-7,8.52-20.64,1.83-28.58-3.13-3.71-7.95-6.72-14.32-9-20.19-7.06-44.35-2.11-60.13,12.33A72.9,72.9,0,0,0,362.15,312.16Zm149.39-21.29a43.41,43.41,0,0,0-12,1.45c-6.81,2-12,6.61-13.25,11.83-2.14,9,6.92,18.21,16.9,22,19.14,7.22,39.81,2.44,61.7-2.63,6.19-1.44,12.49-2.9,18.84-4.09-3.5-9.4-12.35-17.36-24.33-21.87-11.57-4.35-24.53-5.27-37-6.15C518.75,291.13,515.12,290.87,511.54,290.87ZM340.9,318.37l.66.78.37-.54Z"/><path class="cls-6" d="M357,310.22c-15.74,0-30.58-2.26-41.81-6.37-12.41-4.53-19.25-11.05-19.25-18.34s6.84-13.8,19.25-18.34c11.23-4.1,26.07-6.36,41.81-6.36s30.57,2.26,41.8,6.36C411.2,271.71,418,278.23,418,285.51s-6.84,13.81-19.25,18.34C387.56,308,372.72,310.22,357,310.22Zm0-41.89c-33.17,0-53.54,10-53.54,17.18S323.82,302.7,357,302.7s53.53-10,53.53-17.19S390.15,268.33,357,268.33Z"/><path class="cls-7" d="M357,304.53c-15.74,0-30.58-2.26-41.81-6.36-12.41-4.54-19.25-11.05-19.25-18.34s6.84-13.8,19.25-18.34c11.23-4.1,26.07-6.36,41.81-6.36s30.57,2.26,41.8,6.36C411.2,266,418,272.54,418,279.83s-6.84,13.8-19.25,18.34C387.56,302.27,372.72,304.53,357,304.53Zm0-41.88c-33.17,0-53.54,10-53.54,17.18S323.82,297,357,297s53.53-10,53.53-17.18S390.15,262.65,357,262.65Z"/><path class="cls-6" d="M403.8,297.79c-15.14-4.28-28.81-10.5-38.5-17.5-10.71-7.75-15.51-15.87-13.53-22.89S362.11,246,375.29,245c11.91-.89,26.82,1,41.95,5.26s28.81,10.5,38.5,17.5c10.71,7.75,15.51,15.87,13.53,22.89s-10.34,11.42-23.52,12.41C433.84,303.94,418.94,302.07,403.8,297.79Zm11.4-40.3c-31.92-9-54.24-5-56.19,2s14.92,22.08,46.83,31.1,54.24,4.95,56.19-2S447.11,266.51,415.2,257.49Z"/><path class="cls-13" d="M405.34,292.32c-15.13-4.28-28.81-10.5-38.49-17.5-10.71-7.75-15.51-15.87-13.53-22.89s10.33-11.42,23.51-12.4c11.92-.9,26.82,1,42,5.25s28.81,10.5,38.5,17.5C468,270,472.8,278.15,470.82,285.17s-10.34,11.42-23.52,12.41C435.38,298.47,420.48,296.6,405.34,292.32Zm11.4-40.3c-31.91-9-54.23-5-56.19,2s14.93,22.08,46.84,31.1,54.24,4.95,56.19-2S448.66,261,416.74,252Z"/><path class="cls-6" d="M384.2,328.64c-12.81.51-25-.84-34.25-3.82-10.25-3.29-16-8.37-16.27-14.31s5.12-11.46,15.08-15.56c9-3.7,21-6,33.84-6.53s25,.85,34.24,3.82c10.26,3.3,16,8.38,16.27,14.31S428,318,418,322.11C409,325.81,397,328.13,384.2,328.64Zm-1.36-34.1c-27,1.08-43.27,9.88-43,15.73S357,323.6,384,322.52s43.27-9.88,43-15.72S409.85,293.47,382.84,294.54Z"/><path class="cls-13" d="M384,324c-12.81.51-25-.85-34.24-3.83-10.26-3.29-16-8.37-16.27-14.31s5.12-11.46,15.08-15.56c9-3.7,21-6,33.83-6.53s25,.85,34.25,3.83c10.25,3.29,16,8.37,16.27,14.3s-5.12,11.46-15.08,15.56C408.84,321.19,396.82,323.51,384,324Zm-1.35-34.11c-27,1.08-43.27,9.89-43,15.73s17.14,13.33,44.15,12.25,43.27-9.88,43-15.72S409.66,288.84,382.66,289.91Z"/><path class="cls-6" d="M528.36,296.45c-12.81.51-25-.85-34.24-3.83-10.26-3.29-16-8.37-16.27-14.31s5.12-11.46,15.08-15.55c9-3.71,21-6,33.83-6.54s25,.85,34.25,3.83c10.25,3.29,16,8.37,16.26,14.31s-5.12,11.46-15.08,15.55C553.19,293.62,541.17,295.94,528.36,296.45ZM527,262.34c-27,1.08-43.26,9.89-43,15.73s17.14,13.33,44.15,12.26,43.26-9.89,43-15.73S554,261.27,527,262.34Z"/><path class="cls-13" d="M528.18,291.82c-12.81.51-25-.85-34.25-3.83-10.25-3.29-16-8.37-16.27-14.31s5.12-11.45,15.08-15.55c9-3.71,21-6,33.84-6.54s25,.85,34.24,3.83c10.26,3.29,16,8.37,16.27,14.31S572,281.19,562,285.28C553,289,541,291.31,528.18,291.82Zm-1.36-34.11c-27,1.08-43.27,9.89-43,15.73s17.14,13.33,44.14,12.26,43.27-9.89,43-15.73S553.83,256.64,526.82,257.71Z"/><path class="cls-14" d="M235.68,348.5a4.53,4.53,0,0,1-1,1.69c-.93.76-2.29.4-3.47.18-3.43-.64-6.94.27-10.26,1.31-4.18,1.31-8.53,3-11.12,6.55s-2.38,9.41,1.46,11.51c-6,1.8-13.82-5.33-15.73.64-1.48,4.62,1.85,22.17,5.2,25.68a17,17,0,0,0,6.36,3.84,45.37,45.37,0,0,0,18.23,3,11.64,11.64,0,0,0,5.52,8.07,22.79,22.79,0,0,0,9.55,3,45,45,0,0,0,23.19-3.37c1.94-.84,4-1.85,6.06-1.66a13.43,13.43,0,0,1,4.23,1.48c10.21,4.66,22.1,4.06,33,1.44,3.24-.77,6.52-1.76,9.17-3.78s4.57-5.28,4.17-8.59a3.62,3.62,0,0,1,0-2,2.94,2.94,0,0,1,1.8-1.22A59.36,59.36,0,0,0,337,388.14c3.87-2.88,7.6-6.67,8.09-11.46.4-3.87-.71-21-3.71-23.5s-7.77,9.64-11.66,9.58c2.43-2.33,1.4-6.57-.83-9.08-5.22-5.87-14.27-5.85-22.09-5.06.37-1.9-1.43-3.51-3.15-4.41A22.25,22.25,0,0,0,283.7,344c-1.57.78-3.16,1.77-4.91,1.69a8.49,8.49,0,0,1-3.24-1.07c-3.87-1.86-8.12-3.68-12.34-2.85-2.94.59-5.43,2.4-8.3,3.2-3.28.91-4.22-.29-7.13-1.27C243.35,342.17,237.65,344.1,235.68,348.5Z"/><path class="cls-5" d="M233.63,331.93a4.39,4.39,0,0,1-1,1.69c-.93.76-2.3.4-3.48.18-3.42-.64-6.93.27-10.25,1.31-4.18,1.32-8.54,3-11.12,6.56s-2.38,9.4,1.45,11.51a19.7,19.7,0,0,0-12.9,12.65c-1.48,4.63-1,10.15,2.37,13.67a17.21,17.21,0,0,0,6.36,3.83,45.42,45.42,0,0,0,18.24,3,11.58,11.58,0,0,0,5.52,8.07,22.76,22.76,0,0,0,9.55,3A45,45,0,0,0,261.55,394c1.94-.84,3.94-1.84,6.05-1.66a13.5,13.5,0,0,1,4.23,1.48c10.21,4.66,22.1,4.06,33,1.45,3.24-.78,6.53-1.77,9.18-3.79s4.57-5.28,4.17-8.58a3.56,3.56,0,0,1,.05-2.05,3,3,0,0,1,1.79-1.22A58.94,58.94,0,0,0,335,371.57c3.86-2.88,7.6-6.67,8.09-11.46a12.09,12.09,0,0,0-4.53-10.24,17.49,17.49,0,0,0-10.84-3.68c2.42-2.33,1.4-6.56-.84-9.08-5.22-5.87-14.27-5.84-22.08-5.06.37-1.9-1.44-3.5-3.15-4.41a22.27,22.27,0,0,0-20-.25c-1.57.78-3.15,1.77-4.9,1.69a8.59,8.59,0,0,1-3.24-1.06c-3.88-1.87-8.13-3.69-12.34-2.85-2.95.58-5.44,2.39-8.3,3.19-3.29.91-4.22-.29-7.13-1.26C241.31,325.61,235.61,327.53,233.63,331.93Z"/><path class="cls-14" d="M272.37,351a17.48,17.48,0,0,1,11.11,1,10.93,10.93,0,0,1,6.33,8.78c.21,3.6-1.81,7.07-4.6,9.37a26.43,26.43,0,0,1-9.72,4.57,74.12,74.12,0,0,1-42.68-.71c-2.88-.93-5.83-2.12-7.77-4.44a9.2,9.2,0,0,1-1.6-8.81c1-3,3.55-5.19,6.08-7.08,19.45-14.55,45.83-18,69.48-12.44,6.6,1.55,13.24,3.86,18.3,8.36,2.62,2.34,4.83,5.4,5.18,8.9.51,5-2.69,9.43-5.73,13.37-2.68,3.48-6.32,7.35-10.63,6.52,3.23-3.26,6.57-6.7,7.89-11.1a14.38,14.38,0,0,0-3-13.55c-3.15-3.49-7.81-5.18-12.37-6.34A80.21,80.21,0,0,0,245,352.69c-4.32,2.06-9,5.32-9.16,10.11-.12,3.28,2.09,6.33,4.93,8a19.78,19.78,0,0,0,9.51,2.2,47.21,47.21,0,0,0,23.07-5.38c3.36-1.76,6.94-5,5.89-8.67a4.68,4.68,0,0,0-4-3.27c-4.08-.34-5.37,7.6-9.21,4C261.89,355.73,269.2,351.7,272.37,351Z"/><path class="cls-14" d="M354.92,348a4.36,4.36,0,0,1-1.61,1.14c-1.16.33-2.26-.55-3.25-1.23-2.89-1.95-6.47-2.53-9.93-2.9-4.35-.48-9-.66-12.81,1.55s-5.95,7.65-3.28,11.12c-6.22-.76-10.52-10.42-14.67-5.72-3.2,3.64-7.19,21.05-5.53,25.61a17.07,17.07,0,0,0,4.29,6.06,45.26,45.26,0,0,0,15.51,10,11.6,11.6,0,0,0,1.82,9.61,22.83,22.83,0,0,0,7.54,6.6,45,45,0,0,0,22.6,6.21c2.11,0,4.35-.11,6.21.9a13.23,13.23,0,0,1,3.28,3.06c7.49,8.35,18.62,12.57,29.67,14.55,3.28.59,6.68,1,9.92.21s6.3-3,7.26-6.2a3.55,3.55,0,0,1,.87-1.85,3,3,0,0,1,2.13-.4A59,59,0,0,0,431.85,425c4.69-1.09,9.63-3.06,12-7.25,1.92-3.39,7.78-19.55,6-23s-11,5.72-14.52,4.1c3.16-1.16,3.91-5.45,2.87-8.65-2.42-7.47-10.73-11.08-18.2-13.49,1.1-1.6.09-3.79-1.12-5.31a22.29,22.29,0,0,0-18.17-8.22c-1.75.08-3.6.36-5.17-.42a8.33,8.33,0,0,1-2.54-2.27c-2.8-3.26-6-6.63-10.17-7.56-2.93-.64-5.94,0-8.88-.4-3.38-.48-3.75-2-6-4C364.48,345.32,358.49,344.8,354.92,348Z"/><path class="cls-5" d="M359.69,332a4.36,4.36,0,0,1-1.61,1.14c-1.16.33-2.26-.55-3.26-1.22-2.88-2-6.46-2.53-9.92-2.91-4.35-.47-9-.66-12.81,1.55s-6,7.66-3.29,11.12a19.73,19.73,0,0,0-16.89,6.43c-3.2,3.64-5,8.91-3.3,13.46a17.07,17.07,0,0,0,4.29,6.07,45.46,45.46,0,0,0,15.51,10,11.59,11.59,0,0,0,1.82,9.6,22.71,22.71,0,0,0,7.54,6.6,44.88,44.88,0,0,0,22.59,6.21c2.12,0,4.36-.11,6.22.9a13.6,13.6,0,0,1,3.28,3.06c7.49,8.36,18.62,12.57,29.67,14.55,3.27.59,6.68,1,9.91.21s6.31-3,7.27-6.19a3.64,3.64,0,0,1,.86-1.86,3.06,3.06,0,0,1,2.14-.4A59,59,0,0,0,436.62,409c4.69-1.09,9.63-3.06,12-7.25a12.08,12.08,0,0,0,0-11.2,17.52,17.52,0,0,0-8.46-7.72c3.15-1.16,3.91-5.45,2.87-8.65-2.42-7.47-10.73-11.07-18.21-13.49,1.11-1.59.1-3.79-1.11-5.3a22.27,22.27,0,0,0-18.17-8.23c-1.75.09-3.6.36-5.17-.41a8.66,8.66,0,0,1-2.55-2.28c-2.8-3.26-6-6.63-10.16-7.56-2.93-.64-5.94,0-8.88-.4-3.38-.48-3.75-2-6-4C369.25,329.33,363.26,328.8,359.69,332Z"/><path class="cls-14" d="M387.51,365.08a17.51,17.51,0,0,1,9.78,5.35A10.94,10.94,0,0,1,399.57,381c-1.25,3.39-4.49,5.75-8,6.74a26.41,26.41,0,0,1-10.74.29,74.05,74.05,0,0,1-38.82-17.76c-2.26-2-4.49-4.28-5.34-7.18a9.22,9.22,0,0,1,2.07-8.71c2.15-2.31,5.33-3.33,8.4-4,23.66-5.54,49.21,1.88,68.65,16.45,5.42,4.07,10.58,8.84,13.41,15,1.47,3.19,2.26,6.88,1.18,10.23-1.52,4.73-6.25,7.56-10.61,10-3.85,2.11-8.74,4.2-12.36,1.71,4.27-1.69,8.71-3.51,11.69-7a14.4,14.4,0,0,0,2.65-13.63c-1.49-4.47-5.09-7.89-8.8-10.77a80.1,80.1,0,0,0-51.18-16.65c-4.79.15-10.37,1.26-12.45,5.58-1.43,3-.62,6.64,1.32,9.29a19.87,19.87,0,0,0,7.83,5.83,47.31,47.31,0,0,0,23.29,4.32c3.79-.27,8.37-1.82,8.87-5.58a4.67,4.67,0,0,0-2.36-4.61c-3.6-2-8,4.8-10,0C376,365.17,384.34,364.41,387.51,365.08Z"/><path class="cls-14" d="M507.69,357.57a4.29,4.29,0,0,1-1.07,1.65c-1,.73-2.31.32-3.48.06-3.4-.76-6.94,0-10.3,1-4.22,1.17-8.63,2.73-11.33,6.17s-2.71,9.31,1.05,11.55c-6.06,1.59-13.62-5.8-15.74.1-1.63,4.56,1.09,22.22,4.31,25.84a17,17,0,0,0,6.23,4.05,45.25,45.25,0,0,0,18.12,3.61,11.59,11.59,0,0,0,5.23,8.25,22.73,22.73,0,0,0,9.44,3.36,45.08,45.08,0,0,0,23.3-2.57c2-.78,4-1.71,6.1-1.45a13.11,13.11,0,0,1,4.18,1.62c10,5,21.95,4.82,32.95,2.58,3.26-.66,6.57-1.53,9.29-3.46s4.76-5.12,4.47-8.44a3.61,3.61,0,0,1,.12-2,2.94,2.94,0,0,1,1.83-1.16,59.45,59.45,0,0,0,15.19-7.57c4-2.74,7.82-6.4,8.48-11.17.53-3.86,0-21-2.9-23.62s-8.1,9.37-12,9.17c2.5-2.24,1.62-6.51-.52-9.1-5-6-14.06-6.33-21.9-5.81.44-1.9-1.31-3.56-3-4.53a22.3,22.3,0,0,0-19.92-.93c-1.6.72-3.22,1.66-5,1.52a8.39,8.39,0,0,1-3.2-1.18c-3.81-2-8-4-12.24-3.27-3,.48-5.51,2.21-8.4,2.9-3.32.8-4.21-.43-7.09-1.51C515.58,351.51,509.81,353.24,507.69,357.57Z"/><path class="cls-5" d="M506.22,340.94a4.23,4.23,0,0,1-1.08,1.65c-.95.73-2.3.33-3.47.06-3.4-.75-6.94,0-10.3,1-4.22,1.16-8.63,2.72-11.33,6.16s-2.71,9.32,1,11.55a19.75,19.75,0,0,0-13.33,12.21c-1.64,4.57-1.33,10.11,1.9,13.73a16.93,16.93,0,0,0,6.22,4.05A45.31,45.31,0,0,0,494,394.93a11.62,11.62,0,0,0,5.24,8.26,22.86,22.86,0,0,0,9.44,3.35A44.92,44.92,0,0,0,532,404c2-.78,4-1.71,6.11-1.45a13.23,13.23,0,0,1,4.18,1.63c10,5,22,4.81,32.94,2.57,3.27-.66,6.58-1.53,9.3-3.46s4.75-5.12,4.46-8.44a3.6,3.6,0,0,1,.13-2,2.94,2.94,0,0,1,1.83-1.16,59.29,59.29,0,0,0,15.19-7.57c4-2.74,7.82-6.4,8.48-11.17a12.1,12.1,0,0,0-4.17-10.4,17.5,17.5,0,0,0-10.71-4c2.5-2.25,1.62-6.52-.53-9.11-5-6.05-14-6.33-21.9-5.81.44-1.89-1.31-3.56-3-4.52a22.27,22.27,0,0,0-19.92-.94c-1.6.72-3.22,1.66-5,1.52a8.43,8.43,0,0,1-3.21-1.18c-3.8-2-8-4-12.23-3.27-3,.48-5.51,2.21-8.41,2.91-3.31.8-4.2-.44-7.08-1.51C514.11,334.88,508.34,336.61,506.22,340.94Z"/><path class="cls-14" d="M544.27,361.38a17.46,17.46,0,0,1,11.07,1.36,10.93,10.93,0,0,1,6,9c.09,3.61-2.05,7-4.91,9.2a26.34,26.34,0,0,1-9.88,4.24A74.13,74.13,0,0,1,503.94,383c-2.84-1-5.75-2.31-7.61-4.69a9.24,9.24,0,0,1-1.29-8.87c1.14-2.94,3.72-5.06,6.32-6.86,19.94-13.88,46.42-16.42,69.87-10.05,6.54,1.78,13.09,4.32,18,9,2.54,2.42,4.64,5.56,4.87,9.07.33,5-3,9.33-6.19,13.16-2.8,3.39-6.57,7.13-10.85,6.16,3.34-3.15,6.8-6.48,8.27-10.83a14.38,14.38,0,0,0-2.57-13.64c-3-3.6-7.63-5.45-12.15-6.76a80.09,80.09,0,0,0-53.71,3.4c-4.4,1.91-9.17,5-9.51,9.79-.23,3.27,1.87,6.4,4.65,8.15a20,20,0,0,0,9.43,2.52A47.27,47.27,0,0,0,544.72,378c3.41-1.65,7.1-4.78,6.18-8.46a4.67,4.67,0,0,0-3.89-3.41c-4.08-.48-5.64,7.41-9.34,3.67C533.64,365.7,541.08,361.93,544.27,361.38Z"/><path class="cls-5" d="M759.08,317.82c0,21.08-7.85,34.86-23.9,54.44s-39.28,37.32-69,52.63c-30.12,15.54-65.27,27.76-104.48,36.31a605.26,605.26,0,0,1-128.8,13.41,605.33,605.33,0,0,1-128.8-13.41c-39.2-8.55-74.35-20.77-104.48-36.31-29.68-15.31-52.88-33-69-52.63S106.5,332.06,106.5,311H96.63c0,95.82,150.57,173.49,336.3,173.49S770.38,406.8,770.38,311h-1.14l-10.16,6.84Z"/></svg>