<svg id="Layer_1" data-name="Layer 1" xmlns="http://www.w3.org/2000/svg" viewBox="0 0 565 733"><defs><style>.cls-1{fill:#323942;}.cls-2{fill:#e48282;}.cls-3{fill:#e49581;}.cls-4{fill:#f4b5a3;}.cls-5{fill:#b5d6d8;}.cls-6{fill:#a4b7b7;}.cls-7{fill:#fff;}</style></defs><title>Food</title><path class="cls-1" d="M153.67,243.88s-23.36-72.61,35.78-101.3,213.33-1.48,213.33-1.48,18,102.17-1,115.51S153.67,243.88,153.67,243.88Z"/><circle class="cls-2" cx="153.67" cy="275.9" r="36.23" transform="translate(-150.22 361.83) rotate(-76.67)"/><circle class="cls-2" cx="422.73" cy="275.9" r="36.23" transform="translate(-73.22 181.8) rotate(-22.39)"/><path class="cls-3" d="M335,407.44,328.87,327,266,335.58,255.75,453.24C276.49,450.75,310.27,441.22,335,407.44Z"/><path class="cls-1" d="M384.9,314.47c-3.5,7.61-5.31,16-9.33,23.32-10.85,19.85-36.36,28.11-56.84,18.45-6-2.84-11.51-7.09-18.05-8.29a20.79,20.79,0,0,0-17.14,4.68c-3.88,3.38-6.51,8.22-11,10.74-3.16,1.78-6.9,2.19-10.53,2.23-19,.2-35.06-8.61-46-23.88-9.89-13.84-16.1-30.27-28.14-42.55-6.54-6.66-14.5-11.66-22.59-16.36.1.93.21,1.86.32,2.85,4.21,38,22.38,71.11,56.88,89.51s81.73,25,118.56,9.84c28.53-11.74,50.56-32.68,61.85-60.9A157.35,157.35,0,0,0,411.87,290C400.17,293.35,390.11,303.11,384.9,314.47Z"/><path class="cls-4" d="M414.2,216.12C407.77,87.51,303,89.41,303,89.41s-139.73-10.77-139.21,152c-1.11,18.27-.39,24.43,1.5,41.39,8.09,4.7,16,9.7,22.59,16.36,17.24,17.57,23.36,45.27,44.15,58.45,8.39,5.31,18.42,7.63,28.35,7.92,4.84.14,10-.28,13.92-3.16,3-2.2,4.84-5.55,7.39-8.23a21.57,21.57,0,0,1,19.83-6c6.15,1.36,11.33,5.34,17,8.06a43.53,43.53,0,0,0,57-18.38c4-7.36,5.83-15.71,9.33-23.32,5.21-11.36,15.27-21.12,27-24.51C415.67,265.56,415.36,239.41,414.2,216.12Z"/><path class="cls-5" d="M54.69,695s45.39-222.71,240.68-222.71S516.14,695,516.14,695Z"/><path class="cls-4" d="M255.75,453.24,251.23,505s2.24-1.13,44.14,3.8,44.88-32.23,44.88-32.23L335,407.44C310.27,441.22,276.49,450.75,255.75,453.24Z"/><path class="cls-1" d="M238,267.29c0,7.1-2.87,12.86-6.43,12.86s-6.43-5.76-6.43-12.86,2.88-12.86,6.43-12.86S238,260.19,238,267.29Z"/><ellipse class="cls-1" cx="350.59" cy="269.47" rx="6.43" ry="12.86"/><path class="cls-1" d="M302.46,275.9a63.51,63.51,0,0,0-8,3.86,24.61,24.61,0,0,0-3.58,2.54,5.86,5.86,0,0,0-2.19,3.45,4.12,4.12,0,0,0,1.91,3.44,9,9,0,0,0,3.76,2,7.88,7.88,0,0,0,4.27-.28,11.77,11.77,0,0,0,3.84-2.15,11,11,0,0,1-3.72,2.49,8.22,8.22,0,0,1-4.5.5,8.85,8.85,0,0,1-4.09-2c-.28-.26-.58-.49-.86-.76a6,6,0,0,1-.74-.93,3.68,3.68,0,0,1-.62-2.34,4.51,4.51,0,0,1,.92-2.21,9.72,9.72,0,0,1,1.57-1.69,20.29,20.29,0,0,1,3.75-2.51A43.42,43.42,0,0,1,302.46,275.9Z"/><path class="cls-1" d="M277.64,318.34a34,34,0,0,0,4,3.14A31.77,31.77,0,0,0,286,324a23.47,23.47,0,0,0,9.59,2.63,19.12,19.12,0,0,0,4.95-.41,21.72,21.72,0,0,0,4.68-1.72,30.18,30.18,0,0,0,7.92-6.2,26.21,26.21,0,0,1-7.65,6.71,19.38,19.38,0,0,1-4.79,1.87,19.81,19.81,0,0,1-5.14.5,23.4,23.4,0,0,1-9.82-2.86A30.61,30.61,0,0,1,277.64,318.34Z"/><circle class="cls-2" cx="225.12" cy="303" r="13.54"/><circle class="cls-2" cx="355.34" cy="306.07" r="13.54"/><path class="cls-1" d="M331.53,243.88a34.65,34.65,0,0,1,9.7-8.57A30.62,30.62,0,0,1,353.62,231a27.84,27.84,0,0,1,6.64.16,27.3,27.3,0,0,1,6.35,1.81,32.43,32.43,0,0,1,10.59,7.46,45.62,45.62,0,0,0-11.15-6A28.26,28.26,0,0,0,353.83,233,34.07,34.07,0,0,0,342,236.67,50.91,50.91,0,0,0,331.53,243.88Z"/><path class="cls-1" d="M252.35,240.43a26.62,26.62,0,0,0-10.19-8.89,27.12,27.12,0,0,0-13-2.65,36.23,36.23,0,0,0-6.7.84c-1.12.18-2.21.53-3.32.8s-2.18.67-3.27,1a111.22,111.22,0,0,0-12.68,5.51,58.07,58.07,0,0,1,12.13-7,40,40,0,0,1,13.78-3.2,25.84,25.84,0,0,1,13.82,3.28A22.67,22.67,0,0,1,252.35,240.43Z"/><path class="cls-1" d="M331,303.57c-11.19,4.3-18.91-22.38-32.58-11.95,0,0-.49.4-2.32.08v-.35c-.27.08-.5.13-.74.19s-.47-.11-.74-.19v.35c-1.83.32-2.32-.08-2.32-.08-13.67-10.43-21.39,16.25-32.59,11.95,10.07,7.91,16.75,10.19,35.65.26C314.27,313.76,321,311.48,331,303.57Z"/><path class="cls-1" d="M410.24,237.86c-17.39-4.69-30.7-95.14-59.65-96.63S227.22,231.37,175,189.78,133.3,96,143.23,92s13.92,21.37,13.92,21.37-3-27.83,8.18-29.82S178,107.93,178,107.93s-6.54-32.3,11.89-32.8,8.49,31.31,8.49,31.31S320.34,30.84,357,89.27C434,105.3,427.64,242.54,410.24,237.86Z"/><path class="cls-1" d="M355.34,93.53s4.73-25.69,11.08-26.42-5.54,23.08-5.54,23.08,10.83-13.93,14-9.88S360.84,97.06,355.34,93.53Z"/><path class="cls-6" d="M254.13,471.83l41.24,37-23.22,45.32s-39.93-31.53-38-73.79c22.45-37.26,21.36-24.72,21.36-24.72Z"/><path class="cls-6" d="M339.19,471.83l-43.82,37,25.8,45.32s39.92-31.53,38-73.79c-22.46-37.26-21.36-24.72-21.36-24.72Z"/><path class="cls-7" d="M300.56,554.14a4.82,4.82,0,1,1-4.82-4.82A4.82,4.82,0,0,1,300.56,554.14Z"/><path class="cls-7" d="M300.56,633.3a4.82,4.82,0,1,1-4.82-4.82A4.82,4.82,0,0,1,300.56,633.3Z"/></svg>