<svg id="Layer_1" data-name="Layer 1" xmlns="http://www.w3.org/2000/svg" xmlns:xlink="http://www.w3.org/1999/xlink" viewBox="0 0 805 733"><defs><style>.cls-1{fill:url(#linear-gradient);}.cls-2{fill:#ff1413;}.cls-3{fill:#cf0507;}.cls-16,.cls-3{opacity:0.6;}.cls-4{fill:#ff4f4d;}.cls-5{fill:#ffb35f;}.cls-6{fill:#ff7c80;}.cls-7,.cls-8,.cls-9{fill:#ffa03a;}.cls-7{opacity:0.7;}.cls-8{opacity:0.8;}.cls-10,.cls-14,.cls-16{fill:#ffd1ab;}.cls-11{fill:#ffe6e0;opacity:0.5;}.cls-12{fill:#ffdfe1;}.cls-13{fill:#ba6b23;opacity:0.4;}.cls-14{opacity:0.3;}.cls-15{fill:#110601;opacity:0.2;}</style><linearGradient id="linear-gradient" x1="68.19" y1="390.8" x2="705.78" y2="501.92" gradientUnits="userSpaceOnUse"><stop offset="0" stop-color="#f16c01"/><stop offset="0.49" stop-color="#dc5300"/><stop offset="1" stop-color="#ca3e00"/></linearGradient></defs><title>Food</title><path class="cls-1" d="M387.47,436.7s-25.12-15.89-52.9,6.6c0,0,10.59,83.34,0,108.47s-97.88,99.21-179.9,82S-.06,471.65,47.53,328.89s613.77-162,682.57-7.29,22.48,235.47,0,252.66-84.57,91.27-199,116.4S362.35,697.28,367.64,655,387.47,436.7,387.47,436.7Z"/><path class="cls-2" d="M388.81,504.15S380.87,374.51,402,346.73s31.12-21.62,35.1-28.23-2.95-22.67-11.47-24-21.78,10-40.29,15.31-25.5-14.88-44.35-5.95c-8.7,4.13-29.76,42.61-31.09,53.2s-15.69-21-36.7-23.13c-15.7-1.57-43.16-5.72-76.24,63.07s-54.23,60.85-56.88,107.14c-1.78,31.12-36.11,5.79-56.53-28.94-10-16.93-10.47-69-10.47-69s-34.59,10.35-41.63-48c-6.2-51.42,13.71-64.64,17-73.59,5.8-15.91-5-54.87,38.73-92.72,47.47-41,71.44-33.06,71.44-33.06s-2.64-29.1,46.3-45,54.23,0,54.23,0,22.5-35.71,100.54-19.84c0,0,64.82-30.42,131,5.29,0,0,71.43-11.91,115.08,46.3,0,0,137.57,7.93,149.48,228.84,0,0,7.94,134.93-71.43,92.6,0,0-26.46,126.89-123,56.17C560.78,523.28,436.43,676.12,388.81,504.15Z"/><path class="cls-3" d="M667.45,178.61s54,49.45,23.61,146.89S597.76,423,568,434.4s-175.12,21.79-157.49,95.53c3.24,13.54,28,69.93,84.39,36.93s44.27-52.85,68.78-52.18,34.45,34.41,63.05,14.6,45.94-88,60.67-75.4C719.15,481.14,814.39,383.17,667.45,178.61Z"/><path class="cls-4" d="M433.78,333.94c12.35-13.9,67.46-3.07,90,82.91S514,568.94,466.86,569C396.09,569,391.21,381.86,433.78,333.94Z"/><path class="cls-5" d="M154,492.57c4.63-23,17.58-33.42,46.62-70.43,33.41-42.56,24.15-71.57,63.83-75.53s64.16,84.45,63.17,121.16,9.92,67.46-20.83,94.25-133,82.35-143.86,38.69S149.38,515.62,154,492.57Z"/><path class="cls-4" d="M640.64,367.37c38.7,68.45,36.72,150.8-13.91,161.91-39,8.54-48.17-68.4-67.62-123C532,330,454.13,312.8,495.8,289,523.54,273.14,592.39,282,640.64,367.37Z"/><path class="cls-4" d="M689.26,288c57.61,58.41,67.82,147.61,23.09,161.53C686.29,457.65,686,383.64,637,328.89c-61.4-68.67-141.22-60.3-106-85.54C554.54,226.55,618.82,216.57,689.26,288Z"/><path class="cls-4" d="M631.29,211.47c77.81,29.76,90.05,83.92,96,83.64,6.22-.29,12.91-65.47-79.36-121.69-105.08-64-169,47.12-143.52,57.82C527.42,240.91,557.26,183.14,631.29,211.47Z"/><path class="cls-4" d="M124.42,333.94C81.33,377,86.83,453.65,100.75,473.52c11.11,15.87,19.07,21.91,44.84-24.59,4.58-8.27,20.94-25.09,40.37-52.79,8.15-11.62,19.82-46,36.35-58.86,42.11-32.67,63.65,3.41,56.22-14.56C270.67,303.71,177.13,281.23,124.42,333.94Z"/><path class="cls-4" d="M88.05,257.41C36.21,292,31.43,367.42,57,378.94c19,8.59,3.75-20.9,63.83-67.41,61.75-47.81,148.68-3.43,140.43-19.89C242.75,254.72,165.24,206,88.05,257.41Z"/><path class="cls-6" d="M519,147c-29.5,25.93-41.83,62.23-53.39,58.05s-17.48-33.56,3.28-66.9c37.21-59.76,110.43-17.19,113.74-9.26C587.3,140.27,554.51,115.77,519,147Z"/><path class="cls-4" d="M441.13,145.31c-21,36.9-19.48,59.87-44.87,59.87s-27.12-30.9-27.12-70.29c0-32.25,2.08-45.41,47.69-47.45C475.79,84.79,464.3,104.63,441.13,145.31Z"/><path class="cls-4" d="M267.87,118.4c7.28-23.38,95.2-36.35,87.36,2.26-5.42,26.72,0,90.29-18.49,97.56S257.43,152,267.87,118.4Z"/><path class="cls-4" d="M250.17,119.43c-6.76-22.4-102.94,14.8-68.54,36.7,98.35,62.6,88.63,88.72,99.81,82.6C297.23,230.07,268.76,181.08,250.17,119.43Z"/><path class="cls-4" d="M264,256.56c-14.55,6-37.11-21.28-92.13-30.4-50.08-8.31-144.09,29.07-73.22-32.41,35.52-30.82,61.18-28.23,93.92-10.58C238.85,208.14,277,251.23,264,256.56Z"/><path class="cls-7" d="M755.44,454.37c6,4.95,7.07,46.34-14.6,80.91s-31.74,35.46-35.55,7c-3.3-24.7-5.74-53.46,11.25-55.45C742.16,483.77,749.5,449.43,755.44,454.37Z"/><path class="cls-7" d="M539,576.06c13.87,70.61-13.88,107.15-72.1,107.15-69.49,0-85.27-29.41-75.54-104.17,2.47-18.85,33.21,26.62,75.54,26.62S535.4,557.55,539,576.06Z"/><path class="cls-7" d="M600.8,642.87c-16.54-5.88-18.58-82.35-1.32-82.35,66.27,0,77.27-58,77.27-41.66C676.75,606.16,623.7,651,600.8,642.87Z"/><path class="cls-8" d="M360.22,370.75c0,23.12-6,41.86-13.32,41.86s-13.3-18.74-13.3-41.86,6-41.86,13.3-41.86S360.22,347.63,360.22,370.75Z"/><path class="cls-9" d="M123.27,600.39c8.19-3.16,5.79-69-.51-70.46-61.67-14-54.11-103.3-58.35-89.45C41.9,513.89,103.22,608.14,123.27,600.39Z"/><path class="cls-10" d="M284.55,447.59a6.51,6.51,0,1,1-8.31-2.91A6.23,6.23,0,0,1,284.55,447.59Z"/><path class="cls-10" d="M261.43,560.69a4.6,4.6,0,1,1-5.93-2.17A4.46,4.46,0,0,1,261.43,560.69Z"/><path class="cls-10" d="M315.21,505.64a6.48,6.48,0,1,1-8.52-3.41A6.48,6.48,0,0,1,315.21,505.64Z"/><path class="cls-10" d="M277.64,489c1,2.33-.63,5.27-3.64,6.57s-6.28.46-7.28-1.88.62-5.28,3.63-6.57S276.64,486.67,277.64,489Z"/><path class="cls-10" d="M308.92,466.75a4.06,4.06,0,1,1-5.32-2.13A4.07,4.07,0,0,1,308.92,466.75Z"/><path class="cls-10" d="M289.16,529.32c1.89,4.4-.7,9.72-5.77,11.91s-10.71.39-12.6-4,.7-9.72,5.76-11.89S287.28,524.93,289.16,529.32Z"/><path class="cls-11" d="M440.53,340.41c8.73-9.85,47.78-2.18,63.72,58.75S497.36,506.91,464,506.92C413.82,507,410.36,374.35,440.53,340.41Z"/><path class="cls-11" d="M601,327.59C634.91,366.1,644.75,419,613.9,432.86c-23.74,10.73-39.74-37.34-59.78-69.46-31.72-50.89-70.35-51.56-56.23-66.36C512.29,281.94,558.63,279.55,601,327.59Z"/><path class="cls-11" d="M631.29,250.5c45,22.15,85.4,73,48,81.34-18,4-34.81-32.44-70.93-51.58-58-30.75-82.34-18.35-70.28-32.23C548.85,235.67,588.86,229.57,631.29,250.5Z"/><path class="cls-11" d="M593.13,183.92c53.65-5.94,76.65,20.73,77.1,16.47.38-3.51-20.71-31.46-70.77-39.35-73.41-11.57-108.62,64.26-89.29,63.35C527.66,223.55,548.87,188.82,593.13,183.92Z"/><path class="cls-11" d="M507.13,143.16c-21.47,21-31.23,49.47-39.2,46.59s-8.71-22.1,6.86-48.55C502.7,93.78,560.68,113.65,561,120,561.17,124.33,533,117.87,507.13,143.16Z"/><path class="cls-11" d="M432.75,131c-14.4,25.27-13.33,41-30.71,41s-18.58-21.17-18.58-48.13c0-22.07,1.42-31.09,32.65-32.49C456.48,89.52,448.61,103.1,432.75,131Z"/><path class="cls-11" d="M275,116.87c5.37-17.27,70.3-26.85,64.51,1.66-4,19.74,0,66.68-13.66,72.05S267.27,141.65,275,116.87Z"/><path class="cls-11" d="M237.41,120.19c-5.39-14.65-68,13.9-44.23,27.13,68,37.82,62.55,55.59,69.75,51.08C273.11,192,252.22,160.5,237.41,120.19Z"/><path class="cls-11" d="M224.59,227.74c-9.64,4.83-26.44-12.64-64.48-16.06-34.63-3.13-97,27.2-51.67-18.41,22.69-22.86,40.36-22.4,63.61-12C205,196,233.19,223.44,224.59,227.74Z"/><path class="cls-11" d="M72.26,279.23c-27.67,27.2-33.16,84-12.74,89.33,10.55,2.75,7.54-27.51,40.25-62.62,52.07-55.89,112.91-31.56,109.45-45C205,244.51,123.13,229.21,72.26,279.23Z"/><path class="cls-11" d="M128.29,346.49C100,386.55,93.4,445.11,105.62,457.94c9.78,10.26,59.79-62.45,64.86-77.51,17.33-51.54,64.79-59.92,69.79-64.61C251.14,305.64,164.59,295.11,128.29,346.49Z"/><path class="cls-12" d="M450.47,345.12c2.31-3.86,15.89-3.77,25.11,15.64s4.55,36.55-6.64,38.69C452.13,402.66,442.52,358.42,450.47,345.12Z"/><path class="cls-12" d="M531.7,292.2c11.77,3,20.77,12,16.6,18.85-3.2,5.26-12.21-3.68-21-5.59-15.66-3.42-23.18-1.45-22.39-6.24S517,288.47,531.7,292.2Z"/><path class="cls-12" d="M431.49,112.09c-6.46,10.56-6.21,17.27-13.6,17s-7.64-9.24-7.28-20.73c.29-9.39,1-13.2,14.32-13.39C442.13,94.77,438.61,100.44,431.49,112.09Z"/><path class="cls-12" d="M184.31,199.27c-4,1.48-11.32-5.06-27.45-7.14-14.67-1.9-40.69,7.39-22.05-7.68,9.35-7.55,16.83-7,26.78-2.79C175.65,187.6,187.89,198,184.31,199.27Z"/><path class="cls-12" d="M89.56,268.39c-16.41,11.15-28.34,34.51-18.22,36.68,5.23,1.14,10.69-11.34,30.34-25.74,31.26-22.92,54.5-18.29,53.77-23.8C154.55,248.79,119.74,247.88,89.56,268.39Z"/><path class="cls-12" d="M150.46,330.71c-14.33,9.74-24.75,30.14-15.91,32,4.57,1,9.34-9.91,26.5-22.49,27.31-20,48.95-19.73,48.31-24.54C208.58,309.84,176.83,312.79,150.46,330.71Z"/><path class="cls-12" d="M224.22,137.24c-9.11-2.48-14-.88-15.4-6.35s5.14-7.55,13.61-9.74c6.95-1.77,9.9-2.05,12.9,7.65C239.2,141.36,234.28,140,224.22,137.24Z"/><path class="cls-12" d="M517.84,124.81c-14.73,5.34-25.26,16.16-27.12,14.28s2.28-12.61,15.54-20.53c16.7-10,40.47-5,38.87-2.3C544.06,118,534.07,118.94,517.84,124.81Z"/><path class="cls-13" d="M285,353.09s48.6,114.56,24.25,180.19c-15.07,40.62-102.6,71.26-119.88,75.33-10.75,2.53-14.67,15,12.59,6.75s87.13-28.43,115.64-65.21S324.59,381.34,285,353.09Z"/><path class="cls-14" d="M240.94,494.57c-13.07,28.29-36.67,45.2-52.7,37.78s-18.43-36.36-5.35-64.64,36.67-45.2,52.7-37.78S254,466.29,240.94,494.57Z"/><path class="cls-14" d="M102.78,569.49c4.87-1.89,6.86-35.36,3.11-36.21-36.7-8.32-39.71-73.44-41.07-64.93C59.52,501.7,90.84,574.09,102.78,569.49Z"/><path class="cls-15" d="M476.07,257.41c0,18.4-52.8,32-100.85,27-79.36-8.19-90.22,31.71-90.22,13.3s4.78-58.16,103.61-73.66C436.33,216.6,476.07,239,476.07,257.41Z"/><path class="cls-16" d="M480.49,640.59a5.83,5.83,0,1,1-5.83-5.82A5.82,5.82,0,0,1,480.49,640.59Z"/><path class="cls-16" d="M464.06,631.73a4.21,4.21,0,1,1-4.21-4.22A4.22,4.22,0,0,1,464.06,631.73Z"/><path class="cls-16" d="M459.85,652.25a2.11,2.11,0,1,1-2.11-2.1A2.1,2.1,0,0,1,459.85,652.25Z"/><path class="cls-16" d="M521.76,604.69a3.85,3.85,0,1,1-3.85-3.85A3.85,3.85,0,0,1,521.76,604.69Z"/><path class="cls-16" d="M615.86,575.36a3.55,3.55,0,1,1-3.54-3.54A3.54,3.54,0,0,1,615.86,575.36Z"/><path class="cls-16" d="M651.54,565.73a3.24,3.24,0,1,1-3.23-3.23A3.24,3.24,0,0,1,651.54,565.73Z"/><path class="cls-16" d="M638.09,582.88a3,3,0,1,1-3-3A3,3,0,0,1,638.09,582.88Z"/><path class="cls-16" d="M631.77,574.45a2.63,2.63,0,1,1-2.62-2.63A2.62,2.62,0,0,1,631.77,574.45Z"/><path class="cls-16" d="M633.3,606.9a6.07,6.07,0,1,1-6.07-6.06A6.07,6.07,0,0,1,633.3,606.9Z"/><path class="cls-16" d="M718.89,522.32a2.39,2.39,0,1,1-2.39-2.39A2.39,2.39,0,0,1,718.89,522.32Z"/><path class="cls-16" d="M724.25,512.06a3.87,3.87,0,1,1-3.87-3.87A3.88,3.88,0,0,1,724.25,512.06Z"/></svg>