<svg xmlns="http://www.w3.org/2000/svg" xmlns:xlink="http://www.w3.org/1999/xlink" viewBox="0 0 805 733"><defs><style>.cls-1{isolation:isolate;}.cls-19,.cls-2{opacity:0.6;}.cls-2{mix-blend-mode:multiply;fill:url(#radial-gradient);}.cls-3{fill:#ff6a72;}.cls-4{fill:url(#linear-gradient);}.cls-5{fill:#5d190b;}.cls-6{fill:#7b2a21;}.cls-11,.cls-7{fill:#fff;}.cls-7{opacity:0.15;}.cls-8,.cls-9{fill:#ffe4b4;}.cls-17,.cls-9{opacity:0.4;}.cls-10{fill:#ffb8be;}.cls-11,.cls-16,.cls-18{opacity:0.2;}.cls-12{fill:#008d00;}.cls-13{opacity:0.3;}.cls-14{fill:#f70001;}.cls-15,.cls-17{fill:#ff9e00;}.cls-18{fill:#fff6ee;}.cls-19,.cls-20{fill:#ff9fa7;}</style><radialGradient id="radial-gradient" cx="463.32" cy="-313.68" r="341.68" gradientUnits="userSpaceOnUse"><stop offset="0.42"/><stop offset="0.98" stop-color="#e5e4e5" stop-opacity="0.06"/><stop offset="1" stop-color="#f2f1f2" stop-opacity="0"/></radialGradient><linearGradient id="linear-gradient" x1="282.45" y1="441.9" x2="742.12" y2="485.26" gradientUnits="userSpaceOnUse"><stop offset="0" stop-color="#ff353e"/><stop offset="1" stop-color="#f5060b"/></linearGradient></defs><title>Food</title><g class="cls-1"><g id="Layer_1" data-name="Layer 1"><circle class="cls-2" cx="463.32" cy="-313.68" r="341.68"/><path class="cls-3" d="M731.22,474.59C726,654.23,587.94,682.67,411.32,682.67S98.76,657.14,91.64,474.59c-8.11-208,143.18-207.14,319.79-207.14S738.54,220.62,731.22,474.59Z"/><path class="cls-4" d="M91.33,451.37c20.58,25.14,41.77-61.58,50.27-27.91,20.64,81.81-28.37,129.77,44.69,140.06,48.67,6.86,57.76-52.66,60.11-76s36.6,8.88,60.32,8c51.67-2-9.51,113.32,74.94,88.09,30.17-9,34.77-16.16,36.29-58.91s41.57-27.37,38.38,7.67,4.6,114.93-75.7,120.29c0,0,114.45,34.24,207.15,0,54.12-20,100.71-29.38,123.36-83.23C724.42,537.86,734,498,730.84,427.1c-.69-15.38-7.54-39.65-8.85-57.26C704.29,132.4-6,332.48,91.33,451.37Z"/><path class="cls-5" d="M409.12,107.23C182.63,101.37,76.11,193.65,66.39,283c-7.46,68.65-1,177.69,19.43,172.84s37.86-68.94,52.43-65.06,20.39,83.51,19.42,101-8.74,50.5,16.5,54.38,37.87-19.42,35-41.75,5.83-78.65,25.25-74.77,15.46,25.52,29.46,34.63c39.16,25.52,75.09,1.3,75.41,48.88.09,13.72-1.95,54.37,21.35,51.46s39.82-16.51,37.89-49.52,11.64-60.2,34.95-67,63.84,35.61,56.32,77.68c-17.48,97.75,41.75,81.57,38.83,55.35s-13.07-111.66.26-133,36.55-55.8,64.8-14.56c35.93,52.43-5.55,144,25.53,193.42,8.59,13.68,42.13,1.43,38.55-18.64-24-134.91,7.08-228,29.13-245.11,21.08-16.35,23.51,66.52,41.75,73.24s19.17,6,24.29-46.94C774.21,168.48,631.81,113,409.12,107.23Z"/><path class="cls-5" d="M413.36,653.26c-152.15,0-281.51-36.5-301.45-83.77,22,82,146.18,118.72,298.22,118.72,155.39,0,280-39.2,301-118.78C688.21,615.37,562.59,653.26,413.36,653.26Z"/><path class="cls-6" d="M133.26,186.84C61.82,259.6,85.68,346.23,113.49,330.45s39.14-23.78,50.51.65c14.92,32.06,22.29,42.23,64.79,33.58,48.27-9.83,66.33,26.88,89.34,35s31.42,59,48.24,59.63,22.48-42.4,34.56-56.46,57.8-20.59,69.88,2.68,18.42,59.91,29.71,35.67S561.22,345,602.67,379s44.54-12.54,56.82-28.92,42.33-56.47,55.57-30.16c12.48,24.8,50.13-66.85-35.87-132.3C521.43,67.53,204.69,114.09,133.26,186.84Z"/><path class="cls-7" d="M700.16,234.27c0,61.36-131.38,111.11-293.47,111.11S113.21,295.63,113.21,234.27s131.4-111.09,293.48-111.09S700.16,172.92,700.16,234.27Z"/><path class="cls-8" d="M391,342.23c.65,7.67-104.38-1.87-179.47-25-51.63-15.9-107-62.93-97.13-74.7s21.18,34.32,109,63.89C293.8,330.18,390.35,334.56,391,342.23Z"/><path class="cls-9" d="M122,297.75c-3.53,8.22-13.49,12.6-18.54,9-7.13-5-9.26-13.79-5.72-22A14.57,14.57,0,0,1,116.32,277C122,279.45,125.58,289.54,122,297.75Z"/><path class="cls-10" d="M115.23,468c11.65-.29,3.69,68.92,35.41,95.51,59.05,49.49,170.62,47.82,168.68,65.3s-158.38-9.06-191.15-53.65C97.22,533.06,103.57,468.29,115.23,468Z"/><path class="cls-11" d="M425,279.84c-115,0-208.24-40-208.24-89.34,0-23.06,20.39-39.23,53.87-49.91-67.52,15.95-112.49,44.29-112.49,76.63,0,49.84,106.75,90.25,238.42,90.25,122.7,0,223.71-35.08,236.91-80.2C591.67,257.8,507,279.84,425,279.84Z"/><path class="cls-12" d="M496.87,109.33s-4.89-34.65,54.34-45c0,0-12,33.69-16.36,39.18s20.79-6.16,55.6,6.13c0,0-26.67,24.81-39.24,26.33,0,0,4.44,13.65,39.24,17.7,0,0-40.89,41.7-74.77-.65S493.24,124.71,496.87,109.33Z"/><path class="cls-13" d="M501,105.28s27.15-16.36,33.87-24.13-17,30.26-11.77,31.63,41.18,5.18,51.08,0-17.89,26-39.31,19.5,20.79,31.51,33.39,27.41S501.85,192.21,501,105.28Z"/><path class="cls-14" d="M534.85,182.49c0,42.91-37.48,64.69-106.17,64.69S276.53,238,276.53,195.07,360,74.67,428.68,74.67,534.85,139.6,534.85,182.49Z"/><path class="cls-15" d="M409.74,100.39c1.69,3.15-2.15,7.89-8.61,10.59s-13.06,2.33-14.77-.81,2.16-7.89,8.61-10.58S408,97.26,409.74,100.39Z"/><path class="cls-15" d="M399.31,145.21c1.54,2.87-2,7.17-7.94,9.59s-12,2-13.5-.82,2-7.17,7.94-9.59S397.77,142.33,399.31,145.21Z"/><path class="cls-15" d="M327.16,162.1c1.53,2.89-2,7.18-8,9.6s-11.95,2.05-13.49-.82,2-7.18,7.93-9.59S325.61,159.23,327.16,162.1Z"/><path class="cls-15" d="M403.94,186.12c1.54,2.88-2,7.17-7.94,9.59s-11.95,2.06-13.49-.82,2-7.17,7.93-9.58S402.4,183.25,403.94,186.12Z"/><path class="cls-15" d="M468.63,152.59c1.54,2.88-2,7.17-7.94,9.59s-12,2-13.49-.82,2-7.17,7.93-9.58S467.09,149.72,468.63,152.59Z"/><path class="cls-15" d="M359.79,124.75c1.54,2.88-2,7.17-7.93,9.6s-12,2.05-13.49-.83,2-7.16,7.92-9.58S358.25,121.88,359.79,124.75Z"/><path class="cls-15" d="M345.24,206.28c.61,3.15-4.13,6.5-10.58,7.51s-12.18-.72-12.79-3.86,4.11-6.5,10.56-7.5S344.62,203.14,345.24,206.28Z"/><path class="cls-15" d="M465,207.61c1.53,2.87-2,7.17-7.95,9.59s-11.95,2.06-13.49-.82,2-7.17,7.93-9.59S463.41,204.73,465,207.61Z"/><path class="cls-15" d="M404.86,222.38c1.14,3-3,6.9-9.21,8.67s-12.16.77-13.27-2.25,3-6.9,9.2-8.67S403.73,219.36,404.86,222.38Z"/><path class="cls-15" d="M511.27,167.87c2.08.94,1.33,5.83-1.7,10.93s-7.15,8.46-9.23,7.52S499,180.5,502,175.41,509.18,166.94,511.27,167.87Z"/><path class="cls-16" d="M436.43,85.77s84.42,46.19,32.22,96.68-178.76,25.41-181,4.85-28.11,35.15,38.15,49.62,201.84,25.7,208.45-45.46S462.67,80.49,436.43,85.77Z"/><path class="cls-17" d="M466.7,145.13c2.48,23.46-19,37.21-60.77,40.6s-92.94,2.45-95.44-21,43.71-69.95,85.45-73.34S464.21,121.66,466.7,145.13Z"/><path class="cls-18" d="M424.92,130.33c1.47,14-11.36,22.24-36.31,24.25s-55.52,1.47-57-12.55,26.13-41.8,51.06-43.81S423.43,116.31,424.92,130.33Z"/><path class="cls-19" d="M692,467.16c0,6.8-2.61,12.31-5.83,12.31s-5.81-5.51-5.81-12.31,2.59-12.32,5.81-12.32S692,460.35,692,467.16Z"/><path class="cls-19" d="M684.22,520.79a6.79,6.79,0,1,1-6.79-6.79A6.8,6.8,0,0,1,684.22,520.79Z"/><path class="cls-19" d="M602.48,498.07a6.22,6.22,0,1,1-6.22-6.22A6.22,6.22,0,0,1,602.48,498.07Z"/><path class="cls-19" d="M574.51,478.45a1.95,1.95,0,1,1-1.94-1.94A1.94,1.94,0,0,1,574.51,478.45Z"/><path class="cls-19" d="M584.51,527.73a6.95,6.95,0,1,1-6.94-6.94A6.93,6.93,0,0,1,584.51,527.73Z"/><path class="cls-19" d="M576.85,501.18a3.12,3.12,0,1,1-3.12-3.11A3.12,3.12,0,0,1,576.85,501.18Z"/><path class="cls-19" d="M602.48,476.47a3.11,3.11,0,1,1-3.11-3.11A3.09,3.09,0,0,1,602.48,476.47Z"/><path class="cls-19" d="M474.89,622.8a6,6,0,1,1-6-6A6,6,0,0,1,474.89,622.8Z"/><path class="cls-19" d="M474.89,591.43a4.18,4.18,0,1,1-4.18-4.18A4.18,4.18,0,0,1,474.89,591.43Z"/><path class="cls-19" d="M486.16,610.13a2.92,2.92,0,1,1-2.93-2.91A2.92,2.92,0,0,1,486.16,610.13Z"/><path class="cls-20" d="M283,526a5.23,5.23,0,1,1-5.23-5.22A5.24,5.24,0,0,1,283,526Z"/><path class="cls-20" d="M283,553.74a2.62,2.62,0,1,1-2.62-2.61A2.62,2.62,0,0,1,283,553.74Z"/><path class="cls-20" d="M303.37,532.77a5,5,0,1,1-5-5A5,5,0,0,1,303.37,532.77Z"/><path class="cls-20" d="M267,544.54a6.1,6.1,0,1,1-6.1-6.1A6.1,6.1,0,0,1,267,544.54Z"/><path class="cls-20" d="M299.17,582.18a5.07,5.07,0,1,1-5.07-5.07A5.07,5.07,0,0,1,299.17,582.18Z"/><path class="cls-20" d="M136.59,463.24a3.89,3.89,0,1,1-3.88-3.89A3.89,3.89,0,0,1,136.59,463.24Z"/><path class="cls-20" d="M140.51,486.23a5.85,5.85,0,1,1-5.85-5.84A5.85,5.85,0,0,1,140.51,486.23Z"/><path class="cls-20" d="M125.35,457.87a3,3,0,1,1-3-3A3,3,0,0,1,125.35,457.87Z"/></g></g></svg>