<svg id="Layer_1" data-name="Layer 1" xmlns="http://www.w3.org/2000/svg" xmlns:xlink="http://www.w3.org/1999/xlink" viewBox="0 0 805 733"><defs><style>.cls-1{fill:#610c01;}.cls-2{fill:#841a00;}.cls-3{fill:#b72900;}.cls-3,.cls-4{opacity:0.7;}.cls-4,.cls-5{fill:#cd300c;}.cls-5{opacity:0.5;}.cls-23,.cls-6,.cls-7{fill:#fff;}.cls-27,.cls-6{opacity:0.3;}.cls-34,.cls-7{opacity:0.4;}.cls-8{fill:url(#linear-gradient);}.cls-9{fill:url(#linear-gradient-2);}.cls-10{fill:url(#linear-gradient-3);}.cls-11{fill:url(#linear-gradient-4);}.cls-12{fill:url(#linear-gradient-5);}.cls-13{fill:url(#linear-gradient-6);}.cls-14{fill:url(#linear-gradient-7);}.cls-15{fill:url(#linear-gradient-8);}.cls-16{fill:url(#linear-gradient-9);}.cls-17{fill:url(#linear-gradient-10);}.cls-18{fill:url(#linear-gradient-11);}.cls-19{fill:url(#linear-gradient-12);}.cls-20{fill:url(#linear-gradient-13);}.cls-21{fill:url(#linear-gradient-14);}.cls-22{fill:url(#linear-gradient-15);}.cls-24{opacity:0.25;}.cls-25{fill:url(#linear-gradient-16);}.cls-26{fill:#ffdb00;}.cls-26,.cls-28,.cls-30{opacity:0.2;}.cls-29{fill:url(#linear-gradient-17);}.cls-30{fill:#fff6ee;}.cls-31{fill:#008d00;}.cls-32{fill:#f70001;}.cls-33,.cls-34{fill:#ff9e00;}</style><linearGradient id="linear-gradient" x1="102.77" y1="331.89" x2="666.06" y2="331.89" gradientUnits="userSpaceOnUse"><stop offset="0" stop-color="#ffc8be"/><stop offset="1" stop-color="#ce989d"/></linearGradient><linearGradient id="linear-gradient-2" x1="270.64" y1="446.11" x2="686.23" y2="446.11" gradientUnits="userSpaceOnUse"><stop offset="0" stop-color="#ff6752"/><stop offset="0.32" stop-color="#f15446"/><stop offset="0.98" stop-color="#ce2327"/><stop offset="1" stop-color="#cd2126"/></linearGradient><linearGradient id="linear-gradient-3" x1="163.12" y1="340.39" x2="638.19" y2="340.39" xlink:href="#linear-gradient-2"/><linearGradient id="linear-gradient-4" x1="350.13" y1="169.48" x2="445.13" y2="169.48" gradientUnits="userSpaceOnUse"><stop offset="0" stop-color="#ffcac7"/><stop offset="1" stop-color="#ee92ab"/></linearGradient><linearGradient id="linear-gradient-5" x1="241.26" y1="263.57" x2="567.21" y2="263.57" xlink:href="#linear-gradient-2"/><linearGradient id="linear-gradient-6" x1="165.45" y1="304.15" x2="605.93" y2="304.15" gradientUnits="userSpaceOnUse"><stop offset="0" stop-color="#ff6a72"/><stop offset="1" stop-color="#d3353e"/></linearGradient><linearGradient id="linear-gradient-7" x1="263.91" y1="240.16" x2="494.59" y2="240.16" gradientUnits="userSpaceOnUse"><stop offset="0" stop-color="#ffe7bc"/><stop offset="0.33" stop-color="#ffc993"/><stop offset="0.78" stop-color="#ffa462"/><stop offset="1" stop-color="#ff964f"/></linearGradient><linearGradient id="linear-gradient-8" x1="318.63" y1="204.82" x2="475.04" y2="204.82" gradientUnits="userSpaceOnUse"><stop offset="0" stop-color="#ff6752"/><stop offset="0.32" stop-color="#f85446"/><stop offset="0.98" stop-color="#e52327"/><stop offset="1" stop-color="#e42126"/></linearGradient><linearGradient id="linear-gradient-9" x1="104.55" y1="413.54" x2="660.17" y2="413.54" xlink:href="#linear-gradient-6"/><linearGradient id="linear-gradient-10" x1="142.22" y1="378.76" x2="630.17" y2="378.76" xlink:href="#linear-gradient-6"/><linearGradient id="linear-gradient-11" x1="114.16" y1="462.16" x2="652.37" y2="462.16" xlink:href="#linear-gradient-7"/><linearGradient id="linear-gradient-12" x1="200.3" y1="284.4" x2="419.57" y2="284.4" xlink:href="#linear-gradient-7"/><linearGradient id="linear-gradient-13" x1="165.22" y1="315.22" x2="585.26" y2="315.22" xlink:href="#linear-gradient-7"/><linearGradient id="linear-gradient-14" x1="131.28" y1="400.81" x2="650.14" y2="400.81" xlink:href="#linear-gradient-7"/><linearGradient id="linear-gradient-15" x1="269.31" y1="233.99" x2="481.24" y2="233.99" xlink:href="#linear-gradient-7"/><linearGradient id="linear-gradient-16" x1="1052.55" y1="-987.14" x2="1153.59" y2="-992.5" gradientTransform="matrix(0.86, 0.51, -0.51, 0.86, -957.29, 510.58)" gradientUnits="userSpaceOnUse"><stop offset="0" stop-color="#5a9500"/><stop offset="0.49" stop-color="#65ac01"/><stop offset="1" stop-color="#6ebf01"/></linearGradient><linearGradient id="linear-gradient-17" x1="-443.95" y1="778.04" x2="-442.35" y2="731.13" gradientTransform="translate(526.96 -739.48) rotate(-25.89)" xlink:href="#linear-gradient-16"/></defs><title>Food</title><path class="cls-1" d="M86.87,405.62c.06,2,0,0,.06,2C90.38,585.79,223.72,711,394.16,711S710.31,578.26,702.47,423.79C702.21,418.61,86.87,405.62,86.87,405.62Z"/><path class="cls-2" d="M690.69,458.23c1.87-8.28,13.41-17.82,13.41-26.4,0-23.29-11.51-26.1-24.53-46.63C635.08,315,526.8,254.2,394,254.2c-115.31,0-221.77,48.7-275.37,104.63-14.9,15.55-27.67,27.8-30.95,41.84a.61.61,0,0,1-.07.14,19.94,19.94,0,0,0-.62,3.84,2.23,2.23,0,0,1,0,.27c-1.46,15.91.43,68.55,10.18,80a.27.27,0,0,1,.07.08c.16.32.32.67.5,1,.64,6.71,3.32,16.8,9.84,32.1,5.49,12.89,22.88,51.26,27.11,50.14,3.7-1-26.48-58.22-13.6-68.46,1.26-1,3.42-.52,5.6.22a14.25,14.25,0,0,1,4.57,4.11c4.76,6.92,1,15.46.64,23.42-3.72,6.3-1.65,21.32,26.61,65.59,13.72,21.49,37,53.72,44.2,50.16,6.25-3.09-23.39-43.6-34.93-87-1.34-5,7.73-2.59,10.85-4.75,3.17-.28,5.32-.26,5.94.9,2.8,5.23,2.92,11.44,4.66,17.55-.42,9.9,6.57,28.4,36.37,71.08,18.13,26,48.42,52.07,57,49.44,6.74-2-39.58-40.61-49.78-96.52-.46-2.6,2.7-5.6,6.51-8.62,9.34-4.43,17.7-9.73,25.38-8.93,7.46.77,6.64,18.27,10.49,31,0,10.11,6.46,27.75,27.27,60.81C318.08,693,341,712,352,706.6s4.89-17.45-2.18-45.87c-4.23-16.91-15.12-30.71-7-43.06a23.81,23.81,0,0,0,2.66-5.33c7.25-5,12.32-9.82,18.09-9.57,5.05.2,9.6,9.88,16.43,18.5,4.09,9.12,3.35,22.39,4.36,32.39,3,28.78,19.31,55.8,31.43,55.58S442,682,442,653.08c0-17.57-3.22-24.73,4.69-40.54a13.78,13.78,0,0,0,.52-1.38c4.34-6.61,7.77-12.24,13.52-13.08,10.65-1.55,18.89,4.63,28.89,10a.55.55,0,0,1,.07.09c9.66,11,3.29,23.07,1.46,40.22-3.06,28.76-7.39,41.38,4.13,45.18s31.4-18,43.29-44.33c14-31.12,18.74-48.87,18.68-59.44,6.34-11.45,10.56-24.13,21.08-32.1,4.91-3.7,11.24-1.25,17.81,2.37a13.63,13.63,0,0,1,2.39,7.28c-1.45,51.46-35.8,88.08-28.39,91s26.6-18.62,38.8-43.84c13.61-28.14,19.66-44.72,21.59-54.77,8.05-13.77,6.54-34.29,14.51-41.67a40.62,40.62,0,0,1,12-7.55c3.17,0,6.14,0,5.59,3.08-8,44.18-30.93,83.36-24.45,85.94,7.43,3,24.72-27.46,36.65-50,22.64-42.72,25.14-58.93,22.12-65.9C695.62,475.44,689.22,464.63,690.69,458.23Zm-591.16-.08c-1-8.53-2.18-17.54-3.07-24.95,1,1.5,2.05,3,3.27,4.57C103.32,442.35,101.73,450.1,99.53,458.15Z"/><path class="cls-3" d="M104.64,382.26c.66-1.17,1.19-2.33,1.94-3.5C106.58,378.76,105.77,380,104.64,382.26Z"/><path class="cls-4" d="M605.93,529.9c-31.08,28.83-130.26,49.84-179.41,52.16S271,586,165.46,518.09c-67.53-43.45-72.74-88.3-67.74-115,.44-2.06.88-4,1.3-5.79a75.52,75.52,0,0,1,5.62-15.05c-1.37,2.38-2.57,4.74-3.68,7.13.17-.63.28-1.07.28-1.07C79.5,397.6,95,475.67,93.32,462.17c-1.17-9.46.29-20.51,1.28-26.36A101.28,101.28,0,0,0,107.52,470c-2.84,4.92-9,18.47-3,36.55,7.59,22.9,23,46.23,23,46.23s-26.47-53.74-8.66-66.28a184.49,184.49,0,0,0,15.88,17.54s-.08,0-.09,0,3.34,16,0,25.8,18.45,62.43,43.38,90.19-7.43-22.24-14.94-40.37-11.42-42.24,17.82-34.18c10.86,3,12.43,29.79,15.55,39.46,3.58,11.1,30.47,62,58,88.63s-35.66-65.81-36.25-76.35,11.42-22.72,30-24.52c0,0,17.46-2.33,22.43,9s4.93,32.58,13.11,46.52c9.95,17,36.72,60.1,50.91,69.62s-39.35-90.72,2.62-101.68,0,0,.05,0c47.07-3.46,54.58,28,53.38,36.16-1.64,11.11,10.2,56.43,19.42,66.23s7-45.74,6.44-55.7c-.52-8.66,3.75-38.27,17.05-42.92,40.87-14.27,76,3.77,69.84,28.31s-10.54,59.66-6.14,57,40.43-65.57,26-100.8C617.09,556.87,630.09,507.49,605.93,529.9Z"/><path class="cls-5" d="M616.53,558.3c3.22,10.75-4,48.28-24,72.18s16.1-43,10.9-64.5S613.33,547.57,616.53,558.3Z"/><path class="cls-4" d="M689.81,405.62s15.79,14.37,4.68,33.67S683.11,404,689.81,405.62Z"/><path class="cls-5" d="M684.41,500.18c1.55,11-7.46,45.36-28.24,72.58-17.84,23.36,18.3-44.34,16.28-66.2S682.89,489.2,684.41,500.18Z"/><path class="cls-6" d="M613.1,565.38c.37,8.68-6.51,38-17.75,55.77s11.38-33.12,11.16-50.43S612.73,556.73,613.1,565.38Z"/><path class="cls-6" d="M691.26,405.83s9.47,8.63,2.81,20.21S687.25,404.89,691.26,405.83Z"/><path class="cls-7" d="M490.1,583.09c-.92-.17-1.75-.28-2.6-.4,22.46-6.37,35.56-12.32,35.56-12.32-269.72,67.87-401.82-86.9-401.82-86.9-18.78-22.3-24.85-44-26.25-60.06a13.31,13.31,0,0,0-.08-5.32,7.87,7.87,0,0,1-.24-1.34c0-2.74,0-5.26.18-7.5.71-6.53,2.26-13.76,2.26-13.76-8.64,12.13-5.27,49.66-5.27,49.66-.09-5.94,1.17-11.6,2.17-16.42,2.53,16.53,9.91,32.16,16,42.73-17,16.34,7.74,64.69,7.74,64.69-14.56-38.94-3-52.59,2.74-48.94C142.06,501,135.75,524,136,531.75c1.43,41.78,44.72,90.55,44.47,86.44-.17-2.61-21.3-31.54-27.65-58.36-4.22-17.83,11.92-20.44,25.3-18.83s16.43,27.12,18.43,36.67c9.13,43.44,54.7,89.65,54.14,85.71-.39-2.56-30.66-37.57-39.21-63.77C204.77,579,230.07,571,236.94,569.48s29.26,1.84,33.7,10.83,6.87,25,11.22,38.1c5,15.11,41.24,64.72,45.63,68.68s-26.77-48.27-29-63.64,8.39-31.2,15.94-32.32c11.7-1.76,54.17.34,61.74,6.37,5.62,4.49,18.61,12,18.61,24.34,0,28.09,8.63,68.44,14.73,65.61,8.62-4-27.19-95.85,50.32-97.2,12.14-.2,55.53,8.66,45.95,41.33S539.19,591.75,490.1,583.09Z"/><path class="cls-6" d="M162.63,533.06c-2.8,3.59-10.61,4.29-14.88-1.1-5.06-6.39-7.55-10.52-4.76-14.12s7.22-2.3,14.88,1.07C164.16,521.68,165.43,529.45,162.63,533.06Z"/><path class="cls-8" d="M407.64,102.42c4.51-1.09-5.62,56.32,7.88,56.32s28.87,14.63,30.77,21.4,23.29,1.12,33.42,10.12,114.86,13.52,125,76.57,37.15,60.82,37.15,60.82,34.43-27,21.17,78.85S411,578.75,284.92,557.37C186.21,540.61,93,473.54,103.59,404.14c1.52-9.93.93-28.58,8-37.72,11.83-15.19,16.68-10.59,26.9-19.64l27-38.27s26-28.56,24.33-55.24c-.57-9,10.43-28.7,36-19.29,78.35,28.85,26.34,38.48,26.34,38.48s10.13-107,70.94-68.68,22.14,5.65,22.14,5.65S340,119.13,407.64,102.42Z"/><path class="cls-9" d="M270.67,554.57S549,583.82,641,433.51c27.37-44.69,10.13-89.74.84-105.86-13.93-24.21,88.67.54,21.17,137.94C593.71,606.62,266.85,575.16,270.67,554.57Z"/><path class="cls-10" d="M164.88,297.53c3.93-9,18.92,127.92,281.41,96.56,211.91-25.33,149.53-138,152.84-144.18S658,273.5,630.61,340c-34.66,84.13-206.67,101.91-295,86.72C217.91,406.5,151.19,328.86,164.88,297.53Z"/><path class="cls-11" d="M371.42,222s-35.87-20.37-14.48-65.64,41.81-48.05,43.72-46.37-20.23,52.37-3.83,67.57,4.4-12,17-14.06,46.51,18,23.53,47.54S372.92,226.49,371.42,222Z"/><path class="cls-12" d="M261.27,220.11c9.57,1.12-17.18,36,4.51,55.75,30.83,28,96.1,55,182.67,21.67,130.92-50.42,13.79-105,40.71-106.83C593.94,183.76,603,307.82,456,331.9c-94.19,15.41-170.12-7.83-202.73-45.34C226.36,255.58,251.69,219,261.27,220.11Z"/><path class="cls-13" d="M553.75,211c20,23,21.87,72.13-52.61,107-95.6,44.71-222.28,10.85-217.72,13.89,25.12,16.73,180,48.67,265-23.39,15.07-12.79,24.91-24.07,31-34-11,32.43-52.44,69.31-154.06,90.58C254.17,400.85,166,282,166,282c-7.1,46.75,54.72,105.72,157.75,114.16s248-30.2,275.88-98.94S553.75,211,553.75,211Zm4.59,1.81c-1-.46-1.94-.82-2.68-1.11C556.56,212.07,557.46,212.44,558.34,212.85Z"/><path class="cls-14" d="M290.53,201s-55.72,49.56,24.22,73.19S503.54,250,464.78,186c0,0,56.74,9.2,13.66,69.65C433,319.46,183,306.25,290.53,201Z"/><path class="cls-15" d="M446.29,180.14c3,7.64,2.3,14.15-.67,19.71-11.91,17-28.84,11.84-36,8.57C377,191.86,368.9,150.79,368.9,150.79c-18.78,47.3-3.66,64.12,6.39,72.38-15.86-3.82-28-14.79-29.63-31.65,0,0-33.73-1.26-25.84,37,4.53,21.93,46.08,34.1,81.93,29.23,32.67-4.08,63-25.11,70.89-44.34C484.9,183.47,446.29,180.14,446.29,180.14Z"/><path class="cls-16" d="M637.17,297.53c0,4.23,15.26,130.06-214.9,185.78-240.68,58.27-310.51-100.06-316.42-89.1s5.91,64,84.48,105.72,325,59.24,433.79-79.94C696.75,327.09,637.17,293.31,637.17,297.53Z"/><path class="cls-17" d="M367.07,446.11c159.69.16,243.54-39.54,263.1-105.06,0,0-44.33,106.84-270.81,88.78,0,0-154-12.7-195.87-118.43,0,0-24.56.23-20.9,29.65C146.51,372.72,207.39,446,367.07,446.11Z"/><path class="cls-18" d="M114.16,431.65s44,92.49,212.26,97.71,256.38-19.42,326-150.59c0,0-5,70.28-129.9,132.1S161,555.13,114.16,431.65Z"/><path class="cls-19" d="M244.74,238.27s-28.83-21.68-42.34,1.88,35.81,117.08,217.17,96.57C419.57,336.72,220.14,331.9,244.74,238.27Z"/><path class="cls-20" d="M189.87,253.27S220.7,351,345.68,360,566.7,301.07,575,258.86c8.81-45,32.32,31.87-45.59,82.19s-224.67,68.44-321.76-4.33C126.37,275.86,186.24,228.48,189.87,253.27Z"/><path class="cls-21" d="M637.17,297.53s16.45,32-30.91,81.42C559,419.37,456.14,458.29,328.47,444.19c-140-15.44-185.88-103.14-185.88-103.14C98,356.76,187.1,468.08,375.13,466.4c67.87-.62,94-11.9,87.81-10C282.19,512.26,163.11,423,163.11,423c-31-13.42-28.85,34.5,90.94,69.24s275.18-10.67,351.45-88.54S637.17,297.53,637.17,297.53Z"/><path class="cls-22" d="M308.54,210.09s-32.83,40.44,52.9,51.93,133.28-56.57,103.34-76c0,0,24.58,5.5,13.66,43.15S362.28,303.3,295.86,267c-35.48-19.4-29.71-46.24-15.36-59.3C293,196.28,312.74,196.14,308.54,210.09Z"/><path class="cls-23" d="M390.71,112.53s-30.84,22.71-37.55,53.29S372,130.55,390.71,112.53Z"/><path class="cls-23" d="M296.28,211s-20.84,13.74-6.2,29.11,36.59,27.77,77.69,27.19-42.79,11-74.31-12.95-13-43.35-6.21-46.18S302.43,205.47,296.28,211Z"/><path class="cls-23" d="M227.89,238s-20.27,19.26,9.26,46.4S169.36,253.77,227.89,238Z"/><path class="cls-23" d="M185.52,258.86s5.25,67.08,98.94,96.59-57.66,6.1-91.65-41.5S176.81,253.9,185.52,258.86Z"/><path class="cls-23" d="M142.22,353.48s14.43,44.3,88.76,78.17-27.1-3.76-58-27.47C139.75,378.7,134.53,363,142.22,353.48Z"/><path class="cls-23" d="M139.12,404.71c-3.16,3.48-10.37-3.73-17.91-10.56s-7.95-18.66-4.82-22.13,8.67,2.72,16.22,9.56S142.26,401.25,139.12,404.71Z"/><path class="cls-23" d="M185.52,446.11S273.2,499.87,414,476.22s-14.64,20.46-82.21,17.08-95.15-8.63-141.87-31.13C173.54,454.28,161,434.42,185.52,446.11Z"/><path class="cls-23" d="M337.78,195.83S327,221.62,365,234.55,290.55,233.8,337.78,195.83Z"/><path class="cls-23" d="M263.92,274s35,48.41,132.91,39.17C396.83,313.16,303.33,341.18,263.92,274Z"/><path class="cls-23" d="M165.46,462.17S236,520,375.23,510C375.23,510,244.63,547.15,165.46,462.17Z"/><path class="cls-24" d="M299.91,240.17S344.58,276,399,274s59.1-9,64.67-4.35,21.82-2.18,28.33,5.06,128-12.57,86-46.61S306.36,225.92,299.91,240.17Z"/><path class="cls-23" d="M335.19,297.49S390.29,308.82,439.7,285C468.76,271,430.17,321.68,335.19,297.49Z"/><path class="cls-23" d="M341.7,339.64s92.38,15.77,177.17-31C518.87,308.62,456.42,369.72,341.7,339.64Z"/><path class="cls-23" d="M194.81,360.44S334.34,461,554,364.65C554,364.65,371.17,491,194.81,360.44Z"/><path class="cls-23" d="M283.24,419.83s-75.51-21.29-121.46-82.41C134.75,301.48,150.11,389,283.24,419.83Z"/><path class="cls-23" d="M250,532.79S432.87,574.41,558.23,491C558.23,491,449.81,594.79,250,532.79Z"/><path class="cls-25" d="M582,231.52c-5.15,20.27-48.32,39.31-98.06,28.82s-85.73-50.51-82-66.73c3-13.08,48.33-39.28,98-28.81S586.37,214.35,582,231.52Z"/><path class="cls-26" d="M573.23,220.22c-3.88,11.69-34.22,11.95-67.34,5.77-35-6.54-60.37-30.09-57.56-39.49,2.25-7.57,34.19-20.32,68.7-11S576.51,210.27,573.23,220.22Z"/><path class="cls-27" d="M401.79,194.36a.5.5,0,0,1,.1-.19C401.67,193.9,401.78,194.4,401.79,194.36Z"/><path class="cls-27" d="M579.24,219.54a4.41,4.41,0,0,1,.72,2.16A11,11,0,0,0,579.24,219.54Z"/><path class="cls-27" d="M580,221.7a0,0,0,0,1,0,0A0,0,0,0,0,580,221.7Z"/><path class="cls-28" d="M580,221.74c1.07,12-33.86,34.36-88.61,22.83-32.5-6.85-64.6-32.09-79.25-44.16-11.89-16.25,66.15-38,66.15-38C422.6,165.68,406,187,402.53,192.87c-1.18-1.24-1.86-2-1.86-2,.31,1.14.84,2.19,1.22,3.32C410.77,246,506.24,276,548.81,257.76,581.81,243.59,581.4,227.5,580,221.74Z"/><path class="cls-7" d="M579,221.08c-4.44,3.54-52.25-6.07-78-18.13,10.19-2.32,34.71-10.36,44.53-3.64,12.19,8.35-2.12-9.86-25.86-5.86-15.37,2.61-22.28,5.34-24.74,7.15-12.33-4-29.88-5.67-45.9-6.21,7.45-3.44,14.13-11.3,17.33-13.72,12.56-9.56,35.36-3.65,18.76-8.4s-44.9,21.92-44.9,21.92v0c-17-.2-30.29.65-30.29.65-2.49,8.08,31.24,1.33,74.8,11.89.51,6,24.21,21.17,33.8,25.47,11.53,5.21,37.68,5.68,29.94,3.53-5.22-1.44-10.16-2.28-23.49-6.47-9.29-2.93-23.75-13.88-31.67-20.24a190.25,190.25,0,0,1,18.45,6.32C567.39,237.9,583.46,217.55,579,221.08Z"/><path class="cls-29" d="M508,83.73c10.39,12.07,4,48.43-23.39,76.36s-67.4,34.23-75.91,24.85c-6.85-7.57-4-48.45,23.37-76.39S499.14,73.49,508,83.73Z"/><path class="cls-26" d="M497.25,84.56c5.62,7.58-7,27.51-24.74,46.44-18.79,20-44.07,26.46-48.71,20.59-3.78-4.73,1.77-31.06,22.05-49.57S492.47,78.15,497.25,84.56Z"/><path class="cls-27" d="M409.09,185.33a.3.3,0,0,1-.07-.14C408.76,185.22,409.12,185.36,409.09,185.33Z"/><path class="cls-27" d="M499.36,80.34a3.69,3.69,0,0,1,1.64.47A9.21,9.21,0,0,0,499.36,80.34Z"/><path class="cls-27" d="M501,80.81s0,0,0,0Z"/><path class="cls-28" d="M501,80.82c7.87,4.43,7.07,36.87-23.1,67.62-17.91,18.3-47.09,28.41-60.75,32.77-15.09.76,4.24-59.51,4.24-59.51-21.38,37.71-15.16,57.75-12.95,62.53l-2,.35c.84.26,1.69.37,2.57.61,35.9,16.51,94.68-32.91,101.26-68.53C515.38,89,505.21,82.37,501,80.82Z"/><path class="cls-7" d="M500.21,81.16c.32,4.42-25.73,31.49-44.07,43.15,2.84-7.65,8.17-27.13,16.47-30.64,10.31-4.35-7-2.83-14.51,14.36-4.86,11.15-6.07,16.83-6,19.23-7.7,6.32-16.08,17.07-23.15,27.28,1-6.33-1.07-14.07-1.25-17.21-.63-12.31,12.65-24.65,2.69-15.84s-5.28,38.74-5.28,38.74v0c-7.24,11-12.33,20-12.33,20,4,5.14,14-19.8,38.83-43.67,3.94,2.22,23.33-6.73,30-11.12,8.11-5.31,19.41-22.15,14.81-18-3.09,2.77-5.69,5.65-13.91,12.54-5.72,4.8-18.59,9.53-25.86,12,3.62-3.17,7.49-6.3,11.67-9.3C505.78,96,499.91,76.74,500.21,81.16Z"/><path class="cls-30" d="M484.78,87.82c2.16,3.5-6.9,14.52-18.6,25.37-12.37,11.46-26.67,16.4-28.51,13.68-1.47-2.16,4.51-16,17.51-26.8S483,84.84,484.78,87.82Z"/><path class="cls-31" d="M276.22,139.78s-29.56,23.53-71.64-25.87c0,0,37.87-7.33,45.37-6.26s-17.11-16-24.75-55.06c0,0,37.68,11.2,46,22.06,0,0,10.25-11.59-5.05-46.17,0,0,61.18,15.15,40.4,69.86S292.5,134.72,276.22,139.78Z"/><path class="cls-27" d="M270.19,138.15s-30.09-16.28-41-18.26,37.43-.82,35.86-6.39S247.3,72.39,237.05,66s33.95,2.4,39.68,25.85,17.9-36.57,7.19-46S350.53,89.72,270.19,138.15Z"/><path class="cls-32" d="M412.26,246.51c-35,29.73-87.74,10.38-146.88-25.66-48.56-29.58-15.77-86.53,19.27-116.27S382.78,57,403.19,110C424.59,165.62,447.33,216.77,412.26,246.51Z"/><path class="cls-33" d="M290.78,211.52c-2.41,3-9.32,1.59-15.45-3.28S266.17,197,268.57,194s9.33-1.58,15.47,3.27S293.19,208.48,290.78,211.52Z"/><path class="cls-33" d="M293.12,154.42c-2.75,2.74-9.43.45-14.94-5.13s-7.73-12.23-5-15,9.47-.43,15,5.13S295.89,151.7,293.12,154.42Z"/><path class="cls-33" d="M348.52,147.7c-3.3,2-9.29-1.76-13.35-8.44s-4.7-13.72-1.37-15.73,9.3,1.76,13.36,8.43S351.83,145.69,348.52,147.7Z"/><path class="cls-33" d="M371.46,102.59c-2.65,2.82-9.43.77-15.12-4.61s-8.17-12-5.5-14.78,9.45-.79,15.13,4.56S374.12,99.77,371.46,102.59Z"/><path class="cls-33" d="M338.86,199.25c-2.29,3.12-9.26,1.89-15.57-2.74s-9.56-10.89-7.26-14,9.28-1.91,15.58,2.72S341.17,196.13,338.86,199.25Z"/><path class="cls-33" d="M398.25,178.36c-3.67,1.2-8.63-3.86-11.07-11.3s-1.43-14.43,2.26-15.62,8.63,3.86,11.05,11.3S401.93,177.17,398.25,178.36Z"/><path class="cls-33" d="M397.42,232.48c-3,2.39-9.42-.64-14.26-6.76s-6.36-13.05-3.34-15.44,9.45.64,14.3,6.78S400.47,230.09,397.42,232.48Z"/><path class="cls-28" d="M372.83,94.86c-8.58,9.59,47,106.14,8.5,131.56-24.2,16-78.21-11.1-79.57-2.68S341,259.45,385.49,254.2s43.81-40.52,38.25-72.6S386.21,79.9,372.83,94.86Z"/><path class="cls-34" d="M376.4,203.85c-21.46,20.38-56.06,9.81-95.41-11.23-32.3-17.29-13.24-55.1,8.22-75.49s61.41-34.15,76.45-.75C381.44,151.37,397.91,183.44,376.4,203.85Z"/><path class="cls-30" d="M348.63,177.58c-13.6,12.93-35.49,6.24-60.41-7.09-20.45-11-8.38-34.9,5.21-47.81s38.89-21.6,48.4-.48C351.82,144.36,362.25,164.7,348.63,177.58Z"/></svg>