<svg id="Layer_1" data-name="Layer 1" xmlns="http://www.w3.org/2000/svg" viewBox="0 0 805 733"><defs><style>.cls-1{fill:#d1b69d;}.cls-2{fill:#e8cbac;}.cls-3{fill:#4b4e51;}.cls-4{fill:#c47e4e;}.cls-19,.cls-21,.cls-5{fill:#fff;}.cls-5{opacity:0.39;}.cls-6{fill:#e0b15c;}.cls-7{fill:#f7c663;}.cls-8{fill:#f7dfcd;}.cls-9{fill:#60934c;}.cls-10{fill:#c3ea8f;}.cls-11{fill:#a8ce7c;}.cls-12{fill:#5d9b5a;}.cls-13{fill:#8fc687;}.cls-14{fill:#b0eda9;}.cls-15{fill:#c1ffb8;}.cls-16{fill:#d88d7d;}.cls-17{fill:#ffa992;}.cls-18{fill:#ea988b;}.cls-19{opacity:0.35;}.cls-20{fill:#f4e9e1;}.cls-22{fill:#f2d12f;}</style></defs><title>Food</title><path class="cls-1" d="M528.91,638.77s-12.56,43.17-112,42.9c-94.27-.25-112-42.9-112-42.9v-68H528.91Z"/><path class="cls-2" d="M416.94,263.63H54.88s8.89,130.51,85.81,232.83C251.61,644,416.94,644,416.94,644s165.33,0,276.25-147.54C770.11,394.14,779,263.63,779,263.63Z"/><path class="cls-1" d="M720,263.63c-7.08,44-27.31,131.49-82.26,204.58C526.81,615.75,361.48,615.75,361.48,615.75s-53.72,0-120.47-27.33C330.71,644,416.94,644,416.94,644s165.33,0,276.25-147.54C770.11,394.14,779,263.63,779,263.63Z"/><ellipse class="cls-3" cx="416.94" cy="263.63" rx="362.06" ry="186.78"/><ellipse class="cls-4" cx="416.94" cy="324.32" rx="342.51" ry="126.09"/><path class="cls-5" d="M141.56,422.56c-.29,12.29,6.32,23.56,12.72,34.06,5.55,9.11,11.11,18.23,17.22,27a255.83,255.83,0,0,0,30.77,36.31c4,3.89,8.34,7.79,13.76,9.09s12.08-1,13.84-6.27c1.85-5.6-2.31-11.26-6.2-15.71-18.17-20.83-36.49-42.51-45.7-68.57-2.17-6.12-3.88-12.56-7.78-17.75C163.51,411.83,142,406.05,141.56,422.56Z"/><path class="cls-6" d="M465.25,449.36a6.73,6.73,0,0,1-1.88-.27,6.63,6.63,0,0,1-4.49-8.24c1-3.48-1.77-7.66-4.92-9.81-4.44-3.05-10.47-4.16-16.31-5.23l-30.13-5.55c-8.7.84-17.38,1.09-25.9,1.33l-45.06,1.3c-28.45.82-57.94.06-78.57-18.59-9.92-9-17.11-24-10.82-37.27,2.07-4.38,5.52-8.3,10.55-12,19.06-13.92,42.7-13.78,65.56-13.65,5,0,10.15.06,15.06-.07a194.13,194.13,0,0,0,101.85-32.58c13.26-8.92,20.19-17.58,21.18-26.46s-4.14-17.66-9.55-24.08c-12,.57-23.6,1.28-34.54,2-23.28,1.57-55.17,3.71-77.83-13.88-5.09-4-7.4-8.38-6.88-13.16.56-5.08,4.16-9,10.69-11.72,18.74-7.72,40.56-9.52,61.43-5.08,20.22,4.3,38.86,14.32,52.71,28.29,24.84-1,51.45-1.38,78.34,0,16,.83,34.46,2.47,50.24,11.32,7.68,4.3,11.32,10.92,9.5,17.27-1.31,4.57-5,7.13-6.92,8.51-5.4,3.78-11.15,7.33-16.7,10.77-17.06,10.54-33.17,20.49-40.5,36.85-1.38,3.07-1.05,4.08-1,4.09s.31.54,2.09,1.45c12.77,6.61,28.57,1.5,36.85-2.14,13.53-5.94,26.13-15.27,38.31-24.29,17.91-13.25,36.42-27,59.18-31.36,15-2.9,32.76.72,38.62,15.34,3,7.62,2,16.71-3.23,27-13.53,26.85-39.42,42.81-58.76,51.48-17.68,7.92-36.48,13.06-54.65,18-5.84,1.6-11.89,3.25-17.76,5-8,2.34-15.74,4.82-21.82,9.38-4.7,3.53-9.56,9.73-9.15,16.59a6.63,6.63,0,0,1-7.49,7c-6.58-.87-14-1.86-20.89-5.29-8.58-4.29-14.23-11.73-15.12-19.89-.66-6,1.37-11.51,2.95-15.09,7.31-16.57,20.95-28.08,36-36.53a40.06,40.06,0,0,1-9.16-3.39,17.27,17.27,0,0,1-7.8-7.17c-3.34-6.5-.27-13.34.73-15.59,9-20.08,27.63-31.59,45.64-42.72,5.4-3.33,11-6.78,16.06-10.35a14.79,14.79,0,0,0,1.43-1.08,10.63,10.63,0,0,0-2.89-2.25c-13.28-7.45-29.9-8.88-44.43-9.64-22.91-1.19-45.67-1.1-67.31-.38,4.62,7.45,7.91,16.41,6.82,26.19-1.45,13-10.27,24.77-27,36a207.49,207.49,0,0,1-108.9,34.84c-5.13.13-10.4.1-15.5.07-21.66-.12-42.13-.24-57.65,11.1-3.19,2.33-5.28,4.6-6.38,6.93-3.21,6.79,1.45,16.08,7.72,21.74,17,15.36,43.54,15.91,69.28,15.17l32.73-.94a22.5,22.5,0,0,1-8.6-12.83c-2.37-9.77,2.27-20.36,13.09-29.81,24.51-21.44,60.58-29.5,91.89-20.54,11.5,3.3,18.73,8.93,21.47,16.74,3.57,10.14-1.25,21.67-13.21,31.62a114.26,114.26,0,0,1-32.72,19c6.39,1.19,14.14,2.74,20.65,7.2,8.5,5.83,12.67,15.91,10.14,24.51A6.64,6.64,0,0,1,465.25,449.36Zm228.51-146.8a37.32,37.32,0,0,0-1.73,4.17,32.24,32.24,0,0,1-4.79,9.41c-5.29,6.51-13.79,7.81-19.42,8.67a533.42,533.42,0,0,0-97.19,24.41c-22.15,7.84-48.88,19.8-59,42.82-1.53,3.46-2.13,6.1-1.89,8.29.38,3.55,3.47,7.27,7.86,9.46a36.4,36.4,0,0,0,9.89,3c1.76-7.52,6.58-14.65,13.73-20,7.86-5.9,17.19-8.92,26.07-11.51,6-1.74,12.08-3.41,18-5,17.68-4.84,36-9.84,52.73-17.35,17.37-7.78,40.55-22,52.33-45.34A29.45,29.45,0,0,0,693.76,302.56ZM439,355.14c-20.61,0-41.37,7.37-56.83,20.89-3.22,2.81-10.54,10.08-8.93,16.69,1.32,5.44,8.23,9.23,21.12,11.61L408,406.86a127.9,127.9,0,0,0,16.31-2.74,101.28,101.28,0,0,0,40.7-20.46c5.67-4.72,11.06-11.67,9.18-17-1.54-4.38-7.7-7-12.61-8.37A82.09,82.09,0,0,0,439,355.14Zm237.28-65.6a36.92,36.92,0,0,0-7,.68c-19.8,3.82-36.32,16-53.8,29l-5.47,4a544.42,544.42,0,0,1,55.81-11.56c5-.76,9.22-1.58,11.12-3.92a22,22,0,0,0,2.65-5.65c.48-1.3,1-2.73,1.67-4.16a6.68,6.68,0,0,1-1-3.86,6.58,6.58,0,0,1,1.7-4.05A31.7,31.7,0,0,0,676.24,289.54ZM346.31,234.75a12.56,12.56,0,0,0,1.29,1.13c18.66,14.49,46.46,12.62,68.79,11.11,7-.47,14.34-.94,21.85-1.36C413,227,377.31,221.81,348.32,233.76A13.83,13.83,0,0,0,346.31,234.75Z"/><path class="cls-7" d="M370.27,406.71a173.64,173.64,0,0,1-19.74-1.12c-5.93-.68-12.81-1.89-18.89-5-19.19,1.93-39.33,1.17-59.13-.05-15.09-.94-33.87-2.09-48.48-12.91-16.18-12-24.23-32.91-24-62.33-12.13-.13-24.11,2.09-32.95,9.82a32.06,32.06,0,0,0,5,51.86,6.64,6.64,0,0,1-6.66,11.48,45.33,45.33,0,0,1-7.11-73.33c11.93-10.44,27.58-13.22,42.32-13,.25-2.89.61-5.87,1.11-8.87l-1.59-.4c-12-2.77-24.78-.85-37.27,1.41a7.76,7.76,0,0,1-8.86,3,7.21,7.21,0,0,1-5.08-7.43c.2-3.17,2.44-6.93,8.08-8,14.21-2.61,30.32-5.56,46.12-1.91.62.14,1.24.3,1.85.46a50.08,50.08,0,0,1,10-17.2c9.7-10.69,24.58-16.71,44.23-17.88a87.61,87.61,0,0,1,32.37,3.68A124.2,124.2,0,0,1,326,263.8a99.78,99.78,0,0,1,10.94-12c20.49-18.75,51.87-25.19,78.08-16,9.14,3.2,16.27,7.78,21.19,13.62,11.69,13.88,10.22,36.82-3.15,49.1a37,37,0,0,1-13.94,8,185.3,185.3,0,0,1,27.83,1.7c.32-.17.64-.34,1-.5C473,295,506.41,301,525.55,321.59c5.31,5.71,9.4,12.17,13.36,18.41s7.6,11.95,12.23,16.84a57.48,57.48,0,0,0,16.45,11.92c3.45-1.47,6.85-3,10.2-4.52,15.9-7.27,32.31-15.75,44.61-28.37a50.23,50.23,0,0,0,10.35-15.36c-2.69.07-5.41.07-8.14-.05-18.37-.84-33.2-8.69-39.67-21a44.71,44.71,0,0,1-3.72-10.39c-6.87,1.27-13.78,2.87-20.55,4.44-24.45,5.66-49.73,11.52-74.1,2.32-15.9-6-30.57-21.76-26.43-39.15,2.46-10.35,11.47-18.94,23.5-22.41,9.9-2.87,20.14-2.14,29.17-1.51,14.44,1,29.36,2.08,43.63,7.45,16.74,6.3,29.19,17.93,34.17,31.91q.36,1,.66,2,2.76-.31,5.5-.51c22.8-1.65,40.83,6,48.24,20.47a32.12,32.12,0,0,1,3.46,12.25,111.2,111.2,0,0,1,17.2.17c16.26,1.63,28.65,9.55,33.15,21.17,3.64,9.4,1.72,21-5,30.34-6.35,8.78-15.66,14.27-22.11,17.63A135.29,135.29,0,0,1,595.63,390a106.57,106.57,0,0,1-28.25-6.83c-13.74,5.47-28.83,10.12-44.46,11.41-22.67,1.87-44.4-3.23-65.52-10.33A181.44,181.44,0,0,1,370.27,406.71Zm-4.49-13.33a167.79,167.79,0,0,0,74.44-15.29q-5.31-2-10.56-4c-7.26-2.78-14.62-5.6-22-8.23a114.36,114.36,0,0,1-11.76,11.09A99.73,99.73,0,0,1,365.78,393.38ZM213.34,326.23c0,18.2,3.61,39.63,18.58,50.7,11.46,8.48,28.06,9.5,41.4,10.33,15.78,1,31.3,1.65,46.08,1a27.35,27.35,0,0,1-1.9-16.46q.17-.93.39-1.86c-22.87-5.7-46.29-17.64-68.58-35.33a45.32,45.32,0,0,1-6.44-3.78c-5.63-.7-11.16-1.65-16.5-2.56l-4.71-.79C219,327,216.19,326.58,213.34,326.23ZM330.92,372.5c-.14.53-.26,1.06-.35,1.6-.54,3-.57,7.39,2.4,11a13.73,13.73,0,0,0,1.93,1.88c19.74-2.48,37.71-8.31,52.63-20.35,2.1-1.7,4.11-3.5,6.07-5.39l-1.27-.38c-3.9,4.21-9.65,7.34-15.53,9A108.75,108.75,0,0,1,330.92,372.5Zm141.35,2.57c16.39,4.82,32.7,7.69,49.56,6.3a126.5,126.5,0,0,0,30-6.55A67,67,0,0,1,541.5,366c-5.51-5.82-9.72-12.45-13.79-18.86-3.81-6-7.41-11.66-11.89-16.48-10.79-11.62-27.25-17.4-43-16.21,12.93,5.15,20.82,13.36,22.5,23.63,1.36,8.3-1,21.06-19.71,34.68C474.48,373.52,473.38,374.31,472.27,375.07Zm113.77,0a101.86,101.86,0,0,0,11,1.77,121.89,121.89,0,0,0,68.53-12.95c8.35-4.35,13.9-8.69,17.48-13.64,4.06-5.62,5.39-12.6,3.39-17.77-3.13-8.08-13.47-11.89-22.1-12.76a108.36,108.36,0,0,0-17.28,0c-2.72,9.81-8.74,18.86-15.15,25.43C618.81,358.57,602.25,367.51,586,375.05Zm-169-20c5.87,2.15,11.68,4.38,17.42,6.58,7.29,2.79,14.47,5.55,21.61,8.09q6-3.63,11.76-7.77c7.33-5.33,15.79-13.43,14.41-21.79-1.57-9.61-15.4-14.18-21.27-15.7q-5.67-1.46-11.36-2.44c-11.1,6.94-19.76,17.47-28.87,28.55C419.47,352.1,418.24,353.6,417,355.09Zm-77.72,5.11a93.06,93.06,0,0,0,33.87-3.11c.64-.18,1.29-.4,1.93-.64-15-3-25.88-2.1-34.14,2.67A19.63,19.63,0,0,0,339.27,360.2ZM280,339.6c12.16,7.2,27.1,14.24,43.47,18a34.64,34.64,0,0,1,10.83-10c14.79-8.53,32.17-6.53,44.49-4-4.63-2.54-10.19-3.81-16-5.16-6.82-1.57-13.87-3.19-20.4-7-.65-.38-1.28-.77-1.9-1.18-15.49,3-31.48,6.06-47.25,8.05C288.86,338.93,284.44,339.39,280,339.6Zm117.27,8.84c2.11.63,4.22,1.3,6.31,2,2.29-2.68,4.56-5.44,6.87-8.25,6.29-7.65,12.7-15.45,20.12-22.2-21.18-1.08-42.67,1.7-64.76,5.59,7.29,1.68,14.82,3.42,21.65,7.8,4.95,3.18,8.07,7.07,9.26,11.56A16.38,16.38,0,0,1,397.26,348.44Zm-80.32-48.65c-7.52,10.29-16.06,19.79-27.86,25.72.82-.09,1.63-.19,2.44-.3,12.26-1.55,24.79-3.79,37.13-6.13-4.09-5.34-7.35-11.31-10.55-17.17C317.72,301.2,317.33,300.49,316.94,299.79Zm-66.61,18.47c11.11,1,21.89.44,31.43-3.95,11.61-5.34,19.78-15.48,27.68-26.87a47.13,47.13,0,0,0-5.52-6.45,41.43,41.43,0,0,0-14.38-8.76,85.32,85.32,0,0,0-23.2,3.77c-13.13,4.12-26.94,14.45-26.25,27.38a18.45,18.45,0,0,0,2.86,8.77c2,1.65,4,3.32,6,5Zm75-30.6c1.54,2.62,3,5.27,4.41,7.89,4.28,7.83,8.37,15.32,14.08,20.61,16.87-3.24,34-6.41,51.1-8.18a62.18,62.18,0,0,1-9.15-2.16c-10.11-3.23-19.2-8.41-28-13.42-3.79-2.16-7.71-4.39-11.58-6.38A130.45,130.45,0,0,0,331,279.36C329.12,282.06,327.25,284.84,325.34,287.66ZM214,313c3.46.4,6.79.89,9.89,1.41l.31.05a92.5,92.5,0,0,0-9.69-6.09C214.25,309.87,214.08,311.42,214,313Zm380.48-25.82a29.25,29.25,0,0,0,2.25,6.15c6.31,12,23.44,13.69,28.54,13.92,3.29.15,6.58.09,9.95-.07a18.94,18.94,0,0,0-2-7c-5.76-11.26-22.09-14.24-35.46-13.28C596.63,286.92,595.53,287,594.43,287.13ZM217.5,295a90.4,90.4,0,0,1,9.36,5.26c.88-12.73,9.5-23.09,20.51-30-8.19,1.84-16.6,5.33-22.49,11.82A37.35,37.35,0,0,0,217.5,295Zm122-26.61q6.46,2.58,12.84,5.85c4.12,2.12,8.16,4.42,12.07,6.65,8.57,4.89,16.67,9.5,25.45,12.3,10.59,3.38,25.17,4,34.31-4.39,8.23-7.56,9.17-22.23,2-30.78-3.37-4-8.56-7.24-15.42-9.64-21.74-7.61-47.75-2.27-64.74,13.27A78,78,0,0,0,339.45,268.37Zm160.83-22.92a46.61,46.61,0,0,0-13,1.56c-7.33,2.12-12.93,7.11-14.27,12.73-2.29,9.65,7.46,19.61,18.21,23.66,20.6,7.78,42.85,2.62,66.41-2.84,6.67-1.54,13.45-3.11,20.29-4.4-3.77-10.12-13.29-18.68-26.19-23.54-12.46-4.69-26.41-5.67-39.89-6.62C508,245.72,504.12,245.45,500.28,245.45Zm-183.72,29.6.72.85c.13-.2.26-.39.4-.58Z"/><path class="cls-8" d="M416.94,87.47c48.12,0,94.77,4.85,138.67,14.43,42.21,9.21,80,22.36,112.48,39.09C700,157.48,725,176.54,742.34,197.66s26,43.28,26,66-8.76,44.9-26,66-42.3,40.19-74.25,56.67c-32.43,16.73-70.27,29.88-112.48,39.09-43.9,9.58-90.55,14.44-138.67,14.44s-94.77-4.86-138.66-14.44c-42.21-9.21-80.06-22.36-112.48-39.09-32-16.48-56.94-35.55-74.25-56.67s-26-43.27-26-66,8.77-44.89,26.05-66S133.84,157.48,165.8,141c32.42-16.73,70.27-29.88,112.48-39.09,43.89-9.58,90.54-14.43,138.66-14.43Zm0-10.62c-200,0-362.06,83.62-362.06,186.78S217,450.42,416.94,450.42,779,366.79,779,263.63,616.9,76.85,416.94,76.85Z"/><path class="cls-9" d="M387.09,408c-16.94,0-32.93-2.43-45-6.85-13.36-4.88-20.72-11.89-20.72-19.74s7.36-14.86,20.72-19.74c12.08-4.42,28.07-6.85,45-6.85s32.92,2.43,45,6.85c13.36,4.88,20.73,11.89,20.73,19.74s-7.37,14.86-20.73,19.74C420,405.58,404,408,387.09,408Zm0-45.09c-35.71,0-57.64,10.78-57.64,18.5s21.93,18.5,57.64,18.5,57.63-10.77,57.63-18.5S422.79,362.92,387.09,362.92Z"/><path class="cls-10" d="M387.09,401.89c-16.94,0-32.93-2.43-45-6.85-13.36-4.88-20.72-11.89-20.72-19.74s7.36-14.86,20.72-19.74c12.08-4.42,28.07-6.85,45-6.85s32.92,2.43,45,6.85c13.36,4.88,20.73,11.89,20.73,19.74s-7.37,14.86-20.73,19.74C420,399.46,404,401.89,387.09,401.89Zm0-45.09c-35.71,0-57.64,10.78-57.64,18.5s21.93,18.5,57.64,18.5,57.63-10.77,57.63-18.5S422.79,356.8,387.09,356.8Z"/><path class="cls-9" d="M437.48,394.64c-16.3-4.61-31-11.31-41.44-18.84-11.53-8.34-16.7-17.09-14.57-24.64s11.13-12.3,25.32-13.36c12.83-1,28.87,1.05,45.17,5.66s31,11.3,41.44,18.84c11.53,8.34,16.7,17.09,14.57,24.64s-11.13,12.29-25.32,13.36C469.82,401.26,453.78,399.25,437.48,394.64Zm12.28-43.39c-34.36-9.72-58.4-5.32-60.5,2.11s16.06,23.77,50.43,33.49,58.39,5.32,60.49-2.12S484.12,361,449.76,351.25Z"/><path class="cls-11" d="M439.15,388.75c-16.3-4.61-31-11.3-41.44-18.84-11.53-8.34-16.71-17.09-14.57-24.64s11.13-12.3,25.31-13.36c12.83-1,28.88,1,45.17,5.66s31,11.3,41.45,18.84c11.53,8.34,16.7,17.09,14.56,24.64s-11.12,12.29-25.31,13.36C471.49,395.37,455.45,393.36,439.15,388.75Zm12.27-43.39c-34.36-9.72-58.39-5.32-60.49,2.11S407,371.24,441.35,381s58.39,5.32,60.5-2.11S485.78,355.08,451.42,345.36Z"/><path class="cls-9" d="M416.38,427.86c-13.79.54-26.88-.92-36.87-4.12-11-3.55-17.26-9-17.51-15.41s5.51-12.34,16.23-16.75c9.7-4,22.64-6.48,36.43-7s26.88.91,36.87,4.12c11,3.54,17.26,9,17.51,15.4s-5.51,12.34-16.23,16.75C443.11,424.81,430.17,427.31,416.38,427.86Zm-1.46-36.72c-29.08,1.16-46.58,10.64-46.33,16.93s18.45,14.35,47.53,13.19,46.58-10.64,46.33-16.93S444,390,414.92,391.14Z"/><path class="cls-11" d="M416.18,422.87c-13.79.55-26.88-.91-36.86-4.12-11-3.54-17.27-9-17.52-15.4S367.31,391,378,386.6c9.69-4,22.63-6.49,36.42-7s26.88.91,36.87,4.11c11,3.55,17.26,9,17.51,15.41s-5.51,12.34-16.23,16.75C442.91,419.82,430,422.32,416.18,422.87Zm-1.46-36.71c-29.07,1.15-46.58,10.64-46.33,16.93s18.45,14.35,47.53,13.19,46.58-10.64,46.33-16.93S443.8,385,414.72,386.16Z"/><path class="cls-9" d="M335.79,383.24c-13.79.55-26.88-.91-36.87-4.11-11-3.55-17.26-9-17.51-15.41s5.51-12.34,16.23-16.75c9.7-4,22.64-6.48,36.43-7s26.88.91,36.87,4.12c11,3.54,17.26,9,17.51,15.4s-5.51,12.34-16.23,16.75C362.52,380.2,349.58,382.7,335.79,383.24Zm-1.46-36.71c-29.08,1.15-46.58,10.64-46.33,16.93s18.45,14.35,47.53,13.19,46.58-10.64,46.33-16.93S363.41,345.37,334.33,346.53Z"/><path class="cls-11" d="M335.59,378.26c-13.79.55-26.88-.91-36.86-4.12-11-3.54-17.26-9-17.52-15.4s5.51-12.34,16.24-16.75c9.69-4,22.63-6.49,36.42-7s26.89.92,36.87,4.12c11,3.55,17.26,9,17.51,15.41s-5.51,12.33-16.23,16.75C362.32,375.21,349.39,377.71,335.59,378.26Zm-1.46-36.72c-29.07,1.16-46.58,10.65-46.33,16.93s18.46,14.36,47.53,13.2,46.58-10.64,46.33-16.93S363.21,340.39,334.13,341.54Z"/><path class="cls-12" d="M62.86,163.11l-9.29-4S44.8,170.71,43.22,182s7.28,37,7.28,37L157,340.62l5.32-4.56L121,249.75,62.86,163.11Z"/><path class="cls-13" d="M97.32,181.62,62.86,163.11s-9,10.06-9.13,18.8,5.9,31.23,5.9,31.23l37.69-31.52Z"/><path class="cls-14" d="M97.32,181.62c2.39,3.11,88.57,126.18,88.57,126.18l-23.61,28.26L59.63,213.14Z"/><path class="cls-15" d="M103.69,199.61a37.92,37.92,0,0,0-5.26-5c-2-1.58-4.94-2.92-6.91-1.26a4.65,4.65,0,0,0-1.1,4.78,12.58,12.58,0,0,0,2.66,4.38c3.33,4,7,8,11.72,10.08,1,.41,2.26.64,2.83-.26a2.55,2.55,0,0,0,.12-1.87,29.25,29.25,0,0,0-4.93-11.42Z"/><path class="cls-15" d="M98.26,215.38a37.34,37.34,0,0,0-5.26-5c-2-1.58-4.94-2.92-6.91-1.27a4.67,4.67,0,0,0-1.1,4.79,12.58,12.58,0,0,0,2.66,4.38c3.33,4.05,7,8,11.72,10.08.95.41,2.26.64,2.83-.26a2.58,2.58,0,0,0,.12-1.88,29.27,29.27,0,0,0-4.93-11.41Z"/><path class="cls-15" d="M121.43,225.45a38.5,38.5,0,0,0-5.26-5c-2-1.58-4.94-2.92-6.92-1.26a4.66,4.66,0,0,0-1.09,4.78,12.58,12.58,0,0,0,2.66,4.38c3.33,4.05,7,8,11.71,10.08,1,.41,2.26.64,2.83-.26a2.58,2.58,0,0,0,.13-1.88,29.42,29.42,0,0,0-4.93-11.41Z"/><path class="cls-15" d="M116.83,240.34a37.41,37.41,0,0,0-5.27-5c-2-1.58-4.94-2.92-6.91-1.27a4.68,4.68,0,0,0-1.09,4.79,12.71,12.71,0,0,0,2.65,4.38c3.34,4.05,7,8,11.72,10.07.95.42,2.26.65,2.83-.25a2.63,2.63,0,0,0,.13-1.88A29.57,29.57,0,0,0,116,239.81Z"/><path class="cls-15" d="M138.8,246.46a38.57,38.57,0,0,0-5.26-5c-2-1.58-4.95-2.91-6.92-1.26a4.68,4.68,0,0,0-1.09,4.79,12.57,12.57,0,0,0,2.65,4.37c3.34,4.06,7,8,11.72,10.08.95.42,2.26.64,2.83-.26a2.6,2.6,0,0,0,.13-1.87,29.44,29.44,0,0,0-4.93-11.41Z"/><path class="cls-15" d="M137.92,265.84a38,38,0,0,0-5.26-5c-2-1.57-4.94-2.91-6.92-1.26a4.68,4.68,0,0,0-1.09,4.79,12.45,12.45,0,0,0,2.66,4.37c3.33,4.06,7,8,11.72,10.08.95.42,2.25.65,2.83-.26a2.55,2.55,0,0,0,.12-1.87,29.15,29.15,0,0,0-4.93-11.41Z"/><path class="cls-15" d="M157.79,275.93a37.92,37.92,0,0,0-5.26-5c-2-1.58-4.94-2.92-6.91-1.27a4.67,4.67,0,0,0-1.1,4.79,12.58,12.58,0,0,0,2.66,4.38c3.33,4.05,7,8,11.72,10.08.95.41,2.25.64,2.83-.26a2.58,2.58,0,0,0,.12-1.88,29.27,29.27,0,0,0-4.93-11.41Z"/><path class="cls-15" d="M157.94,298.22a38,38,0,0,0-5.26-5c-2-1.58-4.94-2.91-6.92-1.26a4.68,4.68,0,0,0-1.09,4.79,12.45,12.45,0,0,0,2.66,4.37c3.33,4.06,7,8,11.71,10.08,1,.42,2.26.64,2.84-.26a2.55,2.55,0,0,0,.12-1.87,29.15,29.15,0,0,0-4.93-11.41Z"/><path class="cls-15" d="M175.3,300.72a37.92,37.92,0,0,0-5.26-5c-2-1.58-4.94-2.92-6.92-1.26a4.68,4.68,0,0,0-1.09,4.79,12.54,12.54,0,0,0,2.66,4.37c3.33,4,7,8,11.72,10.08,1,.41,2.25.64,2.83-.26a2.55,2.55,0,0,0,.12-1.87,29.25,29.25,0,0,0-4.93-11.42Z"/><path class="cls-12" d="M47.21,264.6l-10.09.86s-2.19,14.41,1.77,25.07,24,29.09,24,29.09l147.61,55,6.38-5.1-77.35-56.33L47.21,264.6Z"/><path class="cls-13" d="M86.32,264.51l-39.11.09s-3.12,13.11.89,20.88,20,24.67,20,24.67l18.18-45.64Z"/><path class="cls-14" d="M86.32,264.51c3.58,1.6,157.24,76.92,157.24,76.92l-26.7,28.12L68.14,310.15Z"/><path class="cls-15" d="M100.48,277.31a38,38,0,0,0-7-1.86c-2.54-.43-5.73-.22-6.68,2.17a4.68,4.68,0,0,0,1.31,4.74,12.61,12.61,0,0,0,4.42,2.58c4.86,2,10,3.74,15.1,3.3,1-.08,2.29-.5,2.36-1.57a2.58,2.58,0,0,0-.78-1.71,29.39,29.39,0,0,0-9.76-7.7Z"/><path class="cls-15" d="M103.19,293.77a38,38,0,0,0-7-1.87c-2.53-.42-5.73-.22-6.68,2.18a4.68,4.68,0,0,0,1.31,4.73,12.79,12.79,0,0,0,4.42,2.59c4.86,2,10,3.73,15.1,3.3,1-.09,2.29-.51,2.37-1.57a2.58,2.58,0,0,0-.78-1.71,29.23,29.23,0,0,0-9.76-7.7Z"/><path class="cls-15" d="M128.36,291.63a38,38,0,0,0-7-1.87c-2.53-.42-5.73-.22-6.68,2.17a4.7,4.7,0,0,0,1.31,4.74,12.61,12.61,0,0,0,4.42,2.58c4.86,2,10,3.74,15.1,3.31,1-.09,2.29-.51,2.37-1.58a2.68,2.68,0,0,0-.78-1.71,29.42,29.42,0,0,0-9.77-7.7Z"/><path class="cls-15" d="M131.39,306.91a38.16,38.16,0,0,0-7-1.86c-2.54-.43-5.74-.22-6.69,2.17A4.67,4.67,0,0,0,119,312a12.5,12.5,0,0,0,4.41,2.59c4.86,2,10,3.74,15.1,3.3,1-.09,2.29-.51,2.37-1.57a2.58,2.58,0,0,0-.78-1.71,29.49,29.49,0,0,0-9.76-7.7Z"/><path class="cls-15" d="M153.63,301.86a38.19,38.19,0,0,0-7-1.87c-2.54-.42-5.74-.22-6.69,2.18a4.67,4.67,0,0,0,1.32,4.73,12.66,12.66,0,0,0,4.41,2.59c4.86,2,10,3.73,15.1,3.3,1-.09,2.29-.51,2.37-1.58a2.58,2.58,0,0,0-.78-1.7,29.23,29.23,0,0,0-9.76-7.7Z"/><path class="cls-15" d="M162.06,319.33a38,38,0,0,0-7-1.87c-2.53-.42-5.73-.22-6.68,2.18a4.66,4.66,0,0,0,1.31,4.73,12.79,12.79,0,0,0,4.42,2.59c4.86,2,10,3.73,15.1,3.3,1-.09,2.29-.51,2.37-1.58a2.59,2.59,0,0,0-.79-1.7,29,29,0,0,0-9.76-7.7Z"/><path class="cls-15" d="M184.34,318.77a38,38,0,0,0-7-1.87c-2.53-.42-5.73-.22-6.68,2.18a4.68,4.68,0,0,0,1.31,4.73,12.79,12.79,0,0,0,4.42,2.59c4.86,2,10,3.73,15.1,3.3,1-.09,2.29-.51,2.37-1.57a2.58,2.58,0,0,0-.78-1.71,29.17,29.17,0,0,0-9.77-7.7Z"/><path class="cls-15" d="M195.06,338.31a38.19,38.19,0,0,0-7-1.87c-2.54-.42-5.73-.22-6.68,2.18a4.64,4.64,0,0,0,1.31,4.73,12.79,12.79,0,0,0,4.42,2.59c4.86,2,10,3.73,15.09,3.3,1-.09,2.3-.51,2.37-1.57a2.54,2.54,0,0,0-.78-1.71,29.14,29.14,0,0,0-9.76-7.7Z"/><path class="cls-15" d="M211.53,332.27a38.19,38.19,0,0,0-7-1.87c-2.54-.42-5.74-.22-6.69,2.18a4.67,4.67,0,0,0,1.32,4.73,12.66,12.66,0,0,0,4.41,2.59c4.86,2,10,3.73,15.1,3.3,1-.09,2.29-.51,2.37-1.58a2.54,2.54,0,0,0-.78-1.7,29.23,29.23,0,0,0-9.76-7.7Z"/><path class="cls-16" d="M355.16,137.44c-11.76-2.35-19.84,12.64-31.05,16.9s-21.65,10.26-32.53,15.3C269,180.1,243.75,186.94,226,204.41c-5.77,5.69-19.07,6.31-20.25,14.32-1.36,9.29,10.95,25.13,16.88,32.42s13.73,12.79,21.42,18.18a20.46,20.46,0,0,0,5.83,3.22,16.43,16.43,0,0,0,8.92-.37c15.11-4.08,26.54-16.76,41.29-22,12.31-4.4,26-3.29,38.44-7.39,8-2.64,15.24-7.37,23.35-9.7,12.25-3.51,27.3-2.07,35.53-11.8,5.92-7,5.72-17.51,2.63-26.15C393.54,176.82,375.54,141.5,355.16,137.44Z"/><path class="cls-17" d="M351,136.32c-11.76-2.35-24,.14-35.22,4.41S294.12,151,283.24,156c-22.59,10.46-47.83,17.29-65.56,34.77-5.77,5.68-10.68,12.69-11.86,20.7-1.36,9.3,2.56,18.75,8.49,26s13.73,12.78,21.42,18.18a21.1,21.1,0,0,0,5.83,3.22,16.63,16.63,0,0,0,8.92-.37c15.11-4.08,26.54-16.76,41.29-22,12.32-4.39,26-3.29,38.45-7.38,8-2.65,15.23-7.38,23.34-9.7,12.25-3.51,27.3-2.08,35.53-11.81,5.92-7,5.72-17.5,2.64-26.15C385.21,163.2,371.37,140.38,351,136.32Z"/><path class="cls-18" d="M334.68,154.48c-1.09,1.16-.56,2.68.23,3.68,2,2.57,5.17,4.16,8.14,5.85a87.86,87.86,0,0,1,22.77,18.46c3.54,4.05,6.78,8.51,11.83,11.07,1.38.7,3.57,1.06,4.76-.33a2.83,2.83,0,0,0,0-3.26c-1.88-3.62-4.94-6.48-8-9.3C371.15,177.56,342.25,146.43,334.68,154.48Z"/><path class="cls-18" d="M328.92,190.47c-10.73-5.66-19-14.09-29.11-20.45a8.37,8.37,0,0,0-4.64-1.65c-1.82,0-4,1.25-4.45,2.92a3.2,3.2,0,0,0,.38,2.22c2.14,4.23,7.46,6,12,8.17,13.3,6.53,21.36,18.95,34.82,25.26a9.43,9.43,0,0,0,5.53,1.14C357.75,205.91,331.14,191.64,328.92,190.47Z"/><path class="cls-18" d="M278.35,197.27c-5.77-4.49-11.85-9.12-19.92-10.22a5.43,5.43,0,0,0-3.22.3,3.7,3.7,0,0,0-2,3.74,5.43,5.43,0,0,0,2.21,3.11c4.12,3.32,9.62,5.1,14.11,8,5.42,3.55,9.19,8.66,13.53,13.22,2.57,2.7,23.74,17,21.63,4.36-.82-4.89-7.85-8.13-11.53-11Z"/><path class="cls-18" d="M227.86,207.12a6.29,6.29,0,0,0-2.13,2.13,3.38,3.38,0,0,0,.63,4,11.26,11.26,0,0,0,3.71,2.16,60.36,60.36,0,0,1,19.76,13.82c3.1,3.31,5.82,7,9.77,9.51,2,1.26,5,2.09,7.34.37a4.48,4.48,0,0,0,1.5-5.35c-.74-1.62-2.34-2.68-3.88-3.71a158.87,158.87,0,0,1-21.32-16.81C239.42,209.59,236.36,201.57,227.86,207.12Z"/><path class="cls-19" d="M332.48,140.62c-5,.76-9.55,2.93-14.08,5.07L256.49,175a4.44,4.44,0,0,0-1.9,1.36c-1.44,2.15,1.59,4.64,4.17,4.94,10.21,1.2,18.1-8.28,27.16-13.14,7.3-3.9,15.8-4.87,23.46-8,10.15-4.13,20.08-12.2,30.72-9.57,5.16,1.27,14.8,3.32,8.2-5.32C344.89,140.79,337.69,139.82,332.48,140.62Z"/><path class="cls-19" d="M354.91,156.43c1.64,1.29,3.67,2,5.48,3,6.42,3.7,9.61,11.94,16.53,14.59,1.38.53,3.07.76,4.23-.15a3.88,3.88,0,0,0,1.23-3.09c0-2.44-1.25-4.7-2.62-6.73-4.31-6.39-10.58-12.63-17.63-16C356.63,145.48,348.71,151.56,354.91,156.43Z"/><path class="cls-16" d="M453.48,148c-11.76-2.34-19.85,12.64-31.05,16.91s-21.65,10.26-32.53,15.3c-22.59,10.46-47.83,17.29-65.56,34.77-5.77,5.68-19.08,6.3-20.25,14.31-1.36,9.3,11,25.14,16.88,32.43s13.73,12.78,21.42,18.18a21,21,0,0,0,5.83,3.22,16.59,16.59,0,0,0,8.91-.37c15.12-4.08,26.55-16.76,41.3-22,12.31-4.39,26-3.29,38.44-7.38,8-2.65,15.24-7.38,23.35-9.7,12.25-3.51,27.3-2.08,35.53-11.81,5.92-7,5.71-17.5,2.63-26.15C491.86,187.4,473.86,152.09,453.48,148Z"/><path class="cls-17" d="M449.31,146.9c-11.76-2.34-24,.15-35.22,4.41s-21.65,10.26-32.53,15.3C359,177.07,333.73,183.91,316,201.39c-5.77,5.68-10.69,12.69-11.86,20.7-1.36,9.29,2.56,18.74,8.49,26s13.73,12.79,21.42,18.19a20.67,20.67,0,0,0,5.83,3.21,16.43,16.43,0,0,0,8.92-.37c15.11-4.08,26.54-16.76,41.29-22,12.31-4.4,26-3.29,38.44-7.39,8-2.64,15.24-7.37,23.35-9.69,12.25-3.52,27.3-2.08,35.53-11.81,5.92-7,5.72-17.51,2.63-26.15C483.53,173.79,469.69,151,449.31,146.9Z"/><path class="cls-18" d="M433,165.07c-1.1,1.16-.56,2.68.22,3.68,2,2.56,5.18,4.16,8.15,5.85a88,88,0,0,1,22.77,18.45c3.54,4,6.78,8.51,11.83,11.08,1.38.7,3.57,1.06,4.76-.33a2.84,2.84,0,0,0,0-3.27c-1.88-3.61-4.94-6.48-8-9.29C469.47,188.15,440.57,157,433,165.07Z"/><path class="cls-18" d="M427.24,201.05c-10.73-5.66-19-14.08-29.11-20.44a8.46,8.46,0,0,0-4.64-1.66c-1.82,0-4,1.26-4.45,2.92a3.17,3.17,0,0,0,.38,2.23c2.14,4.22,7.46,6,12,8.17,13.3,6.53,21.36,18.95,34.82,25.26a9.51,9.51,0,0,0,5.53,1.14C456.07,216.5,429.46,202.23,427.24,201.05Z"/><path class="cls-18" d="M376.66,207.86c-5.76-4.5-11.84-9.12-19.92-10.23a5.41,5.41,0,0,0-3.21.31,3.67,3.67,0,0,0-2,3.74,5.39,5.39,0,0,0,2.21,3.11c4.11,3.31,9.62,5.1,14.11,8,5.42,3.55,9.19,8.66,13.53,13.23,2.57,2.7,23.74,17,21.62,4.36-.81-4.9-7.84-8.13-11.52-11Z"/><path class="cls-18" d="M326.18,217.71a6.2,6.2,0,0,0-2.13,2.13,3.37,3.37,0,0,0,.62,4,11.56,11.56,0,0,0,3.71,2.17,60.15,60.15,0,0,1,19.77,13.82c3.1,3.31,5.81,7,9.77,9.5,2,1.26,5,2.1,7.34.38a4.49,4.49,0,0,0,1.5-5.36c-.74-1.62-2.35-2.68-3.88-3.7a158.93,158.93,0,0,1-21.32-16.82C337.74,220.17,334.68,212.15,326.18,217.71Z"/><path class="cls-19" d="M430.8,151.21c-4.95.76-9.55,2.92-14.08,5.06l-61.91,29.28a4.42,4.42,0,0,0-1.9,1.35c-1.45,2.16,1.59,4.64,4.17,4.95,10.21,1.19,18.1-8.28,27.16-13.14,7.29-3.91,15.79-4.87,23.46-8,10.15-4.13,20.08-12.19,30.72-9.57,5.16,1.28,14.8,3.33,8.2-5.32C443.21,151.37,436,150.41,430.8,151.21Z"/><path class="cls-19" d="M453.23,167c1.64,1.29,3.67,1.95,5.48,3,6.42,3.71,9.61,11.94,16.53,14.6,1.38.53,3.07.76,4.23-.16a3.86,3.86,0,0,0,1.23-3.08c0-2.45-1.26-4.71-2.62-6.74-4.31-6.39-10.58-12.62-17.63-16C455,156.06,447,162.14,453.23,167Z"/><path class="cls-16" d="M535.38,158.51c-11.76-2.34-19.84,12.64-31.05,16.9s-21.65,10.26-32.53,15.3C449.21,201.18,424,208,406.24,225.49c-5.77,5.68-19.07,6.3-20.25,14.31-1.36,9.3,10.95,25.14,16.88,32.43S416.6,285,424.29,290.41a20.67,20.67,0,0,0,5.83,3.21,16.43,16.43,0,0,0,8.92-.37c15.11-4.08,26.54-16.76,41.29-22,12.31-4.39,26-3.29,38.44-7.39,8-2.64,15.24-7.37,23.35-9.69,12.25-3.51,27.3-2.08,35.53-11.81,5.92-7,5.72-17.51,2.63-26.15C573.76,197.89,555.76,162.58,535.38,158.51Z"/><path class="cls-17" d="M531.21,157.39c-11.76-2.34-24,.14-35.22,4.41s-21.65,10.26-32.53,15.3c-22.59,10.46-47.83,17.3-65.56,34.77-5.77,5.69-10.68,12.69-11.86,20.7-1.36,9.3,2.56,18.75,8.49,26S408.26,271.4,416,276.79a21.1,21.1,0,0,0,5.83,3.22c2.89.86,6,.41,8.92-.37,15.11-4.08,26.54-16.76,41.29-22,12.31-4.4,26-3.3,38.44-7.39,8-2.64,15.24-7.37,23.35-9.7,12.25-3.51,27.3-2.08,35.53-11.81,5.92-7,5.72-17.5,2.64-26.15C565.43,184.28,551.59,161.45,531.21,157.39Z"/><path class="cls-18" d="M514.9,175.56c-1.09,1.16-.56,2.68.22,3.67,2,2.57,5.18,4.17,8.15,5.86A87.83,87.83,0,0,1,546,203.54c3.54,4.05,6.78,8.51,11.83,11.07,1.38.7,3.57,1.06,4.76-.32a2.84,2.84,0,0,0,0-3.27c-1.88-3.62-4.94-6.48-8-9.29C551.37,198.63,522.47,167.51,514.9,175.56Z"/><path class="cls-18" d="M509.14,211.54c-10.73-5.66-19-14.09-29.11-20.45a8.45,8.45,0,0,0-4.64-1.65c-1.82,0-4,1.26-4.45,2.92a3.19,3.19,0,0,0,.38,2.22c2.14,4.23,7.46,6,12,8.18,13.3,6.53,21.36,19,34.82,25.25a9.51,9.51,0,0,0,5.53,1.15C538,227,511.36,212.71,509.14,211.54Z"/><path class="cls-18" d="M458.57,218.34c-5.77-4.49-11.85-9.11-19.92-10.22a5.44,5.44,0,0,0-3.22.31,3.68,3.68,0,0,0-2,3.74,5.42,5.42,0,0,0,2.21,3.11c4.11,3.31,9.62,5.1,14.11,8,5.42,3.55,9.19,8.66,13.53,13.22,2.57,2.71,23.74,17,21.63,4.36-.82-4.89-7.85-8.13-11.53-11Z"/><path class="cls-18" d="M408.08,228.2a6.26,6.26,0,0,0-2.13,2.12,3.39,3.39,0,0,0,.62,4,11.61,11.61,0,0,0,3.72,2.17,60.18,60.18,0,0,1,19.76,13.81c3.1,3.31,5.81,7,9.77,9.51,2,1.26,5,2.09,7.34.37a4.48,4.48,0,0,0,1.5-5.35c-.74-1.62-2.34-2.68-3.88-3.7a158.93,158.93,0,0,1-21.32-16.82C419.64,230.66,416.58,222.64,408.08,228.2Z"/><path class="cls-19" d="M512.7,161.7c-5,.76-9.55,2.92-14.08,5.06L436.71,196a4.52,4.52,0,0,0-1.9,1.36c-1.44,2.16,1.59,4.64,4.17,4.94,10.21,1.2,18.1-8.28,27.16-13.13,7.3-3.91,15.79-4.87,23.46-8,10.15-4.13,20.08-12.2,30.72-9.57,5.16,1.27,14.8,3.32,8.2-5.32C525.11,161.86,517.91,160.9,512.7,161.7Z"/><path class="cls-19" d="M535.13,177.51c1.64,1.29,3.67,2,5.48,3,6.42,3.71,9.61,11.94,16.53,14.6,1.38.52,3.07.75,4.23-.16a3.87,3.87,0,0,0,1.23-3.08c0-2.45-1.25-4.71-2.62-6.74-4.31-6.39-10.58-12.62-17.63-16C536.85,166.55,528.93,172.63,535.13,177.51Z"/><path class="cls-20" d="M719,207.41c-2.9-8.5,19.19,37.18-10.78,82.51s-66,62.21-96.54,62c-53.6-.37-74.59-33.37-74.59-33.37Z"/><path class="cls-21" d="M699.76,184c22.7,10.29,31.73,36.94-3.63,92.29-35.12,55-86.53,73.88-137.35,55.22C504,311.4,524.31,258,586.27,217.19,632.87,186.48,671.49,171.21,699.76,184Z"/><path class="cls-22" d="M656.74,261.61c2.75,9.7.2,20.37-5.16,28.74S638.31,305,629.91,310.09c-16,9.67-36.79,15.13-52.91,5.34-15.2-9.23-21.24-30.78-14.94-47.6s23.13-28.13,40.62-29.62S650.84,240.76,656.74,261.61Z"/></svg>