<svg id="Layer_1" data-name="Layer 1" xmlns="http://www.w3.org/2000/svg" viewBox="0 0 805 733"><defs><style>.cls-1{fill:#36383a;}.cls-2{fill:#4b4e51;}.cls-3{fill:#e8cbac;}.cls-4{fill:#f78146;}.cls-13,.cls-5{fill:#fff;}.cls-5{opacity:0.39;}.cls-6{fill:#c68c52;}.cls-7{fill:#e0b153;}.cls-8{fill:#f99180;}.cls-9{fill:#7ecc52;}.cls-10{fill:#6eb748;}.cls-11{fill:#89564e;}.cls-12{fill:#a56a5d;}.cls-13{opacity:0.25;}.cls-14{fill:#609b3e;}.cls-15{fill:#85d656;}.cls-16{fill:#60934c;}.cls-17{fill:#c3ea8f;}.cls-18{fill:#a8ce7c;}</style></defs><title>Food</title><path class="cls-1" d="M552.76,665.39s-11.89,40.86-106,40.61c-89.23-.24-106-40.61-106-40.61V601h212Z"/><path class="cls-2" d="M446.77,310.29H104.06s8.41,123.54,81.22,220.39c105,139.66,261.49,139.66,261.49,139.66s156.5,0,261.49-139.66c72.81-96.85,81.23-220.39,81.23-220.39Z"/><path class="cls-1" d="M733.62,310.29c-6.69,41.66-25.84,124.46-77.85,193.64-105,139.67-261.5,139.67-261.5,139.67s-50.85,0-114-25.87c84.9,52.61,166.53,52.61,166.53,52.61s156.5,0,261.49-139.66c72.81-96.85,81.23-220.39,81.23-220.39Z"/><ellipse class="cls-3" cx="446.77" cy="310.29" rx="342.72" ry="176.81"/><ellipse class="cls-4" cx="446.77" cy="367.74" rx="324.21" ry="119.36"/><path class="cls-5" d="M186.1,460.73c-.27,11.63,6,22.3,12,32.24,5.26,8.62,10.52,17.26,16.31,25.54a241.86,241.86,0,0,0,29.12,34.37c3.77,3.68,7.9,7.38,13,8.61s11.44-.94,13.1-5.94c1.76-5.31-2.19-10.66-5.86-14.87-17.2-19.72-34.54-40.24-43.27-64.91-2.05-5.79-3.67-11.89-7.36-16.8C206.88,450.58,186.47,445.1,186.1,460.73Z"/><path class="cls-6" d="M492.49,486.1a6.43,6.43,0,0,1-1.77-.26,6.28,6.28,0,0,1-4.25-7.8c1-3.3-1.68-7.25-4.66-9.29-4.2-2.88-9.91-3.93-15.44-4.95l-28.52-5.25c-8.23.79-16.45,1-24.51,1.26L370.68,461c-26.92.78-54.84.06-74.37-17.6-9.39-8.48-16.2-22.68-10.24-35.28,2-4.14,5.23-7.85,10-11.32,18-13.18,40.41-13,62.05-12.93,4.73,0,9.61.06,14.26-.06A183.78,183.78,0,0,0,468.78,353c12.55-8.45,19.11-16.64,20-25.05s-3.91-16.72-9-22.79c-11.39.54-22.34,1.21-32.69,1.91-22.05,1.48-52.23,3.51-73.68-13.14-4.82-3.74-7-7.93-6.51-12.46.53-4.81,3.94-8.54,10.12-11.08,17.74-7.32,38.39-9,58.15-4.82a100,100,0,0,1,49.89,26.78c23.51-1,48.7-1.31,74.15,0,15.18.79,32.62,2.33,47.56,10.71,7.27,4.08,10.72,10.34,9,16.35-1.25,4.33-4.7,6.75-6.56,8.05-5.11,3.59-10.55,6.95-15.81,10.2-16.15,10-31.39,19.4-38.34,34.88-1.3,2.91-1,3.87-1,3.88s.3.5,2,1.37c12.09,6.25,27,1.41,34.88-2,12.81-5.62,24.73-14.45,36.27-23,16.95-12.55,34.47-25.52,56-29.68,14.2-2.75,31,.68,36.56,14.51,2.89,7.22,1.86,15.82-3,25.57-12.81,25.42-37.32,40.53-55.62,48.73-16.75,7.5-34.54,12.37-51.74,17.07-5.53,1.51-11.25,3.08-16.81,4.7-7.6,2.21-14.9,4.56-20.66,8.88-4.44,3.33-9,9.21-8.65,15.7a6.28,6.28,0,0,1-7.1,6.6c-6.22-.82-13.28-1.75-19.77-5-8.12-4.06-13.47-11.11-14.31-18.84-.62-5.72,1.29-10.89,2.79-14.28,6.92-15.68,19.84-26.58,34.1-34.57A37.84,37.84,0,0,1,550.3,389a16.3,16.3,0,0,1-7.39-6.79c-3.16-6.15-.26-12.63.7-14.76,8.52-19,26.15-29.89,43.19-40.43,5.11-3.16,10.4-6.42,15.21-9.8.66-.46,1.08-.79,1.36-1a10.09,10.09,0,0,0-2.74-2.13c-12.58-7.05-28.3-8.41-42.06-9.12-21.69-1.14-43.24-1-63.71-.37,4.37,7.05,7.48,15.54,6.45,24.79-1.37,12.31-9.72,23.45-25.51,34.08a196.44,196.44,0,0,1-103.09,33c-4.86.13-9.85.1-14.67.07-20.51-.12-39.88-.23-54.57,10.5-3,2.21-5,4.35-6,6.56-3,6.43,1.37,15.22,7.31,20.58,16.07,14.54,41.21,15.07,65.58,14.36l31-.89a21.28,21.28,0,0,1-8.14-12.14c-2.25-9.25,2.15-19.27,12.39-28.22,23.2-20.3,57.34-27.93,87-19.44,10.88,3.12,17.72,8.45,20.32,15.84,3.38,9.6-1.18,20.51-12.5,29.93a108.39,108.39,0,0,1-31,18c6,1.12,13.38,2.59,19.54,6.81,8.05,5.52,12,15.06,9.6,23.2A6.3,6.3,0,0,1,492.49,486.1Zm216.31-139a34.21,34.21,0,0,0-1.64,3.95,30.53,30.53,0,0,1-4.53,8.91c-5,6.16-13.06,7.39-18.38,8.2a505.23,505.23,0,0,0-92,23.1c-21,7.43-46.27,18.74-55.89,40.54-1.45,3.28-2,5.77-1.79,7.84.37,3.37,3.29,6.88,7.44,9a34.67,34.67,0,0,0,9.37,2.84c1.67-7.12,6.22-13.87,13-19,7.44-5.59,16.27-8.45,24.68-10.9,5.67-1.65,11.44-3.22,17-4.75,16.74-4.58,34-9.31,49.91-16.42,16.44-7.37,38.39-20.79,49.54-42.91A27.88,27.88,0,0,0,708.8,347.14ZM467.62,396.91c-19.52,0-39.17,7-53.8,19.77-3.05,2.67-10,9.54-8.46,15.8,1.26,5.15,7.79,8.74,20,11l13,2.39a119.86,119.86,0,0,0,15.44-2.59,95.85,95.85,0,0,0,38.52-19.36c5.37-4.47,10.47-11.05,8.69-16.11-1.46-4.15-7.29-6.6-11.93-7.93A78,78,0,0,0,467.62,396.91Zm224.59-62.09a35.46,35.46,0,0,0-6.59.63c-18.74,3.62-34.38,15.2-50.93,27.45l-5.17,3.82a518.43,518.43,0,0,1,52.83-10.94c4.69-.71,8.72-1.49,10.52-3.7a21.33,21.33,0,0,0,2.51-5.36c.45-1.23,1-2.58,1.58-3.94a6.27,6.27,0,0,1,.7-7.48A30.28,30.28,0,0,0,692.21,334.82ZM379.91,283a12.11,12.11,0,0,0,1.22,1.07c17.66,13.72,44,12,65.12,10.52q10-.68,20.68-1.29C443,275.6,409.26,270.7,381.82,282A13.5,13.5,0,0,0,379.91,283Z"/><path class="cls-7" d="M390.69,429.8A164.22,164.22,0,0,1,372,428.74c-5.61-.65-12.13-1.79-17.89-4.77-18.16,1.83-37.22,1.11-56-.05-14.28-.88-32-2-45.89-12.21-15.31-11.33-22.93-31.16-22.68-59-11.48-.12-22.82,2-31.19,9.29a30.34,30.34,0,0,0,4.77,49.09,6.28,6.28,0,0,1-6.3,10.87,42.91,42.91,0,0,1-6.74-69.41c11.29-9.88,26.09-12.52,40.06-12.34.24-2.74.57-5.55,1-8.4l-1.5-.37c-11.36-2.63-23.46-.81-35.28,1.33a7.36,7.36,0,0,1-8.39,2.81,6.91,6.91,0,0,1-4.81-7c.2-3,2.31-6.56,7.65-7.54,13.45-2.47,28.71-5.27,43.65-1.81.59.13,1.18.28,1.76.43a47.55,47.55,0,0,1,9.45-16.28c9.19-10.12,23.28-15.81,41.87-16.93a83.05,83.05,0,0,1,30.64,3.49,118.22,118.22,0,0,1,32.55,4.61,94.72,94.72,0,0,1,10.35-11.32c19.4-17.75,49.1-23.84,73.91-15.16,8.65,3,15.4,7.37,20.05,12.89,11.07,13.14,9.68,34.86-3,46.49A35.15,35.15,0,0,1,437,335a177.36,177.36,0,0,1,26.34,1.61l.92-.47c23.75-12,55.33-6.4,73.45,13.11,5,5.41,8.9,11.52,12.65,17.43s7.19,11.31,11.57,15.94a54.33,54.33,0,0,0,15.58,11.28q4.9-2.08,9.65-4.27c15-6.89,30.58-14.91,42.23-26.86a47.54,47.54,0,0,0,9.8-14.54c-2.55.07-5.12.07-7.71-.05-17.39-.79-31.43-8.23-37.55-19.88a42,42,0,0,1-3.52-9.84c-6.5,1.2-13,2.71-19.45,4.2-23.15,5.36-47.08,10.9-70.14,2.2-15.06-5.68-28.94-20.6-25-37.06,2.33-9.8,10.85-17.92,22.24-21.22,9.37-2.71,19.06-2,27.62-1.42,13.66,1,27.79,2,41.3,7.05,15.84,6,27.63,17,32.34,30.21.22.63.43,1.26.63,1.9,1.73-.2,3.47-.36,5.2-.49,21.59-1.56,38.65,5.68,45.66,19.38a30.59,30.59,0,0,1,3.28,11.6,106.82,106.82,0,0,1,16.28.15c15.39,1.55,27.12,9.05,31.38,20.05,3.44,8.89,1.62,19.89-4.75,28.71-6,8.32-14.82,13.51-20.92,16.69A128.05,128.05,0,0,1,604,414a100.71,100.71,0,0,1-26.74-6.47c-13,5.18-27.29,9.59-42.08,10.8-21.46,1.77-42-3.05-62-9.78A171.75,171.75,0,0,1,390.69,429.8Zm-4.25-12.62A159,159,0,0,0,456.9,402.7q-5-1.89-10-3.81c-6.86-2.63-13.83-5.31-20.85-7.79a108.35,108.35,0,0,1-11.13,10.49A94.43,94.43,0,0,1,386.44,417.18ZM242.15,353.62c0,17.22,3.41,37.51,17.58,48,10.85,8,26.57,9,39.19,9.77,14.94.92,29.63,1.56,43.62.92a25.82,25.82,0,0,1-1.8-15.58c.1-.59.23-1.17.37-1.76-21.65-5.39-43.82-16.69-64.91-33.44a42.44,42.44,0,0,1-6.1-3.58c-5.33-.67-10.57-1.56-15.63-2.42l-4.45-.75C247.48,354.35,244.84,354,242.15,353.62Zm111.3,43.79c-.14.5-.25,1-.34,1.52-.51,2.87-.53,7,2.28,10.37a12.77,12.77,0,0,0,1.82,1.78c18.68-2.35,35.69-7.87,49.82-19.27,2-1.6,3.89-3.31,5.74-5.1l-1.2-.36a32.39,32.39,0,0,1-14.7,8.55A102.82,102.82,0,0,1,353.45,397.41Zm133.79,2.44c15.51,4.56,31,7.28,46.92,6a119.31,119.31,0,0,0,28.36-6.2,63.59,63.59,0,0,1-9.75-8.38c-5.22-5.51-9.2-11.78-13-17.85-3.61-5.68-7-11-11.25-15.6-10.22-11-25.8-16.47-40.74-15.34,12.24,4.87,19.71,12.64,21.3,22.36,1.29,7.86-.9,19.93-18.66,32.83C489.33,398.38,488.29,399.12,487.24,399.85Zm107.69,0a97.26,97.26,0,0,0,10.42,1.67,115.31,115.31,0,0,0,64.86-12.26c7.9-4.12,13.16-8.22,16.55-12.9,3.84-5.33,5.1-11.93,3.21-16.82-3-7.66-12.75-11.26-20.92-12.08a101.53,101.53,0,0,0-16.36,0c-2.57,9.29-8.27,17.85-14.34,24.07C626,384.22,610.28,392.69,594.93,399.83Zm-160-18.89c5.55,2,11.05,4.14,16.49,6.22,6.89,2.65,13.69,5.26,20.45,7.66q5.72-3.44,11.13-7.36c6.94-5,14.94-12.71,13.64-20.62-1.49-9.1-14.58-13.42-20.14-14.86q-5.36-1.38-10.75-2.31c-10.5,6.56-18.7,16.54-27.32,27Zm-73.57,4.83a88.1,88.1,0,0,0,32-2.94c.61-.18,1.23-.38,1.83-.61-14.18-2.81-24.49-2-32.31,2.53A17.54,17.54,0,0,0,361.35,385.77Zm-56.11-19.5c11.51,6.81,25.65,13.48,41.15,17.09a32.62,32.62,0,0,1,10.24-9.49c14-8.09,30.45-6.19,42.12-3.76-4.39-2.41-9.65-3.62-15.19-4.89-6.45-1.48-13.13-3-19.3-6.61q-.93-.54-1.8-1.11c-14.67,2.83-29.8,5.73-44.74,7.62C313.63,365.64,309.44,366.08,305.24,366.27Zm111,8.36q3,.92,6,1.89c2.17-2.53,4.32-5.15,6.5-7.81,6-7.24,12-14.62,19.05-21-20-1-40.39,1.6-61.3,5.29,6.9,1.59,14,3.24,20.49,7.39,4.69,3,7.64,6.69,8.77,10.93A16,16,0,0,1,416.24,374.63Zm-76-46c-7.12,9.74-15.21,18.73-26.37,24.34l2.31-.28c11.61-1.47,23.47-3.59,35.14-5.8a126.08,126.08,0,0,1-10-16.26C340.94,329.92,340.58,329.25,340.21,328.59Zm-63,17.48c10.52.91,20.72.41,29.75-3.74,11-5.06,18.72-14.65,26.2-25.43a44.07,44.07,0,0,0-5.23-6.11,39.21,39.21,0,0,0-13.61-8.29,81.17,81.17,0,0,0-22,3.57c-12.42,3.9-25.5,13.67-24.85,25.92a17.56,17.56,0,0,0,2.71,8.3c1.92,1.56,3.82,3.14,5.71,4.72Zm71-29c1.45,2.47,2.82,5,4.18,7.46,4.05,7.42,7.92,14.51,13.32,19.52,16-3.08,32.15-6.07,48.37-7.75a59,59,0,0,1-8.66-2c-9.57-3.05-18.17-8-26.49-12.69-3.59-2.05-7.3-4.16-11-6.05a124.79,124.79,0,0,0-14.38-6.3C351.74,311.8,350,314.43,348.16,317.11ZM242.72,341c3.28.38,6.42.85,9.36,1.33l.3.05a89,89,0,0,0-9.17-5.76C243,338.13,242.85,339.6,242.72,341ZM602.87,316.6a28,28,0,0,0,2.14,5.82c6,11.36,22.18,13,27,13.18,3.11.15,6.23.09,9.42-.06a17.73,17.73,0,0,0-1.88-6.64c-5.45-10.66-20.91-13.48-33.56-12.57ZM246.09,324a87.23,87.23,0,0,1,8.85,5c.84-12,9-21.85,19.42-28.4-7.76,1.73-15.72,5-21.29,11.19A35.16,35.16,0,0,0,246.09,324Zm115.42-25.18q6.14,2.43,12.16,5.53c3.9,2,7.73,4.19,11.43,6.3,8.11,4.62,15.77,9,24.09,11.64,10,3.2,23.82,3.79,32.47-4.16,7.79-7.15,8.68-21,1.86-29.13-3.18-3.78-8.09-6.85-14.59-9.13-20.57-7.2-45.2-2.15-61.28,12.57A75.71,75.71,0,0,0,361.51,298.85Zm152.24-21.7a44.26,44.26,0,0,0-12.26,1.47c-6.94,2-12.24,6.74-13.51,12.06-2.17,9.13,7.06,18.56,17.23,22.4,19.51,7.35,40.57,2.47,62.87-2.69,6.31-1.46,12.73-2.95,19.21-4.17-3.58-9.58-12.59-17.68-24.8-22.28-11.79-4.44-25-5.37-37.76-6.27C521.09,277.41,517.39,277.15,513.75,277.15Zm-173.9,28c.23.27.46.53.68.8l.38-.55Z"/><path class="cls-8" d="M446.77,143.54A617.5,617.5,0,0,1,578,157.2c40,8.72,75.77,21.17,106.47,37,30.25,15.61,53.89,33.66,70.28,53.64s24.65,41,24.65,62.45-8.29,42.5-24.65,62.45-40,38-70.28,53.64c-30.7,15.83-66.52,28.28-106.47,37a616.85,616.85,0,0,1-131.26,13.67,616.85,616.85,0,0,1-131.26-13.67c-39.95-8.72-75.77-21.17-106.47-37-30.25-15.61-53.89-33.65-70.28-53.64s-24.65-41-24.65-62.45,8.29-42.49,24.65-62.45,40-38,70.28-53.64c30.7-15.83,66.52-28.28,106.47-37a617.5,617.5,0,0,1,131.26-13.66Zm0-10c-189.28,0-342.71,79.15-342.71,176.8S257.49,487.1,446.77,487.1s342.72-79.16,342.72-176.81-153.44-176.8-342.72-176.8Z"/><path class="cls-9" d="M614.22,215.5c7.63-.59,17.35.2,20,7.39a489.51,489.51,0,0,0-185.17,62c1.05-.61-17-15-16.91-16.81.16-4.72,17.85-11.25,22.14-13.34a346.2,346.2,0,0,1,51.2-19.9C540.76,224.1,577.47,218.38,614.22,215.5Z"/><path class="cls-10" d="M611.44,249.07c7.49,1.56,16.6,5,17.1,12.67a489.44,489.44,0,0,0-195.11,7.8c1.17-.29-12.12-19.13-11.55-20.87,1.48-4.49,20.29-5.82,25-6.63a347.17,347.17,0,0,1,54.72-4.81C538.51,236.81,575.35,241.57,611.44,249.07Z"/><path class="cls-10" d="M694.7,272.3c7.5,1.56,16.61,5,17.11,12.66a489.5,489.5,0,0,0-195.12,7.8c1.18-.29-12.11-19.13-11.54-20.86,1.48-4.49,20.29-5.82,25-6.63a345.89,345.89,0,0,1,54.72-4.81C621.77,260,658.61,264.79,694.7,272.3Z"/><path class="cls-10" d="M694,228.69c7.3-2.32,16.94-3.77,21.12,2.64A489.58,489.58,0,0,0,548.93,333.88c.89-.84-19.94-10.73-20.29-12.52-.92-4.64,14.82-15,18.51-18a347.54,347.54,0,0,1,45.32-31C624.43,253.8,658.86,239.86,694,228.69Z"/><path class="cls-9" d="M630.68,288.91c7.24,2.47,15.85,7,15.4,14.68A489.43,489.43,0,0,0,451.5,287.2c1.2-.15-9.66-20.49-8.88-22.13,2-4.28,20.86-3.27,25.62-3.49a345.92,345.92,0,0,1,54.89,2C559.82,267.72,595.79,277,630.68,288.91Z"/><path class="cls-11" d="M348.93,420.3c-6.74,7.77-20.56,6.35-27.26-1.36s-7-19.42-3-28.86,11.42-17,19.21-23.77A215.55,215.55,0,0,1,381.55,337c7.77-3.94,16-7.46,24.67-8.16,6.94-.56,14.3.89,19.54,5.35s7.74,12.34,4.69,18.51c-3.44,7-11.94,9.51-19.28,12.28a97.16,97.16,0,0,0-17.84,8.92c-2.31,1.48-4.86,3.76-4.2,6.38.47,1.92,2.46,3,4.26,3.85L418,395.87c1.76.84,3.71,1.92,4.1,3.8.47,2.23-1.52,4.2-3.38,5.59a85.43,85.43,0,0,1-17.38,10.11c-2.43,1.05-5,2-7.65,1.72-12.9-1.4-12.81-22.58-24.74-25.44C355.51,388.42,355.13,413.13,348.93,420.3Z"/><path class="cls-12" d="M347.82,415.53c-6.73,7.78-20.56,6.35-27.25-1.36s-7-19.41-3-28.86,11.42-17,19.21-23.77a215.76,215.76,0,0,1,43.68-29.34c7.77-3.94,16-7.46,24.67-8.16,6.94-.56,14.31.89,19.55,5.36s7.74,12.33,4.69,18.51c-3.44,6.95-12,9.51-19.28,12.27a96.26,96.26,0,0,0-17.84,8.93c-2.31,1.48-4.86,3.75-4.21,6.38.48,1.91,2.47,3,4.26,3.85l24.66,11.76c1.75.84,3.71,1.92,4.1,3.8.46,2.24-1.53,4.2-3.38,5.6a85.39,85.39,0,0,1-17.38,10.1c-2.43,1.06-5,2-7.65,1.73-12.9-1.4-12.81-22.58-24.74-25.44C354.4,383.65,354,408.37,347.82,415.53Z"/><path class="cls-13" d="M327.07,384a58.34,58.34,0,0,1,6.88-8.89c9.8-11.1,20.21-22.62,34.17-27.79a3.11,3.11,0,0,1,2.59-.13c1.79,1.05,0,3.7-1.79,4.84-8.53,5.53-16.91,11.6-23.15,19.56s-10.18,18.12-8.76,28c1.07,7.41-2.19,20.73-10.75,11.29C320.4,404.45,323.26,390.52,327.07,384Z"/><path class="cls-11" d="M461.87,334c-8.17.93-16.3-7-16.74-14.82s5.21-14.57,12.42-17.88,15.76-3.74,24.1-3.54a189.57,189.57,0,0,1,42.49,5.92c6.93,1.78,13.92,4,19.82,8.11,4.71,3.26,8.7,7.87,9.83,13.1s-1.19,11-6.21,12.89c-5.66,2.16-12.36-.78-18.42-3a86.92,86.92,0,0,0-15.84-4.14c-2.21-.36-5-.38-5.86,1.44-.64,1.32.09,3,.81,4.37l9.9,19.37c.71,1.37,1.42,3,.73,4.26-.81,1.5-3.06,1.59-4.94,1.42a75.52,75.52,0,0,1-16.13-3.24,14.07,14.07,0,0,1-5.74-3c-7.55-7.44,3-19.38-3.16-27.14C481.92,319.31,469.4,333.1,461.87,334Z"/><path class="cls-12" d="M463.53,330.69c-8.17.92-16.29-7-16.73-14.82S452,301.3,459.21,298s15.76-3.74,24.1-3.54a189.09,189.09,0,0,1,42.5,5.92c6.92,1.78,13.92,4,19.82,8.1,4.71,3.26,8.7,7.88,9.83,13.11s-1.19,11-6.22,12.88c-5.65,2.17-12.36-.77-18.42-3A86,86,0,0,0,515,327.32c-2.22-.36-5-.38-5.86,1.44-.65,1.33.08,3,.8,4.38q5,9.67,9.91,19.36c.7,1.38,1.41,3,.73,4.26-.82,1.51-3.07,1.59-4.94,1.43a76.25,76.25,0,0,1-16.14-3.25,14,14,0,0,1-5.74-3c-7.54-7.45,3.05-19.38-3.15-27.15C483.59,316.05,471.06,329.84,463.53,330.69Z"/><path class="cls-13" d="M466,302.15a47.65,47.65,0,0,1,8.82-1.48c11.78-1.22,24.16-2.38,35.65,1.9a2.77,2.77,0,0,1,1.72,1.26c.62,1.52-1.86,2.07-3.55,1.81-8.2-1.27-16.57-2.15-24.52-.87s-15.52,5-19.53,11.35c-3,4.73-11.71,10.59-12.49.84C451.52,310.28,460.28,303.88,466,302.15Z"/><path class="cls-11" d="M250.31,425.61c-4.74,6.72-16.06,7.52-22.19,2.67s-7.44-13.57-5.12-21.17,7.67-14.26,13.35-20.36A189,189,0,0,1,269,358.92c5.93-4,12.25-7.74,19.22-9.44,5.57-1.35,11.67-1.27,16.32,1.36S312,359,310.06,364c-2.14,5.67-8.79,8.73-14.47,11.78A85.45,85.45,0,0,0,282,384.91c-1.74,1.41-3.59,3.46-2.82,5.34.57,1.36,2.28,1.9,3.81,2.3L304,398c1.5.39,3.18.93,3.67,2.28.59,1.61-.84,3.35-2.21,4.64a76.59,76.59,0,0,1-13.14,9.91,14,14,0,0,1-6,2.32c-10.57.69-12.46-15.15-22.38-15.67C252.69,400.89,254.67,419.42,250.31,425.61Z"/><path class="cls-12" d="M249,422.2c-4.73,6.72-16.06,7.52-22.19,2.66s-7.44-13.57-5.12-21.16,7.68-14.26,13.36-20.36a189.5,189.5,0,0,1,32.66-27.84c5.92-4,12.24-7.74,19.22-9.43,5.56-1.36,11.66-1.27,16.32,1.36s7.41,8.17,5.51,13.2c-2.14,5.66-8.79,8.72-14.48,11.78a86.44,86.44,0,0,0-13.61,9.08c-1.74,1.42-3.59,3.47-2.82,5.34.56,1.37,2.27,1.91,3.81,2.3l21.05,5.47c1.5.38,3.18.93,3.67,2.28.58,1.61-.85,3.35-2.22,4.64a75.65,75.65,0,0,1-13.14,9.9,13.9,13.9,0,0,1-6,2.32c-10.57.7-12.46-15.14-22.39-15.67C251.35,397.48,253.34,416,249,422.2Z"/><path class="cls-13" d="M229.25,401.43a47.41,47.41,0,0,1,4.75-7.57c6.91-9.62,14.27-19.64,25.1-25.39a2.71,2.71,0,0,1,2.08-.45c1.55.55.32,2.77-1,3.86-6.4,5.28-12.62,10.95-16.94,17.75s-6.56,14.92-4.49,22.14c1.55,5.39.14,15.78-7.67,9.89C225.74,417.62,226.77,406.82,229.25,401.43Z"/><path class="cls-11" d="M376.62,301.73c-9.3,1-20.45-6.6-22.66-14.27s2.91-14.42,10.58-17.8,17.51-4,27.24-3.91a276.07,276.07,0,0,1,50.68,5.06c8.44,1.63,17.05,3.71,24.79,7.61,6.18,3.13,11.81,7.59,14.26,12.71s1,10.8-4.44,12.78c-6.11,2.23-14.54-.55-22.06-2.62a131.08,131.08,0,0,0-19.3-3.79c-2.65-.31-5.87-.29-6.51,1.52-.46,1.32.74,2.91,1.89,4.29l15.69,18.86c1.12,1.34,2.29,2.91,1.77,4.17-.62,1.49-3.22,1.62-5.44,1.49a113.58,113.58,0,0,1-19.45-2.9,21.74,21.74,0,0,1-7.32-2.82c-10.37-7.18-.64-19.1-9.52-26.62C396.77,287,385.19,300.76,376.62,301.73Z"/><path class="cls-12" d="M377.85,298.49c-9.3,1.05-20.45-6.6-22.65-14.27s2.9-14.42,10.57-17.8,17.51-3.95,27.24-3.91a275.22,275.22,0,0,1,50.68,5.07c8.44,1.62,17.05,3.7,24.79,7.61,6.18,3.12,11.82,7.58,14.26,12.7s1,10.8-4.44,12.78c-6.11,2.23-14.54-.54-22.06-2.62a131.08,131.08,0,0,0-19.3-3.79c-2.65-.31-5.87-.28-6.51,1.52-.46,1.32.75,2.91,1.89,4.29L448,318.93c1.12,1.34,2.29,2.91,1.77,4.17-.62,1.49-3.22,1.62-5.44,1.49a113.58,113.58,0,0,1-19.45-2.9,21.82,21.82,0,0,1-7.32-2.82c-10.37-7.18-.64-19.1-9.52-26.62C398,283.74,386.42,297.52,377.85,298.49Z"/><path class="cls-13" d="M374.5,270.4a58.81,58.81,0,0,1,9.93-1.62C397.86,267.37,412,266,426.28,270a4.16,4.16,0,0,1,2.27,1.21c1.05,1.49-1.71,2.07-3.73,1.85-9.81-1.11-19.73-1.83-28.69-.42s-17,5.19-20.26,11.5c-2.47,4.71-11.32,10.62-14.33,1.05C359.48,278.65,368.28,272.19,374.5,270.4Z"/><path class="cls-14" d="M208.61,14.48c6.53,18,19.15,35.4,28,52.34Q250.79,94,264.41,121.49q27.24,55,52.2,111.17,6.24,14,12.33,28.15c3.58,8.29,11.08,17.84-.06,21.55-13.83,4.61-23.59-3.49-28.65-15.53-16-37.91-28.34-78-42.39-116.69Z"/><path class="cls-10" d="M9.92,103.78c23.21,11.59,51.37,16.92,75.67,25.33q39,13.48,77.72,27.8,77.51,28.62,154.09,60.56,19.14,8,38.22,16.16c11.21,4.81,27.18,7.21,20.61,21.22-8.17,17.39-24.81,18.52-41,11.42C284.4,243.89,234.73,216.1,184.8,191.15Z"/><path class="cls-15" d="M132.72,28.64c10.71,16.57,27.61,31.27,40.49,46.3Q193.86,99.06,214,123.6q40.28,49.1,78.45,99.86,9.54,12.67,19,25.47c5.52,7.51,15.39,15.46,4.62,21.48-13.37,7.48-25.27,1.44-33.16-9.5-24.82-34.43-46.42-71.74-69.46-107.4Z"/><path class="cls-11" d="M227.3,373.37c-9.67,7.16-24.94,1.83-30.5-8.83S194,340.32,201,330.49s17.38-16.56,28-22.26a248.42,248.42,0,0,1,57.14-22.15c9.83-2.46,20.05-4.33,30.07-2.82,8,1.21,16,4.84,20.73,11.38s5.53,16.27.45,22.58c-5.71,7.09-16,7.76-25,9a110.54,110.54,0,0,0-22.53,5.53c-3,1.08-6.49,3-6.44,6.23,0,2.33,2,4.1,3.82,5.57L312,363.67c1.76,1.43,3.69,3.19,3.64,5.46-.06,2.7-2.83,4.44-5.29,5.55a98.7,98.7,0,0,1-22.33,7c-3,.56-6.21,1-9.11-.06-14.23-5.05-8.58-29.42-21.34-35.9C243.1,338.4,236.2,366.78,227.3,373.37Z"/><path class="cls-12" d="M227.3,367.59c-9.67,7.16-24.94,1.83-30.5-8.84s-2.79-24.22,4.15-34,17.38-16.56,28-22.26a248,248,0,0,1,57.14-22.15c9.83-2.47,20.05-4.33,30.07-2.82,8,1.2,16,4.83,20.73,11.38s5.53,16.27.45,22.57c-5.71,7.1-16,7.77-25,9A110.54,110.54,0,0,0,289.74,326c-3,1.08-6.49,3-6.44,6.22,0,2.33,2,4.11,3.82,5.58L312,357.88c1.76,1.43,3.69,3.2,3.64,5.47-.06,2.7-2.83,4.43-5.29,5.54a97.7,97.7,0,0,1-22.33,7c-3,.57-6.21,1-9.11,0-14.23-5.05-8.58-29.43-21.34-35.91C243.1,332.62,236.2,361,227.3,367.59Z"/><path class="cls-13" d="M212.07,325.73a68,68,0,0,1,10.12-8.4c14-10.17,28.8-20.67,46-22.9a3.55,3.55,0,0,1,3,.54c1.75,1.69-1,4.25-3.29,5.09-11.11,4.1-22.19,8.85-31.34,16.37s-16.27,18.15-17.26,29.95c-.73,8.81-7.92,23.29-15.13,10.13C199.16,347.51,206.05,332.23,212.07,325.73Z"/><path class="cls-16" d="M470.59,441.11c-16,0-31.16-2.3-42.6-6.48-12.65-4.63-19.62-11.26-19.62-18.69s7-14.07,19.62-18.69c11.44-4.18,26.57-6.48,42.6-6.48s31.16,2.3,42.6,6.48c12.65,4.62,19.62,11.26,19.62,18.69s-7,14.06-19.62,18.69C501.75,438.81,486.62,441.11,470.59,441.11Zm0-42.68c-33.8,0-54.56,10.2-54.56,17.51s20.76,17.51,54.56,17.51,54.55-10.2,54.55-17.51S504.39,398.43,470.59,398.43Z"/><path class="cls-17" d="M470.59,435.32c-16,0-31.16-2.31-42.6-6.49-12.65-4.62-19.62-11.26-19.62-18.69s7-14.06,19.62-18.68c11.44-4.19,26.57-6.49,42.6-6.49s31.16,2.3,42.6,6.49c12.65,4.62,19.62,11.26,19.62,18.68s-7,14.07-19.62,18.69C501.75,433,486.62,435.32,470.59,435.32Zm0-42.69c-33.8,0-54.56,10.2-54.56,17.51s20.76,17.52,54.56,17.52,54.55-10.2,54.55-17.52S504.39,392.63,470.59,392.63Z"/><path class="cls-16" d="M518.29,428.45c-15.42-4.37-29.36-10.7-39.22-17.84-10.92-7.89-15.82-16.17-13.79-23.32s10.53-11.64,24-12.64c12.14-.91,27.33,1,42.76,5.35s29.36,10.7,39.22,17.84C582.14,405.73,587,414,585,421.16s-10.53,11.64-24,12.64C548.91,434.71,533.72,432.81,518.29,428.45Zm11.62-41.07c-32.52-9.2-55.27-5-57.26,2s15.2,22.5,47.73,31.7,55.27,5,57.26-2S562.44,396.58,529.91,387.38Z"/><path class="cls-18" d="M519.87,422.87c-15.43-4.36-29.36-10.7-39.23-17.83-10.91-7.89-15.81-16.18-13.79-23.32s10.54-11.64,24-12.65c12.14-.91,27.33,1,42.75,5.36s29.36,10.7,39.23,17.83c10.92,7.9,15.81,16.18,13.79,23.33s-10.53,11.63-24,12.64C550.48,429.14,535.3,427.24,519.87,422.87Zm11.62-41.07c-32.53-9.2-55.27-5-57.26,2s15.2,22.5,47.73,31.7,55.27,5,57.26-2S564,391,531.49,381.8Z"/><path class="cls-16" d="M498.32,459.89c-13.06.52-25.45-.86-34.9-3.9-10.45-3.35-16.34-8.53-16.58-14.58s5.22-11.68,15.37-15.85c9.18-3.78,21.42-6.14,34.48-6.66s25.45.86,34.9,3.9c10.45,3.35,16.33,8.53,16.58,14.58S543,449.06,532.8,453.23C523.62,457,511.37,459.37,498.32,459.89Zm-1.38-34.75c-27.53,1.09-44.1,10.07-43.86,16s17.47,13.59,45,12.49,44.09-10.07,43.86-16S524.46,424,496.94,425.14Z"/><path class="cls-18" d="M498.13,455.17c-13.05.52-25.45-.86-34.9-3.89-10.45-3.36-16.33-8.54-16.57-14.59S451.87,425,462,420.84c9.18-3.77,21.43-6.14,34.48-6.66s25.45.87,34.9,3.9c10.45,3.35,16.34,8.53,16.58,14.58s-5.22,11.68-15.37,15.85C523.43,452.29,511.19,454.65,498.13,455.17Zm-1.38-34.75c-27.52,1.1-44.09,10.07-43.86,16s17.47,13.58,45,12.49,44.1-10.08,43.86-16S524.27,419.32,496.75,420.42Z"/><path class="cls-16" d="M645.23,427.08c-13.05.52-25.45-.87-34.9-3.9-10.45-3.35-16.33-8.53-16.57-14.58s5.21-11.68,15.36-15.85c9.18-3.78,21.43-6.14,34.48-6.66s25.45.86,34.9,3.9c10.45,3.35,16.34,8.53,16.58,14.58s-5.22,11.68-15.37,15.85C670.53,424.2,658.29,426.56,645.23,427.08Zm-1.38-34.75c-27.52,1.09-44.09,10.07-43.86,16s17.47,13.59,45,12.49,44.1-10.07,43.86-16S671.37,391.23,643.85,392.33Z"/><path class="cls-18" d="M645.05,422.36c-13.06.52-25.45-.86-34.9-3.9-10.45-3.35-16.34-8.53-16.58-14.58s5.21-11.68,15.37-15.85c9.17-3.78,21.42-6.14,34.47-6.66s25.45.87,34.9,3.9c10.45,3.35,16.34,8.53,16.58,14.58s-5.22,11.68-15.37,15.85C670.34,419.48,658.1,421.84,645.05,422.36Zm-1.39-34.75c-27.52,1.09-44.09,10.07-43.85,16s17.46,13.59,45,12.49,44.09-10.07,43.85-16S671.18,386.51,643.66,387.61Z"/><path class="cls-16" d="M603.23,446.17c-13.06.52-25.45-.87-34.9-3.9-10.45-3.36-16.34-8.53-16.58-14.58S557,416,567.12,411.84c9.18-3.78,21.42-6.15,34.47-6.66s25.45.86,34.9,3.89c10.45,3.36,16.34,8.54,16.58,14.59s-5.22,11.67-15.37,15.85C628.53,443.28,616.28,445.65,603.23,446.17Zm-1.39-34.76c-27.52,1.1-44.09,10.08-43.85,16s17.46,13.59,45,12.49,44.09-10.07,43.85-16S629.37,410.32,601.84,411.41Z"/><path class="cls-17" d="M603,441.45c-13.06.52-25.45-.86-34.9-3.9C557.69,434.2,551.8,429,551.56,423s5.22-11.68,15.37-15.85c9.18-3.78,21.42-6.14,34.48-6.66s25.45.86,34.89,3.9c10.46,3.35,16.34,8.53,16.58,14.58s-5.21,11.68-15.36,15.85C628.34,438.57,616.09,440.93,603,441.45Zm-1.38-34.75c-27.53,1.09-44.1,10.07-43.86,16s17.47,13.59,45,12.49,44.09-10.07,43.86-16S629.18,405.6,601.66,406.7Z"/></svg>