<svg id="Layer_1" data-name="Layer 1" xmlns="http://www.w3.org/2000/svg" xmlns:xlink="http://www.w3.org/1999/xlink" viewBox="0 0 805 733"><defs><style>.cls-1{fill:url(#linear-gradient);}.cls-2{fill:url(#linear-gradient-2);}.cls-3{fill:url(#linear-gradient-3);}.cls-4,.cls-6,.cls-7{fill:#fff;}.cls-14,.cls-4,.cls-8{opacity:0.2;}.cls-5{opacity:0.1;}.cls-10,.cls-6{opacity:0.3;}.cls-9{fill:#008d00;}.cls-11{fill:#f70001;}.cls-12,.cls-13{fill:#ff9e00;}.cls-13{opacity:0.4;}.cls-14{fill:#fff6ee;}</style><linearGradient id="linear-gradient" x1="207.07" y1="527.12" x2="479.88" y2="333.52" gradientUnits="userSpaceOnUse"><stop offset="0" stop-color="#ff7600"/><stop offset="0.1" stop-color="#f76d00"/><stop offset="0.7" stop-color="#ca3c00"/><stop offset="1" stop-color="#b82900"/></linearGradient><linearGradient id="linear-gradient-2" x1="232.8" y1="235.34" x2="709.99" y2="446.55" xlink:href="#linear-gradient"/><linearGradient id="linear-gradient-3" x1="193.37" y1="317.43" x2="799.61" y2="293.96" gradientUnits="userSpaceOnUse"><stop offset="0" stop-color="#ffe7bc"/><stop offset="0.61" stop-color="#ffad8a"/><stop offset="0.99" stop-color="#ff8769"/></linearGradient></defs><title>Food</title><path class="cls-1" d="M56.94,309.77a176.52,176.52,0,0,0-2.58,28.8C53.88,474.49,159,586,405.31,586,669.46,586,757.5,477.05,758,341.08a174.39,174.39,0,0,0-2.84-31.31Z"/><path class="cls-2" d="M755.16,311.45C755.16,414,598.29,497,404.77,497S54.36,413.94,54.36,311.45,211.24,125.89,404.77,125.89,755.16,209,755.16,311.45Z"/><path class="cls-3" d="M734.11,309.2c0,90.28-146.92,163.46-328.18,163.46S77.74,399.48,77.74,309.2,224.67,145.73,405.93,145.73,734.11,218.92,734.11,309.2Z"/><path class="cls-4" d="M128.43,441.64C207.2,485.3,217.1,486,231.71,492.15c31,13,27.12,15.58,22.76,50.53-2.43,19.56-36.21,10.26-81.63-15.62-42.2-24-63-47.58-70.41-63.54C88.31,433.2,112.33,432.71,128.43,441.64Z"/><path class="cls-5" d="M133.1,428.66s122.59,92.85,323,84.7c192.73-7.81,192.55,11.22,189,24.69,0,0,131.71-59.88,110.07-226.6,0,0,11.51,78.16-118.92,139.29S279.6,519.21,133.1,428.66Z"/><path class="cls-6" d="M125.08,448.07c42.44,25.8,47.89,26.41,55.8,30.1,16.8,7.86,14.58,9.2,11.31,28.38-1.84,10.75-20.26,4.89-44.71-10.37-22.7-14.16-33.59-27.61-37.3-36.59C103.14,442.56,116.42,442.81,125.08,448.07Z"/><path class="cls-7" d="M160.46,429.32c-3.48,7.77-16.84-1.1-32-11S102.82,394,105.36,390.16s15,7.18,30.11,17.12S163.67,422.1,160.46,429.32Z"/><path class="cls-7" d="M194.34,446.43a7.55,7.55,0,0,1-10,3.71l-8.53-3.95a7.53,7.53,0,0,1-3.7-10h0a7.57,7.57,0,0,1,10-3.72l8.54,4a7.56,7.56,0,0,1,3.69,10Z"/><path class="cls-8" d="M212.72,441.3S5.1,321.72,171.38,221.12c182.8-110.59,461.29-33.07,516.5,4.41,0,0-109.67-102.09-357.45-75.42S-33.19,343.82,212.72,441.3Z"/><path class="cls-7" d="M455.07,432.43c-147,0-266.25-60.14-266.25-134.37,0-41.28,36.94-78.21,95-102.84-88.4,21.84-149.29,67.67-149.29,120.69,0,74.23,119.2,134.37,266.25,134.37,65.21,0,124.93-11.85,171.22-31.49C536.72,427.52,497,432.43,455.07,432.43Z"/><path class="cls-7" d="M428.34,186.9c117.15,2.33,211.31,45.94,210.29,97.44-.57,28.65-30.52,53.7-77.14,69.86,70.74-13.76,119.89-44.59,120.62-81.38,1-51.49-93.12-95.13-210.29-97.44-51.95-1-125.13,2.65-162.29,15.55C337.78,185.42,394.9,186.21,428.34,186.9Z"/><path class="cls-8" d="M597.23,271.65c-2.26,21.49-50.42,34-107.58,28.05S388,271.4,390.25,249.92s50.41-34,107.57-28.06S599.49,250.15,597.23,271.65Z"/><path class="cls-8" d="M510.44,358.69c-2.81,26.75-53.77,43.34-113.83,37S290.16,362.59,293,335.85s53.76-43.33,113.84-37S513.25,331.94,510.44,358.69Z"/><path class="cls-8" d="M390.15,255.64c.22,18.29-32.86,33.5-73.88,34s-74.44-13.93-74.66-32.2,32.85-33.49,73.87-34S389.93,237.37,390.15,255.64Z"/><path class="cls-9" d="M537.28,183s-3.34-23.57,37-30.6c0,0-8.14,22.89-11.13,26.64s14.14-4.19,37.81,4.16c0,0-18.12,16.87-26.68,17.91,0,0,3,9.27,26.68,12,0,0-27.8,28.38-50.84-.44S534.8,193.47,537.28,183Z"/><path class="cls-10" d="M540.07,180.26s18.47-11.13,23-16.4-11.52,20.56-8,21.51,28,3.51,34.74,0S577.67,203,563.1,198.63s14.14,21.42,22.7,18.64S540.67,239.38,540.07,180.26Z"/><path class="cls-11" d="M563.1,232.79c0,29.17-25.49,44-72.21,44s-103.48-6.27-103.48-35.44,56.77-81.9,103.48-81.9S563.1,203.59,563.1,232.79Z"/><path class="cls-12" d="M478,176.93c1.16,2.16-1.45,5.37-5.84,7.2s-8.89,1.58-10.05-.55,1.47-5.35,5.85-7.19S476.85,174.8,478,176.93Z"/><path class="cls-12" d="M470.92,207.42c1.05,2-1.37,4.88-5.4,6.52s-8.13,1.39-9.18-.58,1.38-4.86,5.39-6.51S469.87,205.48,470.92,207.42Z"/><path class="cls-12" d="M421.83,218.91c1.05,2-1.37,4.87-5.39,6.52s-8.13,1.39-9.18-.56,1.38-4.87,5.41-6.51S420.8,217,421.83,218.91Z"/><path class="cls-12" d="M474.07,235.25c1,1.95-1.37,4.87-5.4,6.52s-8.13,1.41-9.19-.56,1.38-4.89,5.4-6.53S473,233.3,474.07,235.25Z"/><path class="cls-12" d="M518.08,212.44c1,2-1.39,4.87-5.43,6.52s-8.12,1.42-9.17-.56,1.38-4.88,5.4-6.53S517,210.49,518.08,212.44Z"/><path class="cls-12" d="M444,193.51c1,2-1.39,4.87-5.39,6.53s-8.13,1.39-9.18-.57,1.36-4.87,5.39-6.52S443,191.53,444,193.51Z"/><path class="cls-12" d="M434.13,249c.43,2.14-2.79,4.4-7.18,5.12s-8.28-.5-8.71-2.64,2.81-4.42,7.19-5.11S433.72,246.82,434.13,249Z"/><path class="cls-12" d="M515.56,249.86c1,1.95-1.38,4.89-5.41,6.52s-8.12,1.41-9.17-.56,1.37-4.87,5.39-6.52S514.5,247.89,515.56,249.86Z"/><path class="cls-12" d="M474.69,259.91c.76,2-2.05,4.69-6.27,5.9s-8.27.51-9-1.54,2-4.68,6.25-5.9S473.93,257.85,474.69,259.91Z"/><path class="cls-12" d="M547.06,222.83c1.42.65.91,4-1.15,7.44s-4.87,5.74-6.28,5.11-.9-3.95,1.15-7.42S545.64,222.19,547.06,222.83Z"/><path class="cls-8" d="M496.16,167s57.42,31.43,21.93,65.77S396.5,250,395,236.06,375.85,260,420.9,269.8s137.28,17.49,141.78-30.93S514,163.4,496.16,167Z"/><path class="cls-13" d="M516.74,207.36c1.7,16-12.93,25.32-41.32,27.62s-63.22,1.66-64.9-14.29,29.72-47.58,58.1-49.88S515.06,191.42,516.74,207.36Z"/><path class="cls-14" d="M488.34,197.3c1,9.52-7.74,15.13-24.68,16.51s-37.79,1-38.8-8.55,17.78-28.44,34.74-29.81S487.33,187.75,488.34,197.3Z"/><path class="cls-9" d="M447,304s2.77-23.64,43.52-20.22c0,0-13.7,20.09-17.53,22.94s14.75-.45,35.52,13.66c0,0-21.84,11.69-30.38,10.52,0,0,.57,9.75,22.75,18.43,0,0-34.1,20.35-49.06-13.37S441.9,313.46,447,304Z"/><path class="cls-10" d="M450.35,302s20.7-6.08,26.47-10-16.39,17-13.23,18.78,26.2,10.52,33.6,8.83-16.26,14-29.23,6,8.23,24.32,17.22,23.8S435.89,359.35,450.35,302Z"/><path class="cls-11" d="M459.27,358.67c-7.41,28.22-35.83,36.08-81,24.18s-98.5-32.38-91.09-60.61,75.75-64.76,120.93-52.88S466.7,330.44,459.27,358.67Z"/><path class="cls-12" d="M391.19,283c.57,2.38-2.78,4.82-7.5,5.48s-9-.71-9.58-3.08,2.78-4.81,7.5-5.48S390.61,280.65,391.19,283Z"/><path class="cls-12" d="M376.57,310.68c.51,2.16-2.57,4.38-6.89,4.95s-8.22-.71-8.73-2.88,2.57-4.36,6.87-4.93S376.05,308.54,376.57,310.68Z"/><path class="cls-12" d="M326.18,309.34c.51,2.16-2.57,4.35-6.88,4.92s-8.21-.72-8.73-2.86,2.57-4.38,6.88-4.93S325.67,307.17,326.18,309.34Z"/><path class="cls-12" d="M372.54,338.41c.52,2.15-2.57,4.36-6.87,4.94s-8.24-.73-8.74-2.88,2.56-4.36,6.88-4.93S372,336.25,372.54,338.41Z"/><path class="cls-12" d="M420.9,327.54c.51,2.16-2.58,4.37-6.9,4.93s-8.21-.7-8.73-2.87,2.57-4.37,6.88-4.93S420.37,325.39,420.9,327.54Z"/><path class="cls-12" d="M354.11,290.39c.52,2.18-2.56,4.38-6.87,5s-8.23-.73-8.73-2.88,2.56-4.36,6.87-4.94S353.59,288.23,354.11,290.39Z"/><path class="cls-12" d="M330.43,341.52c-.14,2.18-3.83,3.54-8.25,3.12s-7.88-2.6-7.74-4.76,3.82-3.57,8.24-3.12S330.58,339.35,330.43,341.52Z"/><path class="cls-12" d="M409,363.09c.52,2.16-2.57,4.36-6.88,4.94s-8.22-.72-8.72-2.86,2.55-4.39,6.86-4.94S408.43,360.93,409,363.09Z"/><path class="cls-12" d="M366.86,362.42c.22,2.18-3.17,4-7.56,4.11s-8.12-1.59-8.34-3.79,3.17-4,7.57-4.1S366.65,360.25,366.86,362.42Z"/><path class="cls-12" d="M446.29,345c1.21,1-.14,4-3,6.86s-6.18,4.33-7.38,3.37.13-4.05,3-6.89S445.08,344,446.29,345Z"/><path class="cls-8" d="M411.28,278s47.53,45,4.47,69.19-122-14.21-119.93-28.12-24.56,18.25,16.52,39.23,128.32,51.83,145,6.15S429.45,279.09,411.28,278Z"/><path class="cls-13" d="M420.9,322.3c-2.43,15.86-18.92,21.19-47,16.19S312.36,324,314.78,308.17s40.84-38.45,68.88-33.47S423.34,306.44,420.9,322.3Z"/><path class="cls-14" d="M396,305.34c-1.45,9.48-11.32,12.66-28.08,9.68s-36.77-8.65-35.33-18.12,24.41-23,41.18-20S397.44,295.84,396,305.34Z"/><path class="cls-9" d="M253.51,200.89s1.16-19.43-32.12-22.5c0,0,8.14,18.1,10.81,21s-11.8-2.46-30.53,5.89c0,0,15.88,12.55,22.92,12.83,0,0-1.85,7.76-21,11.55,0,0,24.52,21.27,41.4-3.7S256.2,209.26,253.51,200.89Z"/><path class="cls-10" d="M251,198.83S235.26,191,231.21,187s10.74,16,7.93,17-22.57,4.71-28.31,2.28,11.08,13.59,22.66,9-10.1,18.38-17.27,16.67S254.45,247,251,198.83Z"/><path class="cls-11" d="M235.74,243.12c1.92,23.77,23.66,34.17,61.71,31.08s83.89-11.91,82-35.67-51.62-63-89.69-59.91S233.82,219.35,235.74,243.12Z"/><path class="cls-12" d="M301.38,192c-.79,1.83,1.54,4.27,5.24,5.47s7.34.72,8.13-1.09-1.53-4.28-5.22-5.48S302.19,190.23,301.38,192Z"/><path class="cls-12" d="M309.16,216.39c-.72,1.67,1.44,3.89,4.83,5s6.73.61,7.44-1.06-1.44-3.88-4.82-5S309.89,214.74,309.16,216.39Z"/><path class="cls-12" d="M349.89,222.53c-.71,1.68,1.45,3.88,4.83,4.95s6.72.6,7.43-1-1.43-3.87-4.81-5S350.62,220.87,349.89,222.53Z"/><path class="cls-12" d="M308.43,239.28c-.73,1.65,1.43,3.87,4.82,5s6.71.6,7.43-1.06-1.44-3.9-4.8-5S309.16,237.61,308.43,239.28Z"/><path class="cls-12" d="M271.08,223.59c-.73,1.65,1.45,3.88,4.83,4.94s6.71.62,7.44-1.05-1.44-3.88-4.82-4.95S271.82,221.94,271.08,223.59Z"/><path class="cls-12" d="M330.14,203.31c-.73,1.66,1.44,3.86,4.82,4.94s6.72.61,7.44-1-1.44-3.88-4.82-5S330.86,201.64,330.14,203.31Z"/><path class="cls-12" d="M341.86,247.82c-.21,1.78,2.57,3.39,6.18,3.69s6.71-1,6.92-2.72-2.57-3.42-6.2-3.68S342.05,246,341.86,247.82Z"/><path class="cls-12" d="M275.59,253.92c-.72,1.64,1.44,3.88,4.83,5s6.71.59,7.43-1.06-1.43-3.89-4.82-5S276.32,252.24,275.59,253.92Z"/><path class="cls-12" d="M309.54,259.4c-.49,1.73,2,3.69,5.5,4.41s6.76-.13,7.26-1.86-2-3.69-5.5-4.39S310,257.69,309.54,259.4Z"/><path class="cls-12" d="M248.15,234c-1.12.62-.47,3.27,1.43,6s4.34,4.38,5.45,3.77.47-3.3-1.42-6S249.27,233.34,248.15,234Z"/><path class="cls-8" d="M285.93,185.13s-44.69,29.36-13.53,55,100.19,6.06,100.52-5.42S390.07,253,354,263.93s-110.69,23.25-117.53-15.86S271.16,183.37,285.93,185.13Z"/><path class="cls-13" d="M271.83,219.37c-.32,13.11,12.19,19.76,35.48,19.77s51.6-2.81,51.93-15.92-27.34-36.8-50.62-36.8S272.15,206.26,271.83,219.37Z"/><path class="cls-14" d="M294.3,209.3c-.18,7.83,7.29,11.82,21.2,11.82s30.82-1.69,31-9.51-16.34-22-30.26-22S294.5,201.45,294.3,209.3Z"/></svg>