<svg id="Layer_1" data-name="Layer 1" xmlns="http://www.w3.org/2000/svg" viewBox="0 0 565 733"><defs><style>.cls-1{fill:#fbca69;}.cls-2{fill:#323942;}.cls-3{fill:#e48282;}.cls-4{fill:#fdae9b;}.cls-5{fill:#ffc3b3;}.cls-6{fill:none;stroke:#fff;stroke-miterlimit:10;}</style></defs><title>Food</title><path class="cls-1" d="M163.46,117.62s-30.11,102.26-11.74,112.46,21.52,0,21.52,0L198.3,126.16Z"/><path class="cls-1" d="M440.47,221.09S455.14,97.68,424.94,98.45,384,227.23,440.47,221.09Z"/><path class="cls-2" d="M44.48,695S92.41,459.83,298.63,459.83,531.76,695,531.76,695Z"/><circle class="cls-3" cx="149.01" cy="252.45" r="38.26"/><circle class="cls-3" cx="433.12" cy="252.45" r="38.26"/><path class="cls-4" d="M340.47,391.35l-6.46-85-66.37,9.1L256.8,439.71C278.7,437.08,314.37,427,340.47,391.35Z"/><path class="cls-5" d="M159.74,216c-1.24,20.34-.33,26.45,1.91,46.72,4.45,40.14,23.64,75.09,60.07,94.52s86.31,26.4,125.19,10.39c30.13-12.4,53.4-34.51,65.31-64.3,13.58-34,13.73-77.38,11.9-114C417.33,53.51,306.73,55.52,306.73,55.52S159.18,44.15,159.74,216Z"/><path class="cls-5" d="M256.8,439.71,252,494.39s1.95,27.33,46.19,32.53,49.45-41,49.45-41l-7.2-94.58C314.37,427,278.7,437.08,256.8,439.71Z"/><ellipse class="cls-2" cx="231.25" cy="243.35" rx="6.79" ry="13.58"/><ellipse class="cls-2" cx="356.95" cy="245.65" rx="6.79" ry="13.58"/><path class="cls-2" d="M293.15,252.45a66.42,66.42,0,0,0-8.46,4.06,26,26,0,0,0-3.78,2.67,9.69,9.69,0,0,0-1.53,1.68,4.14,4.14,0,0,0-.8,2c-.15,1.42.84,2.7,2,3.64a9.48,9.48,0,0,0,4,2.11,8.17,8.17,0,0,0,4.51-.3,12.2,12.2,0,0,0,4-2.27,11.64,11.64,0,0,1-3.92,2.62,8.65,8.65,0,0,1-4.75.52,9.42,9.42,0,0,1-4.31-2.16c-.3-.27-.61-.52-.9-.8a5.69,5.69,0,0,1-.78-1,3.91,3.91,0,0,1-.66-2.46,4.91,4.91,0,0,1,1-2.32,9.69,9.69,0,0,1,1.66-1.78,21.7,21.7,0,0,1,4-2.66A46.6,46.6,0,0,1,293.15,252.45Z"/><path class="cls-2" d="M274.28,284.3a37.1,37.1,0,0,0,4.19,3.33,36.53,36.53,0,0,0,4.59,2.7,24.84,24.84,0,0,0,10.13,2.78,20,20,0,0,0,5.24-.43,23.17,23.17,0,0,0,4.95-1.82,32,32,0,0,0,8.35-6.56,27.66,27.66,0,0,1-8.08,7.06,20.32,20.32,0,0,1-5.07,2,20.57,20.57,0,0,1-5.42.52,24.69,24.69,0,0,1-10.36-3A32.67,32.67,0,0,1,274.28,284.3Z"/><circle class="cls-3" cx="210.16" cy="293.52" r="14.29"/><circle class="cls-3" cx="371.24" cy="293.52" r="14.29"/><circle class="cls-6" cx="207.25" cy="236.62" r="52.7"/><circle class="cls-6" cx="376.87" cy="236.62" r="52.7"/><path class="cls-6" d="M259.17,233.89s38.32-30.54,65,2.73"/><path class="cls-1" d="M415.41,139a306.51,306.51,0,0,0,1.77-31.34c.16-15.55.23-32.26-4.29-47.28C406,37.38,387.12,29.09,364.76,26.59c-21.3-2.38-43,.86-63.58,6.44A300.43,300.43,0,0,0,260,47.72c-59.88,26.07-109.4,24.76-114.38,7.64-5,26,8.47,37.69,24.41,39.69-25.47-1-33.88-16.44-33.88-16.44S131.62,130.46,177,128.7,334.89,86.58,361.29,105,387.42,151.37,415.41,139Z"/><path class="cls-1" d="M415.19,104c-1-.47,8.12-38.46,17.93-38.46s-9,28.85-9,28.85,14-17.75,21.36-13.32S427,109.52,415.19,104Z"/><path class="cls-1" d="M347.67,216a24.84,24.84,0,0,1,8.21-7,21,21,0,0,1,10.59-2.55,22.79,22.79,0,0,1,5.44.87,25.43,25.43,0,0,1,5,2.11,37.06,37.06,0,0,1,4.56,3l2.07,1.75c.66.62,1.31,1.25,2,1.88a45.48,45.48,0,0,0-8.93-5.91,24.9,24.9,0,0,0-10.16-2.66,21.87,21.87,0,0,0-10.22,2.23,25.49,25.49,0,0,0-4.55,2.77A26.61,26.61,0,0,0,347.67,216Z"/><path class="cls-1" d="M212.31,216a24.94,24.94,0,0,1,8.21-7,21,21,0,0,1,10.6-2.55,22.63,22.63,0,0,1,5.43.87,25.43,25.43,0,0,1,5,2.11,36.32,36.32,0,0,1,4.56,3l2.07,1.75c.66.62,1.31,1.25,2,1.88a45.19,45.19,0,0,0-8.93-5.91,24.86,24.86,0,0,0-10.16-2.66,21.87,21.87,0,0,0-10.22,2.23,25.85,25.85,0,0,0-4.55,2.77A27.1,27.1,0,0,0,212.31,216Z"/></svg>