<svg id="Layer_1" data-name="Layer 1" xmlns="http://www.w3.org/2000/svg" viewBox="0 0 805 733"><defs><style>.cls-1{fill:#36383a;}.cls-2{fill:#4b4e51;}.cls-3{fill:#e55d57;}.cls-4{fill:#f9caa7;}.cls-10,.cls-5{fill:#fff;}.cls-5{opacity:0.39;}.cls-6{fill:#d1a359;}.cls-7{fill:#e0b153;}.cls-8{fill:#f99180;}.cls-9{fill:#f4e9e1;}.cls-11{fill:#f2d12f;}.cls-12{fill:#7ecc52;}.cls-13{fill:#6eb748;}.cls-14{fill:#9fba74;}.cls-15{fill:#cbf495;}</style></defs><title>Food</title><path class="cls-1" d="M521.36,637.2s-13.23,45.51-118,45.23c-99.37-.26-118-45.23-118-45.23V565.5H521.36Z"/><path class="cls-2" d="M403.33,241.75H21.67S31,379.33,112.12,487.18C229.05,642.72,403.33,642.72,403.33,642.72s174.29,0,291.22-155.54C775.63,379.33,785,241.75,785,241.75Z"/><path class="cls-1" d="M722.79,241.75c-7.46,46.39-28.78,138.6-86.71,215.65C519.16,612.93,344.87,612.93,344.87,612.93s-56.63,0-127-28.81c94.55,58.59,185.45,58.6,185.45,58.6s174.29,0,291.22-155.54C775.63,379.33,785,241.75,785,241.75Z"/><ellipse class="cls-3" cx="403.33" cy="241.75" rx="381.67" ry="196.9"/><ellipse class="cls-4" cx="403.33" cy="305.73" rx="361.06" ry="132.92"/><path class="cls-5" d="M113,409.28c-.31,13,6.66,24.83,13.41,35.9,5.85,9.61,11.71,19.23,18.15,28.45A270,270,0,0,0,177,511.9c4.19,4.11,8.79,8.22,14.5,9.59s12.74-1,14.59-6.61c2-5.91-2.44-11.87-6.53-16.56-19.16-22-38.47-44.81-48.18-72.29-2.29-6.45-4.09-13.24-8.2-18.71C136.18,398,113.45,391.88,113,409.28Z"/><path class="cls-6" d="M454.25,437.53a7.17,7.17,0,0,1-2-.28,7,7,0,0,1-4.73-8.69c1.08-3.67-1.86-8.07-5.18-10.34-4.68-3.21-11-4.38-17.2-5.51l-31.76-5.86c-9.17.89-18.32,1.15-27.3,1.41l-47.5,1.37c-30,.87-61.08.07-82.83-19.6-10.45-9.45-18-25.26-11.4-39.29,2.19-4.61,5.82-8.74,11.12-12.61,20.09-14.68,45-14.53,69.11-14.39,5.26,0,10.7.06,15.87-.08a204.62,204.62,0,0,0,107.38-34.34c14-9.41,21.27-18.53,22.31-27.89s-4.35-18.62-10.06-25.38c-12.67.59-24.87,1.34-36.41,2.12-24.54,1.65-58.16,3.91-82-14.63-5.37-4.17-7.81-8.84-7.25-13.88.59-5.35,4.38-9.5,11.27-12.34,19.75-8.14,42.75-10,64.75-5.36,21.32,4.53,41,15.09,55.56,29.82,26.19-1.1,54.24-1.46,82.59,0,16.9.88,36.32,2.6,52.95,11.93,8.1,4.54,12,11.52,10,18.21-1.39,4.82-5.24,7.52-7.3,9-5.69,4-11.75,7.74-17.61,11.36-18,11.11-35,21.6-42.69,38.85-1.46,3.24-1.11,4.3-1.1,4.31s.33.56,2.2,1.53c13.47,7,30.12,1.58,38.85-2.26,14.26-6.26,27.54-16.09,40.39-25.6,18.87-14,38.39-28.42,62.38-33.06,15.81-3,34.54.76,40.71,16.17,3.22,8,2.08,17.61-3.4,28.47C689.71,329,662.42,345.8,642,354.94c-18.65,8.35-38.46,13.77-57.61,19-6.16,1.68-12.53,3.42-18.73,5.23-8.46,2.46-16.59,5.07-23,9.89-5,3.71-10.08,10.25-9.64,17.48a7,7,0,0,1-7.9,7.36c-6.94-.92-14.8-2-22-5.57-9-4.53-15-12.37-15.94-21-.69-6.38,1.44-12.13,3.11-15.9,7.7-17.47,22.09-29.6,38-38.51a41.94,41.94,0,0,1-9.65-3.57c-2.54-1.31-6.15-3.52-8.23-7.56-3.52-6.86-.29-14.07.78-16.44,9.49-21.16,29.12-33.29,48.1-45,5.69-3.51,11.58-7.15,16.94-10.9.73-.52,1.2-.88,1.51-1.15a11.43,11.43,0,0,0-3.05-2.37c-14-7.85-31.52-9.36-46.84-10.16-24.15-1.26-48.15-1.16-71-.4,4.87,7.85,8.33,17.3,7.18,27.61-1.53,13.7-10.82,26.11-28.41,37.95a218.78,218.78,0,0,1-114.81,36.72c-5.41.14-11,.11-16.33.08-22.84-.13-44.41-.26-60.77,11.7-3.37,2.46-5.57,4.85-6.73,7.3-3.39,7.16,1.53,16.95,8.14,22.92,17.9,16.19,45.89,16.78,73,16l34.5-1a23.77,23.77,0,0,1-9.07-13.52c-2.5-10.3,2.4-21.46,13.8-31.43,25.84-22.6,63.87-31.1,96.87-21.65,12.12,3.48,19.74,9.41,22.63,17.64,3.76,10.69-1.31,22.84-13.92,33.34a120.9,120.9,0,0,1-34.49,20.06c6.73,1.25,14.9,2.89,21.76,7.59,9,6.14,13.36,16.76,10.69,25.83A7,7,0,0,1,454.25,437.53ZM695.14,282.79a40.51,40.51,0,0,0-1.82,4.39c-1.19,3.19-2.53,6.81-5.05,9.92-5.57,6.86-14.54,8.23-20.47,9.14A562.36,562.36,0,0,0,565.35,332c-23.35,8.27-51.53,20.87-62.24,45.14-1.61,3.65-2.25,6.43-2,8.74.41,3.74,3.66,7.66,8.29,10A38.63,38.63,0,0,0,519.83,399c1.86-7.92,6.93-15.44,14.47-21.1,8.29-6.23,18.12-9.41,27.49-12.14,6.31-1.83,12.73-3.59,18.94-5.29,18.65-5.1,37.93-10.37,55.59-18.28,18.31-8.21,42.75-23.16,55.17-47.8C693.71,290,694.94,286.08,695.14,282.79ZM426.55,338.21c-21.73,0-43.62,7.77-59.92,22-3.39,3-11.1,10.63-9.41,17.59,1.39,5.74,8.68,9.74,22.26,12.24L394,392.73a134.79,134.79,0,0,0,17.2-2.89,106.61,106.61,0,0,0,42.9-21.57c6-5,11.66-12.3,9.67-17.94-1.62-4.61-8.12-7.34-13.28-8.82A86.75,86.75,0,0,0,426.55,338.21Zm250.12-69.15a39.37,39.37,0,0,0-7.35.71c-20.87,4-38.28,16.92-56.71,30.56l-5.76,4.26a574.87,574.87,0,0,1,58.83-12.18c5.23-.8,9.72-1.66,11.72-4.13a23.4,23.4,0,0,0,2.79-6c.51-1.37,1.07-2.87,1.76-4.39a7,7,0,0,1-1-4.06,7,7,0,0,1,1.79-4.27A33.24,33.24,0,0,0,676.67,269.06ZM328.88,211.3a13.8,13.8,0,0,0,1.35,1.19c19.68,15.28,49,13.3,72.52,11.72,7.42-.5,15.12-1,23-1.44-26.61-19.65-64.24-25.11-94.79-12.52A15.26,15.26,0,0,0,328.88,211.3Z"/><path class="cls-7" d="M340.88,374.84a183.23,183.23,0,0,1-20.81-1.18c-6.25-.72-13.51-2-19.91-5.31-20.23,2-41.47,1.23-62.34-.06-15.9-1-35.69-2.2-51.1-13.6C169.66,342.08,161.18,320,161.46,289c-12.79-.16-25.42,2.2-34.73,10.35A33.79,33.79,0,0,0,132,354a7,7,0,1,1-7,12.11,47.79,47.79,0,0,1-7.5-77.3c12.58-11,29.07-13.94,44.61-13.75.27-3,.64-6.18,1.18-9.34q-.84-.23-1.68-.42c-12.65-2.93-26.12-.9-39.29,1.48a8.18,8.18,0,0,1-9.34,3.13,7.61,7.61,0,0,1-5.36-7.82c.22-3.35,2.58-7.32,8.52-8.41,15-2.75,32-5.86,48.62-2q1,.22,1.95.48A53,53,0,0,1,177.25,234c10.23-11.27,25.92-17.61,46.63-18.85,12.54-.75,24.1.6,34.12,3.88a130.8,130.8,0,0,1,36.25,5.14,104.28,104.28,0,0,1,11.53-12.62c21.6-19.76,54.67-26.54,82.31-16.87,9.63,3.37,17.14,8.2,22.33,14.35,12.33,14.64,10.78,38.83-3.31,51.77a39.29,39.29,0,0,1-14.7,8.42A196,196,0,0,1,421.74,271l1-.53c26.46-13.4,61.63-7.12,81.81,14.61,5.59,6,9.91,12.82,14.09,19.4s8,12.6,12.88,17.76a60.63,60.63,0,0,0,17.34,12.55c3.64-1.54,7.23-3.14,10.76-4.75,16.76-7.67,34.05-16.61,47-29.91a53,53,0,0,0,10.9-16.2c-2.84.08-5.7.08-8.58,0-19.36-.89-35-9.16-41.82-22.14a46.79,46.79,0,0,1-3.91-11c-7.25,1.34-14.53,3-21.67,4.68-25.78,6-52.43,12.14-78.11,2.45-16.77-6.33-32.23-22.94-27.86-41.27,2.59-10.91,12.08-20,24.77-23.63,10.43-3,21.22-2.26,30.75-1.58,15.22,1.07,31,2.18,46,7.84,17.65,6.65,30.77,18.91,36,33.65.25.7.49,1.41.7,2.11,1.93-.22,3.87-.4,5.8-.54,24-1.74,43,6.33,50.85,21.58A34.13,34.13,0,0,1,634.15,269a117,117,0,0,1,18.13.17c17.14,1.73,30.2,10.07,34.94,22.33,3.84,9.9,1.81,22.15-5.28,32-6.69,9.26-16.51,15.05-23.31,18.59a142.64,142.64,0,0,1-80.19,15.16,112,112,0,0,1-29.78-7.2c-14.48,5.77-30.39,10.67-46.86,12-23.89,2-46.81-3.41-69.07-10.89A191.31,191.31,0,0,1,340.88,374.84Zm-4.73-14.06a176.94,176.94,0,0,0,78.46-16.12c-3.72-1.4-7.44-2.82-11.13-4.24-7.65-2.94-15.41-5.91-23.22-8.68a122.5,122.5,0,0,1-12.4,11.69A105.15,105.15,0,0,1,336.15,360.78ZM175.45,290c0,19.18,3.81,41.77,19.59,53.44,12.08,8.94,29.58,10,43.64,10.89,16.64,1,33,1.74,48.57,1a28.82,28.82,0,0,1-2-17.35c.12-.66.25-1.31.41-2-24.1-6-48.8-18.59-72.29-37.25a46.82,46.82,0,0,1-6.79-4c-5.93-.74-11.77-1.73-17.4-2.69l-5-.84C181.39,290.81,178.45,290.37,175.45,290Zm124,48.77c-.15.56-.27,1.12-.37,1.69-.57,3.19-.6,7.79,2.53,11.55a14.62,14.62,0,0,0,2,2c20.81-2.61,39.75-8.76,55.48-21.45,2.22-1.79,4.34-3.69,6.4-5.68l-1.34-.41C360,330.9,354,334.2,347.76,336A114.63,114.63,0,0,1,299.4,338.77Zm149,2.71c17.28,5.08,34.48,8.1,52.25,6.64a133.39,133.39,0,0,0,31.59-6.9,70.66,70.66,0,0,1-10.86-9.33c-5.81-6.14-10.25-13.13-14.54-19.88-4-6.33-7.8-12.3-12.52-17.38-11.38-12.25-28.73-18.34-45.37-17.08,13.63,5.43,21.95,14.08,23.72,24.91,1.44,8.75-1,22.19-20.78,36.55C450.73,339.85,449.57,340.67,448.4,341.48Zm119.93,0a111.92,111.92,0,0,0,11.6,1.87,128.51,128.51,0,0,0,72.24-13.66c8.8-4.59,14.66-9.15,18.43-14.37,4.28-5.93,5.68-13.28,3.57-18.73-3.29-8.52-14.19-12.54-23.3-13.46a114.13,114.13,0,0,0-18.21,0c-2.87,10.34-9.22,19.88-16,26.81C602.88,324.08,585.42,333.51,568.33,341.46Zm-178.2-21c6.19,2.26,12.31,4.61,18.36,6.93,7.68,2.95,15.26,5.86,22.78,8.53q6.38-3.83,12.4-8.19c7.73-5.61,16.64-14.15,15.19-23-1.66-10.13-16.23-14.94-22.42-16.54-4-1-8-1.89-12-2.58-11.7,7.31-20.83,18.42-30.43,30.09C392.74,317.27,391.44,318.84,390.13,320.42ZM308.2,325.8a97.81,97.81,0,0,0,35.7-3.27c.68-.2,1.36-.43,2-.68-15.79-3.12-27.27-2.21-36,2.81C309.35,325,308.77,325.39,308.2,325.8Zm-62.49-21.71c12.82,7.59,28.57,15,45.83,19A36.28,36.28,0,0,1,303,312.55c15.59-9,33.91-6.89,46.9-4.19-4.88-2.68-10.74-4-16.91-5.44-7.19-1.65-14.62-3.36-21.5-7.36-.69-.4-1.35-.81-2-1.24-16.33,3.15-33.18,6.38-49.81,8.49C255.06,303.38,250.4,303.87,245.71,304.09Zm123.62,9.31c2.23.68,4.44,1.38,6.66,2.1,2.41-2.82,4.8-5.73,7.23-8.69,6.63-8.06,13.39-16.29,21.22-23.41-22.32-1.13-45,1.79-68.27,5.9,7.68,1.77,15.62,3.61,22.82,8.23,5.22,3.35,8.5,7.44,9.76,12.18A18.11,18.11,0,0,1,369.33,313.4Zm-84.66-51.28C276.73,273,267.73,283,255.3,289.24l2.56-.32c12.93-1.63,26.14-4,39.14-6.46-4.3-5.63-7.74-11.92-11.11-18.1Zm-70.23,19.47c11.72,1,23.08.46,33.14-4.16,12.23-5.63,20.85-16.32,29.18-28.33a48.36,48.36,0,0,0-5.83-6.79,43.54,43.54,0,0,0-15.16-9.24,90.44,90.44,0,0,0-24.45,4c-13.84,4.35-28.4,15.23-27.67,28.87a19.31,19.31,0,0,0,3,9.24c2.14,1.75,4.26,3.51,6.36,5.26Zm79.08-32.25c1.61,2.75,3.14,5.55,4.65,8.31,4.51,8.26,8.82,16.15,14.83,21.73,17.79-3.42,35.81-6.75,53.87-8.62a66.12,66.12,0,0,1-9.65-2.28c-10.65-3.4-20.23-8.86-29.5-14.14-4-2.28-8.12-4.63-12.2-6.73a139.69,139.69,0,0,0-16-7C297.51,243.43,295.53,246.36,293.52,249.34ZM176.09,276c3.66.41,7.16.93,10.42,1.48l.33,0a99.17,99.17,0,0,0-10.21-6.42C176.41,272.75,176.24,274.39,176.09,276Zm401.09-27.22a30.53,30.53,0,0,0,2.38,6.48c6.64,12.64,24.7,14.43,30.07,14.67,3.47.16,7,.1,10.5-.07a20.07,20.07,0,0,0-2.09-7.38c-6.08-11.88-23.29-15-37.38-14Q578.92,248.6,577.18,248.78Zm-397.34,8.27a95.39,95.39,0,0,1,9.86,5.55c.93-13.42,10-24.34,21.63-31.64-8.64,1.94-17.51,5.62-23.71,12.46A39.22,39.22,0,0,0,179.84,257.05ZM308.38,229q6.84,2.72,13.54,6.17c4.35,2.23,8.61,4.66,12.73,7,9,5.15,17.57,10,26.83,13,11.16,3.56,26.53,4.21,36.16-4.64,8.68-8,9.67-23.43,2.08-32.44-3.55-4.21-9-7.63-16.26-10.16-22.91-8-50.33-2.4-68.24,14A85.11,85.11,0,0,0,308.38,229Zm169.55-24.16a49.28,49.28,0,0,0-13.66,1.64c-7.73,2.24-13.63,7.51-15,13.43-2.42,10.16,7.85,20.66,19.19,24.94,21.72,8.19,45.17,2.76,70-3,7-1.63,14.18-3.29,21.39-4.64-4-10.67-14-19.7-27.61-24.82-13.14-4.94-27.84-6-42.05-7C486.1,205.13,482,204.84,477.93,204.84ZM284.26,236l.76.9.42-.62Z"/><path class="cls-8" d="M403.33,56c50.73,0,99.91,5.12,146.18,15.22C594,81,633.9,94.83,668.08,112.47c33.69,17.38,60,37.47,78.27,59.73s27.46,45.62,27.46,69.55-9.24,47.32-27.46,69.54S701.77,353.65,668.08,371c-34.18,17.63-74.08,31.5-118.57,41.21-46.27,10.09-95.45,15.21-146.18,15.21s-99.9-5.12-146.17-15.21c-44.5-9.71-84.39-23.58-118.57-41.21-33.69-17.38-60-37.48-78.27-59.74s-27.46-45.62-27.46-69.54,9.24-47.33,27.46-69.55,44.58-42.35,78.27-59.73C172.77,94.83,212.66,81,257.16,71.26,303.43,61.16,352.61,56,403.33,56Zm0-11.19C192.55,44.85,21.67,133,21.67,241.75s170.88,196.9,381.66,196.9S785,350.49,785,241.75,614.12,44.85,403.33,44.85Z"/><path class="cls-9" d="M151.2,206.26c1.47-9.35-13.21,42.08,26.12,83.74s79.78,52.67,111.47,46.92c55.59-10.08,71.43-48.14,71.43-48.14Z"/><path class="cls-10" d="M167,178.49c-21.72,14.79-26.28,44.11,20.46,95.2,46.42,50.74,103.23,61.07,152.63,32.49,53.3-30.83,22.5-82.58-49.23-113.78C236.89,168.94,194,160.07,167,178.49Z"/><path class="cls-11" d="M225.69,251.28c-1.1,10.57,3.47,21.2,10.55,28.92s16.44,12.83,26.08,16.58c18.35,7.15,40.95,9.05,55.92-4,14.12-12.33,16.48-35.81,6.9-52.14s-29.11-25-47.54-23.41S228.05,228.56,225.69,251.28Z"/><path class="cls-12" d="M552.37,168.2c8.49-.67,19.32.21,22.23,8.22a545.1,545.1,0,0,0-206.22,69c1.17-.68-18.91-16.69-18.83-18.72.18-5.26,19.88-12.54,24.65-14.86a385.77,385.77,0,0,1,57-22.16C470.56,177.77,511.44,171.4,552.37,168.2Z"/><path class="cls-13" d="M549.27,205.58c8.34,1.73,18.49,5.6,19.05,14.1A545.26,545.26,0,0,0,351,228.37c1.31-.32-13.5-21.3-12.86-23.23,1.65-5,22.6-6.49,27.83-7.39a385.26,385.26,0,0,1,60.94-5.35C468.05,191.92,509.08,197.22,549.27,205.58Z"/><path class="cls-13" d="M642,231.44c8.35,1.74,18.49,5.6,19,14.11a545.07,545.07,0,0,0-217.29,8.68c1.31-.32-13.49-21.3-12.86-23.23,1.65-5,22.6-6.48,27.83-7.38a386.46,386.46,0,0,1,60.94-5.36C560.78,217.79,601.81,223.08,642,231.44Z"/><path class="cls-13" d="M641.21,182.88c8.12-2.58,18.86-4.2,23.52,2.94A545.13,545.13,0,0,0,479.66,300c1-.93-22.21-11.94-22.6-13.93-1-5.17,16.5-16.74,20.62-20.09a385,385,0,0,1,50.47-34.57C563.74,210.84,602.09,195.32,641.21,182.88Z"/><path class="cls-12" d="M570.69,249.94c8.07,2.76,17.66,7.85,17.16,16.35A545.29,545.29,0,0,0,371.15,248c1.35-.15-10.75-22.8-9.88-24.64,2.26-4.76,23.22-3.64,28.53-3.88a385.35,385.35,0,0,1,61.13,2.22C491.79,226.34,531.84,236.68,570.69,249.94Z"/><path class="cls-14" d="M443.68,385.62c22.85-8.91,43.78-22,64.56-35.05,12.93-8.11,27.16-18.16,29.11-33.3.38-2.92,0-6.41-2.55-7.92-1.87-1.12-4.25-.73-6.38-.26-25.35,5.59-48.58,17.62-71.38,29.61s-46.32,19.48-70.61,28.07c-10.84,3.84-14.1,16.07-14.6,27.42C373,404.16,423.05,393.66,443.68,385.62Z"/><path class="cls-15" d="M383.43,380.77c-2.69-.76-5.18-3-5.33-5.77-.13-2.47,1.5-4.65,3.13-6.51,15.39-17.6,37-28.35,58.28-38.07,26.32-12,53.3-23.23,81.74-28.58,4.34-.81,9.41-1.29,12.61,1.76a8.79,8.79,0,0,1,2.54,5.85c.48,7.69-6.7,13.41-13.15,17.62-21.56,14.06-43.76,27.44-67.54,37.41a212.81,212.81,0,0,1-36.82,11.89,168.27,168.27,0,0,1-19.07,3.08C394.79,380,388.37,382.16,383.43,380.77Z"/><path class="cls-14" d="M477.82,322.25c11.49-4.15,23.45-7.6,35.66-7.62a4.69,4.69,0,0,1,3.45,1c1.82,1.85-.24,4.86-2.26,6.48a82,82,0,0,1-17.29,10.65,18.32,18.32,0,0,0,10.81-9.91,1.72,1.72,0,0,0-1.47-2.76c-4.46-1-9.08.34-13.41,1.77A329,329,0,0,0,404.73,367c-1,.72-2.13,1.87-1.61,3l3,.05A45.59,45.59,0,0,1,396,372c-1.1.09,4-7.19,4.76-7.85a103.2,103.2,0,0,1,9.35-6.84q10.46-7.29,21.52-13.65A290.87,290.87,0,0,1,477.82,322.25Z"/><path class="cls-14" d="M539.37,367c24.26,3.64,48.94,2.67,73.45,1.7,15.25-.6,32.59-2.24,41.81-14.4,1.78-2.34,3.17-5.57,1.73-8.14-1.07-1.91-3.32-2.75-5.41-3.4-24.77-7.76-50.9-8.88-76.65-9.82s-49.87-6.15-75.22-10.77c-11.31-2.07-20.21,6.92-26.29,16.52C468.82,347.89,517.47,363.69,539.37,367Z"/><path class="cls-15" d="M489.52,332.8c-1.95-2-3-5.16-1.75-7.66,1.11-2.2,3.61-3.28,6-4.09,22.11-7.61,46.21-6.18,69.5-4,28.81,2.66,57.79,6.35,85.12,15.87,4.17,1.45,8.81,3.56,10.07,7.79a8.88,8.88,0,0,1-.71,6.35c-3.41,6.9-12.49,8.29-20.17,8.73-25.7,1.48-51.61,2-77.2-1.13a213.6,213.6,0,0,1-37.86-8,168.88,168.88,0,0,1-18.08-6.81C499.78,337.75,493.12,336.47,489.52,332.8Z"/><path class="cls-14" d="M600.52,329c12,2.12,24.12,5.07,34.72,11.14a4.67,4.67,0,0,1,2.51,2.55c.66,2.51-2.62,4.1-5.19,4.5a82,82,0,0,1-20.29.64,18.34,18.34,0,0,0,14.31-3.22,1.73,1.73,0,0,0,.09-3.13c-3.36-3.09-8-4.22-12.51-5.13a329,329,0,0,0-99.29-4.93c-1.23.13-2.78.57-2.88,1.8l2.57,1.53a45.81,45.81,0,0,1-9.81-3.28c-1-.47,7.06-4.25,8-4.45a105.5,105.5,0,0,1,11.51-1.28q12.71-1.12,25.47-1.14A292.75,292.75,0,0,1,600.52,329Z"/><path class="cls-14" d="M240.54,397c20.11,3,40.57,2.22,60.88,1.42,12.65-.5,27-1.86,34.67-11.94,1.47-2,2.62-4.62,1.43-6.75-.88-1.58-2.75-2.28-4.48-2.82-20.53-6.43-42.2-7.36-63.55-8.14s-41.34-5.1-62.36-8.93c-9.37-1.71-16.76,5.74-21.8,13.7C182,381.18,222.38,394.28,240.54,397Z"/><path class="cls-15" d="M199.21,368.67c-1.62-1.66-2.5-4.28-1.46-6.35.92-1.83,3-2.72,4.94-3.39,18.33-6.31,38.31-5.13,57.61-3.34,23.89,2.2,47.92,5.27,70.57,13.15,3.46,1.2,7.31,2.95,8.35,6.46a7.35,7.35,0,0,1-.59,5.26c-2.83,5.73-10.35,6.88-16.72,7.25-21.3,1.22-42.78,1.69-64-.95a176,176,0,0,1-31.39-6.63,140.77,140.77,0,0,1-15-5.65C207.71,372.78,202.19,371.71,199.21,368.67Z"/><path class="cls-14" d="M291.23,365.51c10,1.75,20,4.2,28.78,9.23a3.89,3.89,0,0,1,2.09,2.11c.54,2.08-2.18,3.4-4.31,3.73a68.14,68.14,0,0,1-16.82.53,15.2,15.2,0,0,0,11.86-2.67,1.87,1.87,0,0,0,.85-1.09,1.84,1.84,0,0,0-.77-1.5c-2.78-2.57-6.67-3.5-10.38-4.26a272.67,272.67,0,0,0-82.31-4.08c-1,.1-2.3.47-2.39,1.49l2.13,1.27a37.47,37.47,0,0,1-8.12-2.72c-.83-.39,5.85-3.52,6.65-3.68A84.88,84.88,0,0,1,228,362.8q10.53-.93,21.12-.94A240.36,240.36,0,0,1,291.23,365.51Z"/></svg>