<svg id="Layer_1" data-name="Layer 1" xmlns="http://www.w3.org/2000/svg" viewBox="0 0 1920 1080"><defs><style>.cls-1{fill:#b2d326;}</style></defs><title>Food</title><path class="cls-1" d="M1893.58,0H1449.22a101.21,101.21,0,0,0-13.63,13.6c-21.67,26.33-30,61.07-34.62,94.86-14.67,107,1.36,216.37-12.1,323.55s-67.48,220.75-169.36,256.66c-48.34,17-101.44,14.42-151.06,27.22S968.13,766.18,968.28,817.43c.1,31.88,17.57,70.91-7.11,91.08-24.08,19.69-64-3-90.11,13.91-20.85,13.5-20.79,43.52-17.95,68.2q5.24,45.3,12.32,90.38H1893.58a31.42,31.42,0,0,0,31.42-31.42V31.42A31.42,31.42,0,0,0,1893.58,0Z"/></svg>