<svg id="Layer_1" data-name="Layer 1" xmlns="http://www.w3.org/2000/svg" xmlns:xlink="http://www.w3.org/1999/xlink" viewBox="0 0 805 733"><defs><style>.cls-1{fill:url(#linear-gradient);}.cls-2{fill:url(#linear-gradient-2);}.cls-3{fill:#aa4029;}.cls-4{fill:#881900;}.cls-5,.cls-9{opacity:0.2;}.cls-6{fill:url(#linear-gradient-3);}.cls-7{fill:#ffede6;}.cls-8{opacity:0.15;}.cls-10,.cls-11,.cls-12,.cls-13,.cls-9{fill:#fff;}.cls-10{opacity:0.5;}.cls-11{opacity:0.3;}.cls-12{opacity:0.7;}.cls-13{opacity:0.1;}.cls-14{fill:url(#linear-gradient-4);}.cls-15{fill:url(#linear-gradient-5);}.cls-16{fill:url(#linear-gradient-6);}.cls-17{fill:url(#linear-gradient-7);}.cls-18{fill:url(#linear-gradient-8);}.cls-19{fill:url(#linear-gradient-9);}.cls-20{fill:url(#linear-gradient-10);}.cls-21{fill:url(#linear-gradient-11);}.cls-22{fill:url(#linear-gradient-12);}.cls-23{fill:url(#linear-gradient-13);}</style><linearGradient id="linear-gradient" x1="57.92" y1="402.73" x2="766" y2="402.73" gradientUnits="userSpaceOnUse"><stop offset="0" stop-color="#ff8e54"/><stop offset="0.34" stop-color="#d16234"/><stop offset="0.78" stop-color="#9a2e0f"/><stop offset="1" stop-color="#841a00"/></linearGradient><linearGradient id="linear-gradient-2" x1="41.04" y1="518.72" x2="346.81" y2="518.72" gradientUnits="userSpaceOnUse"><stop offset="0" stop-color="#ffb07e"/><stop offset="0.47" stop-color="#ff9b6c"/><stop offset="0.99" stop-color="#ff7e55"/></linearGradient><linearGradient id="linear-gradient-3" x1="58.33" y1="331.33" x2="740.55" y2="331.33" gradientUnits="userSpaceOnUse"><stop offset="0" stop-color="#ff353e"/><stop offset="1" stop-color="#f5060b"/></linearGradient><linearGradient id="linear-gradient-4" x1="384.7" y1="564" x2="399.43" y2="564" gradientUnits="userSpaceOnUse"><stop offset="0" stop-color="#ebff89"/><stop offset="0.62" stop-color="#f8d65f"/><stop offset="1" stop-color="#ffc249"/></linearGradient><linearGradient id="linear-gradient-5" x1="399.43" y1="536.49" x2="406.96" y2="536.49" xlink:href="#linear-gradient-4"/><linearGradient id="linear-gradient-6" x1="420.31" y1="564.12" x2="425.88" y2="564.12" xlink:href="#linear-gradient-4"/><linearGradient id="linear-gradient-7" x1="546.02" y1="491.23" x2="553.81" y2="491.23" xlink:href="#linear-gradient-4"/><linearGradient id="linear-gradient-8" x1="527.12" y1="493.88" x2="532.67" y2="493.88" xlink:href="#linear-gradient-4"/><linearGradient id="linear-gradient-9" x1="514.3" y1="460.36" x2="526.83" y2="460.36" xlink:href="#linear-gradient-4"/><linearGradient id="linear-gradient-10" x1="564.38" y1="476.01" x2="574.84" y2="476.01" xlink:href="#linear-gradient-4"/><linearGradient id="linear-gradient-11" x1="482.62" y1="542.01" x2="493.67" y2="542.01" xlink:href="#linear-gradient-4"/><linearGradient id="linear-gradient-12" x1="460.91" y1="544.78" x2="466.44" y2="544.78" xlink:href="#linear-gradient-4"/><linearGradient id="linear-gradient-13" x1="435.89" y1="544.78" x2="441.42" y2="544.78" xlink:href="#linear-gradient-4"/></defs><title>Food</title><path class="cls-1" d="M683.73,216.36c-65.53-56.73-144.39-76.07-189.2-49.83-.47.22-452.8,204.27-436.16,234.86S311.88,650.47,311.88,650.47s337.46-171,417.85-220.16c1.9-1.05,3.69-2.22,5.47-3.4l3.08-2a19.36,19.36,0,0,0,1.78-1.41,67.32,67.32,0,0,0,8.62-8.19C787.68,370.25,758.6,281.18,683.73,216.36Z"/><path class="cls-2" d="M329.48,636.09c-39,45-131.3,29-206.15-35.8s-104-153.89-65-198.9,131.28-29.05,206.16,35.77S368.49,591,329.48,636.09Z"/><path class="cls-3" d="M186.63,524.46c4.32,11.19.44,16.86,14.57,13.22s.83-41.41-26.89-42.38-26.42,37.81-4.1,58.77,78.83,57,99.32,17.32-52.38-127.59-108-137.14S71.34,464.3,110.06,539.51,207.28,631.25,256.94,634s76.39-49.83,81.85-48S314,647.69,263.33,649.15,110.22,616.65,76.8,518.73C41.42,415,132.85,386,186.16,415.11S297.79,514,296.87,565.46s-77.9,72-133.94,11.85-30.08-101.15-8.21-107.52,55.58,10.93,68.79,31.88,11.4,46-.89,55.61-46-4.54-49.21-22.35S182.29,513.27,186.63,524.46Z"/><path class="cls-4" d="M185.21,521.75S183,539,198,540.87s15.24-34.77-16.85-46-39.92,28.95-15.06,61.06c32.82,42.39,83.2,49.06,99.81,26s17.62-65-50.59-123.92c-80.19-69.27-147.81-11.89-119.69,55.44s68.06,119.39,164,120.69c0,0-95.39-12.55-136.84-91.39s-7.76-99.77,8.66-104.34,84.74,10.93,124.85,84.3-41.94,69.26-68.82,39.19-31.89-55.14-18.67-60.6,33.26,22,30.52,27.38S187.14,524,185.21,521.75Z"/><path class="cls-4" d="M211.54,620s66,27.79,120.54-28.47c0,0-42.31,75.16-138.17,31.31Z"/><path class="cls-5" d="M729.87,270.94c-11-9.11-244,50.3-259.78,76.67s-205.94,66.74-205.87,67.85C210.47,348,151.52,320.54,61.55,399.51c0,0,68.12-40.11,157.79,10.64,14.62,8.29,43.08,13.68,56,25.59,60,55.49,78.93,48.15,87.78,37.94,6.05-6.95,30.52,64.32,69.25,53.12S466.5,440.88,477,424s50.57-43.28,65.14-24.14,46.94,92.49,83.38,77,128-53.31,136.25-96.6S740.81,280,729.87,270.94Z"/><path class="cls-6" d="M58.37,401.39S56.22,391.55,83.31,369a307.12,307.12,0,0,1,26-19.1c21.43-14.26,51.8-31.76,94.9-52.85C337.2,232,496,150.39,541.56,150.39s158,39.92,187.71,106.61-7.27,83.84-20.95,81.1S675.51,317.16,671,329s-6.38,95.69-33.71,121.2-57.42-13.67-78.37-52.86-51-23.7-64.7-13.66-30.06,29.14-37.37,59.24-8.45,72-40.22,69.24-43.08-68.7-60.91-49.21c-21.09,23-51-20.49-86.66-44.71-16.4-11.14-41.3-9.74-67-22.38C131.07,360.94,89.14,383,58.37,401.39Z"/><path class="cls-7" d="M198,522.09s-21.26-23.81-27.65-6.47,7.89,48.14,43.79,62.68,54.38-8.84,53-20.81-3.65-34.8-37.68-72.28-93.53-64-116.85-35,0,95.49,43.76,135.42,116.52,66.28,178.94,2.47c0,0-70.46,58.77-131.13,21.86s-104.9-92-90.33-141.7,84.3-.44,95.23,7.77,61.24,61.61,49.2,89.75-71.38,6.48-82.46-30.07c-4.55-15.07,1.1-17.29,6.42-15.52,2.64.92,5.29,3.55,6.34,4.59C191.71,527.83,202.86,535.85,198,522.09Z"/><path class="cls-7" d="M296.87,565.46s.21-57.62-71.12-122.09S70.85,399.88,68.88,476.88c0,0-11.67-87.76,81.87-79.3C246.45,406.25,306.57,537.72,296.87,565.46Z"/><path class="cls-8" d="M339.43,230.71s139.83-55.93,191.78-55,90.22,27.33,71.08,80.18,7.28,82.92-27.33,84.76-82.26-31-109.6,13.66-48.61,112.5-65.93,83.57c-15.58-26.05-61-57.4-58.25-15.47,1.54,23.64-88.82-12.5-88.82-12.5,22.94,12.83,41.13,28.71,56.29,42.54,45.42,41.43,47.14-9.19,64,14.33,14.47,20.22,31,51.35,50.16,45.33s22.49-14.33,34-69.19,68.94-100.75,100.6-48.2,57.94,81.67,82.84,52.3,24.42-80.49,27.58-99.26-.81-29.94,26.73-15.35,62.64-8,38.28-66.85-96.25-91.64-122-99.88-56.45-14.95-71.38-15C505.69,150.63,360,213.72,339.43,230.71Z"/><path class="cls-9" d="M573.75,217c0,30.35-301.83,200.49-321.39,192.87-33-12.88-91.77-42.58-117.56-48.32-13.73-3,329-167.66,365.06-174.63C536.23,180,573.75,192.7,573.75,217Z"/><path class="cls-10" d="M205,346c-2.9-6.12,58.26-41,136.59-78s144.15-62,147.05-55.84-58.28,41-136.59,78S207.88,352.11,205,346Z"/><path class="cls-11" d="M165.45,506.81c-14.39,21-49,28-75.25,4.06s-45.43-59.22-31-80.2,48.09-19,79-1.65C176.61,450.6,179.84,485.83,165.45,506.81Z"/><path class="cls-7" d="M68.41,426.54c1.63-1.89-23.95,49,20.73,133.53C89.14,560.07,23,479.33,68.41,426.54Z"/><path class="cls-7" d="M300.72,532.17s21.35,66.22-37.7,82.66C263,614.83,339.13,605.48,300.72,532.17Z"/><path class="cls-12" d="M202,388.49c-.11,2.65-35.41-17.45-68.15-17.49-36.82-.06-57.25,14.18-57.13,11.54s26.31-22.22,63.1-18.79C177.92,367.3,202.15,385.84,202,388.49Z"/><path class="cls-13" d="M374.15,518.73s28.36,47.61,75.92,17.75,29.2-94.07,64.23-93.22,63.44,60.21,12.53,82.65-139.6,81.43-156,79.76c-9.67-1-4.44-51.17-16.73-78.87C347.6,512.22,366.79,507,374.15,518.73Z"/><path class="cls-14" d="M399.43,564c0,5.26-3.29,9.51-7.36,9.51s-7.37-4.25-7.37-9.51,3.31-9.5,7.37-9.5S399.43,558.76,399.43,564Z"/><path class="cls-15" d="M407,536.48a3.8,3.8,0,1,1-3.77-4.31A4.07,4.07,0,0,1,407,536.48Z"/><path class="cls-16" d="M425.88,564.13c0,2.23-1.25,4-2.78,4s-2.79-1.81-2.79-4,1.24-4.06,2.79-4.06S425.88,561.87,425.88,564.13Z"/><path class="cls-17" d="M553.81,491.23c0,2.91-1.74,5.3-3.9,5.3s-3.89-2.39-3.89-5.3,1.74-5.29,3.89-5.29S553.81,488.31,553.81,491.23Z"/><path class="cls-18" d="M532.67,493.87a2.78,2.78,0,1,1-2.78-2.64A2.71,2.71,0,0,1,532.67,493.87Z"/><path class="cls-19" d="M526.83,460.35a6.27,6.27,0,1,1-6.26-6.25A6.25,6.25,0,0,1,526.83,460.35Z"/><path class="cls-20" d="M574.84,476a5.23,5.23,0,1,1-5.23-5.25A5.23,5.23,0,0,1,574.84,476Z"/><path class="cls-21" d="M493.67,542a5.53,5.53,0,1,1-5.52-5.54A5.52,5.52,0,0,1,493.67,542Z"/><path class="cls-22" d="M466.44,544.8a2.77,2.77,0,1,1-2.75-2.78A2.75,2.75,0,0,1,466.44,544.8Z"/><path class="cls-23" d="M441.42,544.8a2.77,2.77,0,1,1-2.76-2.78A2.77,2.77,0,0,1,441.42,544.8Z"/></svg>