<svg id="Layer_1" data-name="Layer 1" xmlns="http://www.w3.org/2000/svg" viewBox="0 0 565 733"><defs><style>.cls-1{fill:#6d5a55;}.cls-2{fill:#656d83;}.cls-3{fill:#e48282;}.cls-4{fill:#e49581;}.cls-5{fill:#f4b5a3;}.cls-6{fill:#323942;}.cls-7{fill:#fff;}</style></defs><title>Food</title><path class="cls-1" d="M423.3,335.9c12.21,20.82,29.21,38.32,44.68,56.85s29.84,39,35.19,62.5c9,39.72-12.12,84.29-48.6,102.4-17.23,8.55-36.63,11.46-55.7,14-70.49,9.27-142.82,14.5-212.14-1.31-18.62-4.24-37.29-10.17-52.67-21.49s-27.19-28.8-27.73-47.89c-.83-29.12,23-52.24,35.34-78.6,13-27.72,13.36-59.52,12.45-90.12-.47-15.6-1.11-31.75,4.81-46.18,7.76-18.93,25.53-31.8,43.6-41.38A251.83,251.83,0,0,1,332.3,215.79c25.85,1.3,67.87,13.16,75.22,42.64,2.42,9.72-.12,20.54.54,30.45C409.18,305.56,414.88,321.54,423.3,335.9Z"/><path class="cls-2" d="M43.51,705s47-230.75,249.37-230.75S521.63,705,521.63,705Z"/><circle class="cls-3" cx="146.07" cy="270.77" r="37.54"/><circle class="cls-3" cx="424.84" cy="270.77" r="37.54"/><path class="cls-4" d="M333.94,407.06l-6.35-83.39-65.12,8.93L251.83,454.51C273.32,451.94,308.32,442.06,333.94,407.06Z"/><path class="cls-5" d="M156.6,235c-1.21,20-.32,26,1.88,45.84,4.36,39.39,23.19,73.68,58.94,92.74s84.68,25.91,122.83,10.2c29.57-12.17,52.39-33.86,64.09-63.09,13.32-33.32,13.46-75.92,11.67-111.89C409.34,75.58,300.83,77.55,300.83,77.55S156.05,66.39,156.6,235Z"/><path class="cls-5" d="M251.83,454.51l-4.68,53.65s1.92,26.82,45.33,31.92S341,499.86,341,499.86l-7.06-92.8C308.32,442.06,273.32,451.94,251.83,454.51Z"/><ellipse class="cls-6" cx="226.77" cy="261.85" rx="6.66" ry="13.33"/><ellipse class="cls-6" cx="350.1" cy="264.11" rx="6.66" ry="13.33"/><path class="cls-6" d="M287.51,270.77a64.71,64.71,0,0,0-8.3,4,25.11,25.11,0,0,0-3.72,2.62A9.61,9.61,0,0,0,274,279a4.19,4.19,0,0,0-.79,2c-.15,1.39.82,2.64,2,3.57a9.16,9.16,0,0,0,3.9,2.07,8,8,0,0,0,4.42-.29,12.34,12.34,0,0,0,4-2.23,11.56,11.56,0,0,1-3.85,2.57,8.45,8.45,0,0,1-4.67.51,9.17,9.17,0,0,1-4.22-2.11c-.3-.26-.61-.51-.89-.79a6,6,0,0,1-.77-1,3.78,3.78,0,0,1-.64-2.42,4.82,4.82,0,0,1,.94-2.28,10,10,0,0,1,1.63-1.74,20.84,20.84,0,0,1,3.89-2.61A45.59,45.59,0,0,1,287.51,270.77Z"/><path class="cls-6" d="M269.13,306.55a34.91,34.91,0,0,0,4.12,3.26,34.53,34.53,0,0,0,4.5,2.66,24.49,24.49,0,0,0,9.94,2.72,19.75,19.75,0,0,0,5.14-.43,22.76,22.76,0,0,0,4.85-1.78,31.77,31.77,0,0,0,8.2-6.43,27.37,27.37,0,0,1-7.93,6.94,19.37,19.37,0,0,1-10.29,2.45,24.28,24.28,0,0,1-10.17-3A32.06,32.06,0,0,1,269.13,306.55Z"/><circle class="cls-3" cx="212.88" cy="306.55" r="14.02"/><circle class="cls-3" cx="356.77" cy="308.61" r="14.02"/><path class="cls-1" d="M335.33,233.63a24.26,24.26,0,0,1,8.06-6.89,20.4,20.4,0,0,1,10.39-2.5,22.36,22.36,0,0,1,5.34.84,25,25,0,0,1,4.95,2.07,35,35,0,0,1,4.47,2.92l2,1.72c.64.6,1.28,1.22,1.91,1.84a44.53,44.53,0,0,0-8.77-5.79,24.45,24.45,0,0,0-10-2.61,21.6,21.6,0,0,0-10,2.19,25.16,25.16,0,0,0-4.46,2.71A27.79,27.79,0,0,0,335.33,233.63Z"/><path class="cls-1" d="M202.52,233.63a24.26,24.26,0,0,1,8.06-6.89,20.42,20.42,0,0,1,10.4-2.5,22.36,22.36,0,0,1,5.33.84,25,25,0,0,1,4.95,2.07,35.86,35.86,0,0,1,4.48,2.92l2,1.72c.65.6,1.28,1.22,1.91,1.84a44,44,0,0,0-8.77-5.79,24.41,24.41,0,0,0-10-2.61,21.62,21.62,0,0,0-10,2.19,25.16,25.16,0,0,0-4.46,2.71A27.79,27.79,0,0,0,202.52,233.63Z"/><path class="cls-1" d="M156.05,235s114.74-31.62,130.39-101.5c26,56.66,85.52,95,130.38,100.62,0,0,15.14-161.77-123.94-156.69S157.38,201.83,156.05,235Z"/><path class="cls-1" d="M280.16,86s-17.5-30.72-10.25-35.13S283.31,78,283.31,78s.78-31.07,10.85-27.5S293.24,87.15,280.16,86Z"/><path class="cls-7" d="M166.25,668.15a10.2,10.2,0,1,1-10.2-10.2A10.2,10.2,0,0,1,166.25,668.15Z"/><path class="cls-7" d="M170.69,538.44a10.2,10.2,0,1,1-13.62,4.74A10.19,10.19,0,0,1,170.69,538.44Z"/><path class="cls-7" d="M368.29,659a10.2,10.2,0,1,1-13.62,4.74A10.19,10.19,0,0,1,368.29,659Z"/><path class="cls-7" d="M287,596.65a10.2,10.2,0,1,1-13.62,4.74A10.19,10.19,0,0,1,287,596.65Z"/><path class="cls-7" d="M379,516.06a10.2,10.2,0,1,1-13.61,4.75A10.19,10.19,0,0,1,379,516.06Z"/><path class="cls-7" d="M457.54,607.26A10.2,10.2,0,1,1,443.92,612,10.19,10.19,0,0,1,457.54,607.26Z"/></svg>