<svg id="Layer_1" data-name="Layer 1" xmlns="http://www.w3.org/2000/svg" xmlns:xlink="http://www.w3.org/1999/xlink" viewBox="0 0 805 733"><defs><style>.cls-1{fill:url(#linear-gradient);}.cls-2{fill:#ffcacf;}.cls-3{fill:url(#linear-gradient-2);}.cls-4,.cls-5{fill:#020000;}.cls-15,.cls-4,.cls-9{opacity:0.3;}.cls-14,.cls-16,.cls-5{opacity:0.2;}.cls-16,.cls-6,.cls-7,.cls-8,.cls-9{fill:#fff;}.cls-6{opacity:0.7;}.cls-7{opacity:0.6;}.cls-8{opacity:0.4;}.cls-10{fill:#81220e;}.cls-11{fill:#600c00;}.cls-12{fill:#a33924;}.cls-13{fill:#d20104;}</style><linearGradient id="linear-gradient" x1="35.78" y1="442.01" x2="765.22" y2="442.01" gradientUnits="userSpaceOnUse"><stop offset="0.01" stop-color="#ff785c"/><stop offset="1" stop-color="#f01"/></linearGradient><linearGradient id="linear-gradient-2" x1="33.61" y1="465.46" x2="726.43" y2="465.46" gradientUnits="userSpaceOnUse"><stop offset="0" stop-color="#ff979e"/><stop offset="0.99" stop-color="#ff979e"/></linearGradient></defs><title>Food</title><path class="cls-1" d="M746.15,599.12c-37,48.12-657.3,98.28-690.94,68.9C19.35,636.68,44.12,425,44.12,425S475.4,208.23,513.82,207.26s213.62,54.23,231,77.83S779.81,555.41,746.15,599.12Z"/><path class="cls-2" d="M704,558c-14.65,19.74-647.59,89.62-658.31,73.3s-18.61-185.56,0-220.53c10.42-19.57,133.8-82.33,248.78-128.61C385,245.7,472.11,222,482.3,220.68c23.12-2.86,208.14,51.42,221.68,76.17S718.63,538.22,704,558Z"/><path class="cls-3" d="M45.53,416.86c9.76-7.89,126.65,7.59,360.18-35.56s291-96.2,300.48-84.6c17.77,21.65,33.48,233.8,3,267.65-26.2,29.11-650.71,88-663.95,67.09C31.72,610,27.77,431.22,45.53,416.86Z"/><path class="cls-4" d="M38.82,619c0-.25-.06-.48-.1-.74C38.72,618.21,38.75,618.48,38.82,619Z"/><path class="cls-5" d="M741.08,281.38c-95.87-35.49-236.34-58-236.34-58,96.2,22.2,159.37,49.27,182.5,61.12a53.23,53.23,0,0,1,12.47,8.76c-13.78,6.19-32.06,14.23-57,23.57-10.6-6.67-64.55-40.31-76.08-41.07-12.78-.85-52.81-27.9-57.79-25.71s-18,13.21-10.81,20.52,72.31,44,81.19,42.13c5.67-1.16,15.29,11.33,24.58,17.8-29.33,9.68-65.34,20.23-109.41,31.17-.23-6.13-2.46-14.67-12-19.91-16.13-8.89-33.06-19.89-25.86-20.31s48.71-5.59,52.19-9.94-76.17-8.53-76.32,0c-.1,6.9,29.91,39.75,43.62,54.61-10.26,2.44-20.77,4.89-31.88,7.36-15.82,3.52-22.14,4.91-37.07,7.84-14-28.08-52.36-35.69-67.31-42.1-15.79-6.77-24.81-16.92-34.42-29.9s-35.17-11-36.28-11.24c-12.92-.59.72,31.75-7.71,29.32s-22.49-5.31-20.09-2.33,6.55,0,9.75,9.7,54.9,47.6,54.9,47.6,5.44,7.92,10.65,14.73c-21.08,3.09-32.53,3.26-51.23,5.28-8.24-5.75-20.33-9.75-34.24-25C209.58,353.68,179.57,350,179.57,350c-1.61-.27,30.8,39.56,45.06,57.87-27.06,2.32-51.08,3.6-72.09,4.29-1.38-11.38-12.85-13.25-16.71-13.43-4.23-.2-7.43-15.66-7.43-15.66-7.87-.2-1.88,15.66-3.26,21.92-.45,2,.85,4.81,2.88,7.74-17.59.25-32.37.12-44.31,0-3.29-7.12-12.16-10.26-12.16-10.26l-.22,10.09c-11.85-.14-19.5-.1-22.71.76-16.87,4.55-17.18,91.83-17.18,91.83,1.9-10.63,16-20,38.44-28.49L66.94,605.77s-1,25.55-3.61,42c-20.48-12-24-25.53-24.51-28.8,5.29,40.71,10.53,51.51,33.84,55.09,22.92,3.52,66.84,2.72,128.56,1.56,80.11-1.51,215.52-13.44,315.72-25.4,64.53-7.7,113.48-16.52,126.91-18.84,33.87-6,85.56-16.7,99.94-29.82,7.74-7.06,11.27-23.62,16.7-48.92C774.23,488.46,760.22,288.46,741.08,281.38ZM645.93,614.3c-86.11,16-297.5,41-436,51.55-61.27,4.66-100.56-.52-125.84-8.93A91.56,91.56,0,0,0,79.27,636C76,627,82,515.8,82,497.83c0-5.6.49-15.11,1.08-25.78,33.72-10.73,81.11-19.84,133.74-27.86-4.48,36.26-7.67,120.4-6.84,123.51,1,3.95.08,37.8-8.71,63.23s13.86,25.9,23.82,11.47-.36-63.42,0-84.29,5.27-54.72,10.91-73.9c4.61-15.66,5.73-36.57,6-43.72,41.39-5.89,85.06-11.19,127.25-16.15-11.69,27.48-11.94,80.18-11.94,80.18S344,586,340.56,598.4s2.58,30.79,21.27,19.22,9.51-31.3,5.56-44.84,0-23.7,0-33.2,12.41-40.13,20.54-51.42,1.46-32.71.1-46.15c-.73-7.2,2.39-14.87,5.45-20.51,87.19-10.16,164.5-19,196.62-28.78a42.77,42.77,0,0,1,13-2c-7,18.09-3.3,60.89-3.3,67.62,0,10.24-22.58,92.43-28.18,109.9s2.8,33.86,22.53,27.65,11.85-49.64,13-68.82a632.64,632.64,0,0,1,8.74-68.73c2.76-14.38,7-44.48,8.41-59C662,434.42,651.19,566.85,645.93,614.3Z"/><path class="cls-6" d="M83.37,389.09s209.33-112.34,315.35-139,97.57-29.94,177.11,0c52.36,19.72-2.57-10.13-80.38-8.07-40.37,1.06-82.45,21.27-128.31,39.08C235.3,332.3,19.65,430,83.37,389.09Z"/><path class="cls-7" d="M155.86,410c2-.07,44-2.54,46.81-3.95s-12.13-2.59-24.82-1.74S148.83,410.3,155.86,410Z"/><path class="cls-7" d="M550.33,341c.64,2.79-10.75,7.75-25.43,11.09s-27.12,3.76-27.75,1,10.75-7.77,25.44-11.1S549.7,338.22,550.33,341Z"/><path class="cls-8" d="M325.66,654.31a121.44,121.44,0,0,0,6-37.79c0-85.64-53.42-129-121.78-121.8-66.9,7.07-121.8,54.53-121.8,121.8a121.06,121.06,0,0,0,8.18,43.57C156.54,676.06,269.06,661.26,325.66,654.31Z"/><path class="cls-8" d="M183.85,539.29c6.26,12.69-2,29.53-18.35,37.61s-34.76,4.35-41-8.34,2-29.53,18.35-37.62S177.59,526.59,183.85,539.29Z"/><path class="cls-9" d="M668.13,275c-2-10.14-145.84-49.77-163.39-51.58s-450,180-450,180C472.78,389.09,670.07,285.13,668.13,275Z"/><path class="cls-10" d="M44.63,408.6c3.42-5.9,2.66-10.8,16.9-11.87s8,10.76,13.11,14.71S80.27,430.06,78,443.6s-3.38,56.4-4.51,66-2.27,102.66,0,117.33,5.64,38.92-4,38.92S53.19,658,56,646.11s-2.26-50.77-1.69-70S53.19,482.52,57.7,469,67.89,426.11,62,421,41.2,414.5,44.63,408.6Z"/><path class="cls-10" d="M104,383.8c1.71-1.85,19.17-6.76,23.12,0s2.26,18.05,6.21,19.18,9.59-.56,11.84,5.64,4.51,33.85-4.51,39.49-14.66,2.25-11.28-7.33,7.89-21.41,2.26-25.09S107.36,403,104,399,97.2,391.14,104,383.8Z"/><path class="cls-10" d="M519.7,237.14s28.21.56,36.68,11.28,45.13,31,55.27,32.15,60.37,11.85,61.49,22-5.64,43.43-8.46,58.66,2.25,65.43-7.89,58.66-13-27.07-12.4-34.4,2.24-32.73,4.5-45.14,4.51-18-10.72-19.73-18,0-28.2-10.72-42.88-29.9-54.72-29.34-24.82-2.26-31.58-9.59S492.06,243.34,519.7,237.14Z"/><path class="cls-10" d="M494.32,250.11c3.39.08,47.4,53,66.56,48.08,11.54-3,51.74,18.22,47.87,32.46s-2.39,28.74.26,49.69-6.37,54.8-5.25,81.88-12.41,121.84-24.83,120.71-7.89-26.52,4.53-97c2.84-16.14-4.53-42.47-11.29-70.3s21.72-64.11,11.29-68.46c-13.54-5.64-43.49-10.75-51.9-27.08-11.29-21.87-53,5.64-72.22-7.9s-48.5-16.92-44-28.2S443.56,249,494.32,250.11Z"/><path class="cls-10" d="M337.07,266.72c11-18.71,26.94-5.89,37.45.32,16.27,9.59,39.71,16.92,51,18S468,306.83,455.24,309.5s-33.13,7.18-23,10.56,42.13,27.4,50.77,36.1,4.51,34.87-3.39,39.39-40.72,6.76-35-11.75c5.09-16.35-5.64-26.51-20.31-32.15s-20.87-23.15-29.9-32.15-25.4-6.67-25.4-16.36C369.07,285.65,327.15,283.64,337.07,266.72Z"/><path class="cls-10" d="M248.14,302.06c2.62-11.51,12.84-4.84,31.54-1.75,32.15,5.33,29.61,41.19,66.27,51.34,16.9,4.68,39.5,24.26,34.42,39.49s-2.87,24.25-11.3,35.54.54,22,0,33.84-12.41,44.56-15.21,57,1.11,72.2-5.08,82.35-8.32,6.21-9.8-3.94-4.87-36.67-3.17-49.65,14.65-47.37,9.58-60.36-10-33.84-6.41-50.2,5.71-27.31,3-37c-5.07-18.36-29.88-13.2-36.1-26.18s-25.39-35-33.28-40.61S245.76,312.54,248.14,302.06Z"/><path class="cls-10" d="M218.68,320.63c8.26-3.39,11-1.54,29.13,4.5,18.61,6.21,22.13,20.88,32.7,25.53s52.05,37.63,45.71,64.94-31.56,16-33,.9-24.12-31.86-27.49-36.16-38.09-30.95-41-36.45S210.44,324,218.68,320.63Z"/><path class="cls-10" d="M164.31,354.47s5.65-7.34,23.14-3.38,45.69,35.53,47.38,41.74,10.71,9.71,3.95,27.7-13,11.22-11.84,23.07-4,59.23-5.65,73.9-8.6,57-7.12,68.81,6.42,45.44,0,50.37-16,6.61-13.75-10.88,3.61-33.26,2.37-42.86-10-79,0-102.11,10-32.15,6.66-44.57-2.82-16.35-2.26-23.68,4.73-14.92-4.4-15.93S149.09,369.13,164.31,354.47Z"/><path class="cls-11" d="M504.76,239s-.83,15.76,12.34,21.27c8.68,3.62,33.07,8.71,39.28,8.71,12.26,0,38.07,25.37,69.8,25.37,21.5,0,34.69,17.39,19.88,22.47-5.69,1.95,7.15,7.41,6.31,15.7s-8.9,44-8,55,8,34.44,12.47,32.43,5.75-2,6.83-30.31,6.13-55.21,7.12-61.77,12.88-33.24-10.72-37.27c-24-4.09-44.38-10.15-54.88-11.83s-37.1-17.07-42.33-24.21C551.81,239.46,527.69,233.53,504.76,239Z"/><path class="cls-11" d="M363,260.27s25.69,19.12,40.73,17.74,55.93,20.51,66.93,10.05,30.28-31,34.12-27.79,29.29,27,35.26,30.64,26,6.85,33.86,7.28,38.71,17.9,35.65,33.72-2.87,30.46.2,38.92.75,67.13-2.57,80.66S600.85,507.69,598,524s1.64,38.51-3.81,53.87-31.58,5.08-16.36-14.66,3.39-27.08,7.9-42.87,3.95-63.88-1.13-73.4-9-42.55,1.13-70.6,9.59-34.26-1.13-38.2-2.26-12.77-15.23-17.67-32.15-17.37-49.64-14.81-23.26,9.82-46.6,10.42-29.52-4-32.09-3.3-4,8.74,5.25,15.06S492.2,352.7,487.86,372s.26,24.71-26.26,26.74S449.77,383,449.77,377.35s26-11.68,9.18-24.09c-11.85-8.73-40.78-21.71-49.25-32.81S393,304,383.57,298.19s-7.49-14.23-12.4-19.31S339.91,249,363,260.27Z"/><path class="cls-11" d="M291.52,303.7c7.23,3.36,23.94,28.75,29.53,30.46s10.24,14.58,36.19,19.1,32.44,26.66,30.46,34.35-1.1,28.34-6.56,33.71-12.6,13.68-7.62,25.6,9.46,28.27,2.15,41.81-19,40.61-15.42,53.58-.92,44,3.59,54.72-16.3,26.51-21.69,8.75,3.08-17.21,5.9-27.93,1.84-19.6,1.13-28.2c-1.53-18.4,6.76-41.18,8.45-50.77s-12.4-36.83-10.71-48,12.36-42,6.71-49.34,16.58-11.94,14.89-19.12-41.9-27.91-49.81-36.94S298,317.52,292.37,313,284.29,300.34,291.52,303.7Z"/><path class="cls-11" d="M254.29,341.78c-9.3-6.49,1.14-18.7,15.23,1.27,9.48,13.43,15.75,1.09,45.77,37.29,10.29,12.39,14.31,13.62,14.31,23.77s-4.34,25.12-15.14,28.08-24.23-7.88-23.72-23.63-5.71-23.93-12.48-32.24S259.63,345.49,254.29,341.78Z"/><path class="cls-11" d="M180.67,353.63s18.31,3.62,33.9,15.14,20.78,24,23.49,29.93,6.94,10.62.72,21.83S225,436.68,226.94,443.6s-3.74,57-4.81,66.42-8.59,60.65-6.4,75.24S223,629.92,220,636.68s-21.66,9.16-19.5-2,3.43-33.14,3.85-44.15-10.11-87.57-3.15-97.72,17-39.34,14.51-45.9-8-24.78-5.86-31.32,20.72-12.72,13.54-19-20.74-26.1-26.66-28.22S170.44,350.68,180.67,353.63Z"/><path class="cls-11" d="M129.26,389.91s1.08,10.55,2.56,11.81-4.74,2-5.3-3S126.64,384.17,129.26,389.91Z"/><path class="cls-11" d="M136.68,403.48c.83-.25,8.31-1,9.35,8.7s3.14,19.85,0,31.13-18.22,11-17.45,4.22,8.65-22.38,6.68-26.21-2.45-7.78-6.06-8.45S127.38,406.24,136.68,403.48Z"/><path class="cls-11" d="M70.25,413.7s9.38-3.84,8.87,10.95-3.91,61-5,76.26-1.93,64.25-1.94,70.6-2,60,2.48,68.51,5.16,25-5.15,25.83-17.43-7.35-13.86-18.06,7.61-47.94,6-58.94-3.3-48.23-2.44-65.15-3.17-44,2.44-60.08S67.87,426,66.94,423,64.68,413.29,70.25,413.7Z"/><path class="cls-12" d="M51.57,402.94a8,8,0,0,1,8.33-.55c4.61,2.35,7.92,6,5.6,6.31s-3.59,3.16-6.58,2.9S42.87,409.51,51.57,402.94Z"/><path class="cls-12" d="M106.31,386.44a11,11,0,0,1,11.09-2.89c6.65,2.08,3.53,2.73,4,7.7s2.3,8.19,3.48,8.35-1.8,3.34-4.24,2.72-13.69-6-14.33-8.59S103.32,388.63,106.31,386.44Z"/><path class="cls-9" d="M171.58,353.26c-.63.12-8.25,2.27-6.14,9s20.1,20.66,31.31,23.2,15.44,8.13,15.23,13.2,5.79,2.91,3.75-3.32-10.3-20.81-18.35-22.3-15.58-7.4-17.84-10.15S176.66,352.26,171.58,353.26Z"/><path class="cls-9" d="M268.69,371.75c-2.3,2.17-13.84-6.31-25.78-18.93S223.15,328.21,225.43,326s13.38,2.83,25.33,15.46S271,369.58,268.69,371.75Z"/><path class="cls-9" d="M321,368.65c-3.27,3.26-16.86-15.11-35.07-33.36s-34.31-30.87-31-34.12,24.11,7,42.32,25.26S324.23,365.39,321,368.65Z"/><path class="cls-9" d="M344.26,266.75c.83-.6,4.64-4.79,9.37,0s15.41,15,17.54,20.59,6.66,12.13,12,14.39,22.27,16.35,26.23,23.4-7-4.22-11.56-7.33-20.43-9.3-23.34-10.71-2.9-6.86-5.72-12.74S334.5,273.87,344.26,266.75Z"/><path class="cls-12" d="M566.44,330.35c-1.15,2.56-7.31,2.28-13.79-.63s-10.76-7.33-9.61-9.9,7.33-2.27,13.78.64S567.6,327.8,566.44,330.35Z"/><path class="cls-12" d="M643.23,305.81c0,3.83-6.12,6.91-13.67,6.91s-13.68-3.08-13.68-6.91,6.13-6.9,13.68-6.9S643.23,302,643.23,305.81Z"/><path class="cls-8" d="M245,347.35c-1.17,1-5.16-1.85-8.91-6.32s-5.86-8.92-4.7-9.9,5.17,1.85,8.91,6.33S246.18,346.37,245,347.35Z"/><path class="cls-8" d="M190.61,376.61c-1.17,1-12-2.9-15.72-7.38s-9-10-5-12.37c3.15-1.89,5.49,4.32,9.25,8.8S191.79,375.63,190.61,376.61Z"/><path class="cls-8" d="M116.09,389.08a3.67,3.67,0,1,1-3.68-3.63A3.66,3.66,0,0,1,116.09,389.08Z"/><path class="cls-8" d="M59.16,405c0,.89-2,1.6-4.39,1.6s-4.39-.71-4.39-1.6,2-1.61,4.39-1.61S59.16,404.07,59.16,405Z"/><path class="cls-13" d="M517.1,221.38a73,73,0,1,1-73-73A73,73,0,0,1,517.1,221.38Z"/><path class="cls-14" d="M466,158.84s54.19,33.28,18,86.36c-22.3,32.73-63.44,30-84.93,22.77-14.87-5,23.72,40.8,75,14.24S525.76,176.87,466,158.84Z"/><path class="cls-9" d="M465.5,166.91c-1.36,13.55-4,20.94-21.36,29.58-18.52,9.17-40.3,6.16-46-5.38-5.65-11.38,3.22-25.64,21.29-34.91-1.9.73-3.79,1.44-5.67,2.37-21.95,10.89-35.31,27.75-28.31,41.86s36.75,19.59,58.69,8.71S472.49,181,465.5,166.91Z"/><path class="cls-9" d="M405.09,241.4c.82,9.61.83,18.34-5.31,18.85s-12.14-7.71-12.95-17.33,3.15-18.66,9.3-19.18S404.29,231.79,405.09,241.4Z"/><path class="cls-7" d="M403.64,207.94c-.67.78-6.87.5-11.68-3.55s-6.41-10.32-5.73-11.1,3.26,4,8.07,8S404.3,207.16,403.64,207.94Z"/><path class="cls-13" d="M434.26,183.48s-10.12-50.82-15.81-73-13.28-58.84-12-64.53-17.07-1.9-14.56,3.8,6.34,51.23,14.56,71.16S427.3,202.68,434.26,183.48Z"/><path class="cls-15" d="M457.91,172.13c-3-1.93-10.19,7.75-24.69,9-.59-2.88-10.75-50.72-11.29-53.11s-14.16-59.65-14.16-63.33S405,54.17,406.54,50.37,402.3,47,402.3,47c2.74-.29,4.34,2.22-2,4.41s-8.19,0-8.19,0c-1.44,2.54,3,2.95,4.61,3.58s3.62,6.81,5.36,11.71,8.54,39.38,11.06,46.66,5.71,22.77,7.61,35.42c1.52,10.12,3.78,26.2,4.63,32.26-1.15-.14-2.31-.3-3.52-.55-13-2.67-10.44-11.18-10.44-11.18.43-11-24.76,19.57,6.65,24.2C447,197.75,461.56,174.5,457.91,172.13Z"/><path class="cls-16" d="M395.25,53.86s4.12,7.91,5.69,21.19,7.91,36.38,10.12,43,11.91,46,11.56,54.13c-.22,4.75-6.12-33.2-13.17-48.43C406.38,117.15,401.27,112.06,395.25,53.86Z"/><path class="cls-16" d="M401,37.69c.16.58-1.41,1.53-3.52,2.12s-3.93.6-4.09,0,1.4-1.52,3.51-2.12S400.84,37.12,401,37.69Z"/><path class="cls-16" d="M472.31,219.38c-4.57,31.18-20.71,48.71-52.81,47.54-51.89-1.9-43.13-64-38.14-59.68s15.9,15.45,38.28,15.45C453.46,222.69,476.42,191.38,472.31,219.38Z"/></svg>