<svg id="Layer_1" data-name="Layer 1" xmlns="http://www.w3.org/2000/svg" viewBox="0 0 805 733"><defs><style>.cls-1{fill:#d1b69d;}.cls-2{fill:#e8cbac;}.cls-3{fill:#4b4e51;}.cls-4{fill:#c47e4e;}.cls-15,.cls-5{fill:#fff;}.cls-5{opacity:0.39;}.cls-6{fill:#e0b15c;}.cls-7{fill:#f7c663;}.cls-8{fill:#f7dfcd;}.cls-9{fill:#60934c;}.cls-10{fill:#c3ea8f;}.cls-11{fill:#a8ce7c;}.cls-12{fill:#ffc2b6;}.cls-13{fill:#ff9369;}.cls-14{fill:#ff7b5c;}.cls-15{opacity:0.38;}.cls-16{fill:#ffb5a9;}.cls-17{fill:#ed7058;}.cls-18{fill:#d34722;}.cls-19{fill:#f2a688;}.cls-20{fill:#ff5a27;}</style></defs><title>Food</title><path class="cls-1" d="M517,655.77s-13,44.7-115.95,44.43c-97.63-.26-115.95-44.43-115.95-44.43V585.33H517Z"/><path class="cls-2" d="M401.06,267.28H26.11S35.32,402.43,115,508.39c114.87,152.8,286.09,152.8,286.09,152.8s171.21,0,286.08-152.8C766.8,402.43,776,267.28,776,267.28Z"/><path class="cls-1" d="M714.88,267.28c-7.32,45.58-28.27,136.16-85.17,211.85-114.87,152.8-286.09,152.8-286.09,152.8s-55.63,0-124.75-28.3c92.88,57.55,182.19,57.56,182.19,57.56s171.21,0,286.08-152.8C766.8,402.43,776,267.28,776,267.28Z"/><ellipse class="cls-3" cx="401.06" cy="267.28" rx="374.94" ry="193.43"/><ellipse class="cls-4" cx="401.06" cy="330.13" rx="354.7" ry="130.58"/><path class="cls-5" d="M115.87,431.86c-.3,12.73,6.55,24.4,13.18,35.27,5.75,9.44,11.5,18.89,17.83,27.95a265.42,265.42,0,0,0,31.87,37.6c4.12,4,8.63,8.07,14.24,9.42s12.52-1,14.33-6.5c1.93-5.81-2.39-11.66-6.41-16.27-18.82-21.57-37.79-44-47.33-71-2.25-6.34-4-13-8.06-18.38C138.61,420.76,116.27,414.77,115.87,431.86Z"/><path class="cls-6" d="M451.08,459.62a6.88,6.88,0,0,1-6.6-8.82c1.06-3.6-1.83-7.92-5.09-10.16-4.59-3.15-10.84-4.3-16.89-5.41l-31.2-5.75c-9,.87-18,1.13-26.82,1.38l-46.67,1.35c-29.45.85-60,.06-81.36-19.26-10.28-9.28-17.72-24.82-11.21-38.59,2.15-4.54,5.72-8.59,10.93-12.4,19.73-14.42,44.21-14.27,67.89-14.13,5.17,0,10.51.06,15.6-.08A201,201,0,0,0,425.14,314c13.72-9.24,20.9-18.2,21.92-27.4s-4.28-18.29-9.89-24.93c-12.45.58-24.43,1.32-35.76,2.08-24.11,1.63-57.14,3.85-80.6-14.37-5.27-4.09-7.67-8.68-7.12-13.63.58-5.26,4.3-9.34,11.07-12.13,19.4-8,42-9.87,63.61-5.26,20.94,4.45,40.25,14.83,54.58,29.29,25.73-1.08,53.29-1.43,81.13,0,16.6.87,35.68,2.56,52,11.72,8,4.47,11.73,11.32,9.84,17.89-1.36,4.74-5.14,7.39-7.17,8.81-5.59,3.92-11.54,7.6-17.3,11.15-17.66,10.92-34.34,21.23-41.94,38.17-1.43,3.18-1.08,4.23-1.07,4.24s.32.55,2.16,1.5c13.23,6.84,29.59,1.54,38.16-2.22,14-6.16,27.06-15.81,39.68-25.15,18.54-13.73,37.72-27.92,61.28-32.48,15.54-3,33.94.75,40,15.88,3.16,7.9,2,17.31-3.34,28-14,27.8-40.83,44.33-60.85,53.3-18.32,8.21-37.78,13.53-56.6,18.68-6.05,1.66-12.31,3.37-18.4,5.14-8.31,2.42-16.29,5-22.6,9.72-4.86,3.64-9.89,10.07-9.46,17.17a6.89,6.89,0,0,1-7.77,7.23c-6.81-.9-14.53-1.92-21.63-5.48-8.88-4.44-14.73-12.14-15.65-20.6-.69-6.27,1.41-11.92,3.05-15.63,7.57-17.15,21.7-29.07,37.31-37.82a41.47,41.47,0,0,1-9.49-3.51c-2.49-1.29-6-3.46-8.08-7.43-3.46-6.74-.28-13.82.76-16.15,9.32-20.79,28.61-32.71,47.26-44.23,5.59-3.46,11.37-7,16.63-10.72a18.44,18.44,0,0,0,1.49-1.12,11.18,11.18,0,0,0-3-2.33c-13.75-7.71-31-9.2-46-10-23.73-1.24-47.3-1.14-69.7-.4,4.78,7.72,8.18,17,7.05,27.13-1.5,13.45-10.63,25.65-27.91,37.28A214.94,214.94,0,0,1,320,361.49c-5.3.15-10.76.11-16,.08-22.43-.13-43.63-.25-59.7,11.49-3.31,2.42-5.47,4.76-6.61,7.17-3.33,7,1.5,16.66,8,22.53,17.59,15.9,45.1,16.48,71.75,15.71l33.9-1a23.34,23.34,0,0,1-8.91-13.29c-2.46-10.11,2.35-21.08,13.55-30.87,25.39-22.2,62.74-30.55,95.16-21.26,11.92,3.41,19.4,9.24,22.24,17.32,3.7,10.51-1.29,22.44-13.68,32.75a118.37,118.37,0,0,1-33.88,19.71c6.61,1.23,14.64,2.84,21.38,7.45,8.8,6,13.12,16.48,10.5,25.38A6.87,6.87,0,0,1,451.08,459.62Zm236.65-152a38.13,38.13,0,0,0-1.8,4.32c-1.16,3.14-2.48,6.69-5,9.75-5.47,6.74-14.28,8.09-20.11,9a552.15,552.15,0,0,0-100.64,25.27c-22.94,8.12-50.62,20.5-61.15,44.34-1.58,3.59-2.2,6.32-2,8.59.4,3.68,3.6,7.53,8.15,9.8a37.59,37.59,0,0,0,10.24,3.1c1.82-7.78,6.81-15.17,14.21-20.73,8.15-6.11,17.81-9.24,27-11.92,6.19-1.8,12.51-3.53,18.61-5.2,18.32-5,37.26-10.19,54.61-18,18-8.06,42-22.75,54.19-46.95A30.53,30.53,0,0,0,687.73,307.59ZM423.86,362.05c-21.35,0-42.85,7.63-58.86,21.63-3.33,2.91-10.91,10.43-9.24,17.28,1.36,5.63,8.52,9.56,21.87,12l14.21,2.62a129.7,129.7,0,0,0,16.89-2.84,104.64,104.64,0,0,0,42.14-21.18c5.88-4.89,11.46-12.09,9.51-17.63-1.59-4.53-8-7.22-13.05-8.67A85.22,85.22,0,0,0,423.86,362.05Zm245.72-67.94a38,38,0,0,0-7.22.7c-20.5,4-37.6,16.62-55.71,30-1.88,1.39-3.77,2.79-5.67,4.18a566.21,566.21,0,0,1,57.81-12c5.13-.79,9.54-1.63,11.51-4.06a23,23,0,0,0,2.74-5.85c.5-1.35,1.05-2.83,1.73-4.31a6.88,6.88,0,0,1,.77-8.19A33,33,0,0,0,669.58,294.11ZM327.91,237.36a12.12,12.12,0,0,0,1.33,1.17c19.33,15,48.12,13.08,71.25,11.52,7.29-.49,14.85-1,22.63-1.41C397,229.33,360,224,330,236.34A14.35,14.35,0,0,0,327.91,237.36Z"/><path class="cls-7" d="M352.72,415.45a179,179,0,0,1-20.44-1.16c-6.14-.7-13.27-2-19.56-5.21-19.87,2-40.73,1.21-61.24-.06-15.62-1-35.07-2.16-50.21-13.36-16.75-12.39-25.08-34.09-24.81-64.54-12.54-.15-25,2.15-34.12,10.16A33.21,33.21,0,0,0,147.55,395a6.87,6.87,0,0,1-6.89,11.89,46.94,46.94,0,0,1-7.37-75.94c12.36-10.81,28.57-13.69,43.83-13.5.26-3,.63-6.08,1.15-9.19l-1.65-.41C164.19,305,151,307,138,309.3a8,8,0,0,1-9.17,3.08,7.48,7.48,0,0,1-5.27-7.69c.22-3.29,2.54-7.19,8.37-8.26,14.72-2.7,31.41-5.76,47.77-2l1.91.47A52.08,52.08,0,0,1,192,277.12C202,266,217.44,259.81,237.79,258.6a90.57,90.57,0,0,1,33.51,3.81,127.85,127.85,0,0,1,35.61,5,102.87,102.87,0,0,1,11.33-12.38C339.46,235.65,372,229,399.1,238.49c9.46,3.31,16.85,8,21.94,14.1,12.11,14.37,10.59,38.14-3.26,50.85a38.23,38.23,0,0,1-14.43,8.27,194.41,194.41,0,0,1,28.81,1.76l1-.51c26-13.17,60.53-7,80.36,14.34,5.49,5.92,9.74,12.6,13.84,19.06s7.86,12.38,12.66,17.45a59.25,59.25,0,0,0,17,12.33c3.57-1.51,7.09-3.08,10.56-4.67,16.46-7.54,33.46-16.31,46.2-29.38a51.85,51.85,0,0,0,10.71-15.91c-2.79.07-5.6.08-8.42-.05-19-.87-34.39-9-41.09-21.75a46.73,46.73,0,0,1-3.85-10.77c-7.11,1.31-14.26,3-21.28,4.6-25.32,5.86-51.5,11.93-76.74,2.4-16.47-6.21-31.65-22.53-27.37-40.54,2.55-10.72,11.88-19.61,24.34-23.21,10.25-3,20.85-2.22,30.21-1.56,14.95,1.06,30.4,2.15,45.18,7.71,17.33,6.52,30.23,18.57,35.39,33.05.24.69.47,1.39.68,2.08q2.85-.33,5.7-.53c23.61-1.71,42.28,6.22,50,21.2a33.53,33.53,0,0,1,3.59,12.69,115.33,115.33,0,0,1,17.81.17c16.84,1.69,29.67,9.89,34.33,21.93,3.76,9.73,1.77,21.76-5.19,31.41-6.58,9.1-16.22,14.78-22.9,18.26a140.08,140.08,0,0,1-78.78,14.9,110.27,110.27,0,0,1-29.26-7.08c-14.22,5.67-29.85,10.49-46,11.82-23.48,1.93-46-3.35-67.85-10.7A188,188,0,0,1,352.72,415.45Zm-4.64-13.81a173.88,173.88,0,0,0,77.08-15.83c-3.66-1.38-7.31-2.78-10.94-4.17-7.51-2.88-15.13-5.81-22.81-8.52a119.17,119.17,0,0,1-12.18,11.47A102.93,102.93,0,0,1,348.08,401.64ZM190.21,332.11c0,18.84,3.74,41,19.24,52.5,11.87,8.78,29.06,9.84,42.88,10.69,16.34,1,32.41,1.71,47.71,1a28.24,28.24,0,0,1-2-17.05c.11-.64.24-1.28.4-1.92-23.68-5.9-47.94-18.26-71-36.59a46.62,46.62,0,0,1-6.67-3.91c-5.83-.73-11.56-1.71-17.09-2.65l-4.88-.82C196,332.91,193.16,332.47,190.21,332.11ZM312,380c-.15.55-.27,1.1-.37,1.66-.56,3.14-.59,7.65,2.49,11.35a13.12,13.12,0,0,0,2,1.94c20.44-2.56,39-8.6,54.5-21.07,2.17-1.76,4.26-3.63,6.28-5.58l-1.31-.4c-4,4.37-10,7.61-16.09,9.36A112.57,112.57,0,0,1,312,380Zm146.37,2.67c17,5,33.87,8,51.33,6.52a130.78,130.78,0,0,0,31-6.79,69.1,69.1,0,0,1-10.66-9.16c-5.71-6-10.07-12.89-14.28-19.53-3.95-6.21-7.68-12.08-12.31-17.07-11.18-12-28.23-18-44.57-16.78,13.39,5.33,21.56,13.83,23.31,24.47,1.41,8.59-1,21.8-20.42,35.91C460.64,381.08,459.5,381.89,458.35,382.69Zm117.82,0a110,110,0,0,0,11.39,1.83,126.2,126.2,0,0,0,71-13.42c8.65-4.5,14.4-9,18.1-14.12,4.21-5.82,5.59-13,3.52-18.4-3.24-8.37-13.95-12.31-22.89-13.21a111.41,111.41,0,0,0-17.9,0c-2.81,10.16-9.05,19.53-15.69,26.34C610.12,365.59,593,374.85,576.17,382.67ZM401.11,362c6.07,2.22,12.09,4.52,18,6.81,7.54,2.89,15,5.75,22.37,8.37q6.27-3.75,12.18-8c7.6-5.52,16.35-13.91,14.93-22.57-1.63-9.95-15.95-14.68-22-16.25q-5.88-1.51-11.77-2.53c-11.49,7.18-20.46,18.09-29.89,29.56C403.67,358.9,402.4,360.45,401.11,362Zm-80.49,5.28a96.11,96.11,0,0,0,35.07-3.22c.67-.19,1.34-.41,2-.66-15.52-3.07-26.8-2.18-35.35,2.76C321.75,366.5,321.18,366.88,320.62,367.28ZM259.23,346c12.59,7.46,28.07,14.75,45,18.7a35.71,35.71,0,0,1,11.21-10.39c15.31-8.84,33.32-6.77,46.08-4.11-4.8-2.63-10.56-4-16.61-5.35-7.07-1.62-14.37-3.3-21.13-7.23-.67-.39-1.33-.79-2-1.22-16,3.1-32.6,6.27-48.93,8.34C268.41,345.26,263.84,345.74,259.23,346Zm121.44,9.15q3.29,1,6.54,2.06c2.37-2.77,4.72-5.63,7.11-8.54,6.51-7.92,13.16-16,20.84-23-21.93-1.11-44.19,1.76-67.07,5.79,7.55,1.74,15.36,3.54,22.43,8.08,5.13,3.29,8.35,7.32,9.58,12A16.88,16.88,0,0,1,380.67,355.1ZM297.5,304.72c-7.79,10.66-16.64,20.49-28.85,26.64l2.52-.31c12.7-1.6,25.68-3.92,38.45-6.35-4.23-5.53-7.6-11.71-10.92-17.78Zm-69,19.13c11.52,1,22.67.45,32.56-4.09,12-5.53,20.48-16,28.66-27.83a48.52,48.52,0,0,0-5.72-6.67,42.8,42.8,0,0,0-14.89-9.08,88.51,88.51,0,0,0-24,3.91c-13.6,4.26-27.91,15-27.19,28.36a19,19,0,0,0,3,9.07c2.1,1.72,4.18,3.45,6.25,5.17Zm77.69-31.69c1.59,2.71,3.08,5.46,4.57,8.17,4.42,8.11,8.66,15.87,14.57,21.35,17.47-3.36,35.17-6.64,52.92-8.47a65.09,65.09,0,0,1-9.48-2.24c-10.47-3.34-19.88-8.71-29-13.89-3.93-2.24-8-4.55-12-6.62a138,138,0,0,0-15.73-6.89C310.11,286.36,308.17,289.24,306.2,292.16ZM190.84,318.35c3.59.41,7,.92,10.24,1.46l.32.05a95.64,95.64,0,0,0-10-6.3C191.15,315.17,191,316.77,190.84,318.35Zm394-26.73A30.5,30.5,0,0,0,587.2,298c6.53,12.42,24.26,14.18,29.54,14.42,3.41.15,6.83.09,10.31-.07a19.42,19.42,0,0,0-2-7.26c-6-11.67-22.88-14.75-36.72-13.75Q586.57,291.44,584.86,291.62Zm-390.34,8.12a94.74,94.74,0,0,1,9.69,5.45c.91-13.18,9.83-23.91,21.24-31.08-8.48,1.9-17.19,5.52-23.29,12.24A38.75,38.75,0,0,0,194.52,299.74ZM320.8,272.19q6.72,2.67,13.3,6.05c4.27,2.2,8.46,4.58,12.51,6.89,8.87,5.06,17.26,9.84,26.35,12.74,11,3.5,26.06,4.14,35.53-4.55,8.52-7.83,9.49-23,2-31.87-3.49-4.14-8.86-7.5-16-10-22.51-7.88-49.45-2.35-67,13.75A80.74,80.74,0,0,0,320.8,272.19Zm166.56-23.74a48.31,48.31,0,0,0-13.42,1.61c-7.59,2.2-13.39,7.37-14.77,13.19-2.38,10,7.71,20.3,18.85,24.5,21.33,8.06,44.38,2.72,68.78-2.94,6.9-1.59,13.92-3.22,21-4.55-3.91-10.48-13.77-19.35-27.13-24.38C527.77,251,513.34,250,499.37,249,495.39,248.73,491.34,248.45,487.36,248.45ZM297.1,279.11c.25.28.5.58.75.87l.41-.6C297.87,279.29,297.49,279.19,297.1,279.11Z"/><path class="cls-8" d="M401.06,84.84c49.83,0,98.14,5,143.6,15,43.71,9.54,82.9,23.16,116.48,40.49,33.09,17.07,59,36.81,76.89,58.68s27,44.82,27,68.32-9.07,46.49-27,68.32-43.8,41.61-76.89,58.68c-33.58,17.33-72.77,31-116.48,40.49-45.46,9.92-93.77,14.94-143.6,14.94s-98.15-5-143.6-14.94c-43.71-9.54-82.91-23.16-116.49-40.49-33.09-17.07-59-36.81-76.89-58.68s-27-44.82-27-68.32,9.07-46.49,27-68.32,43.8-41.61,76.89-58.68c33.58-17.33,72.78-30.95,116.49-40.49,45.45-9.92,93.77-15,143.6-15Zm0-11C194,73.85,26.11,160.45,26.11,267.28S194,460.71,401.06,460.71,776,374.11,776,267.28,608.13,73.85,401.06,73.85Z"/><path class="cls-9" d="M551.55,280.9c-17.54,0-34.1-2.52-46.61-7.1-13.84-5.06-21.46-12.32-21.46-20.44s7.62-15.39,21.46-20.45c12.51-4.57,29.07-7.09,46.61-7.09s34.09,2.52,46.6,7.09c13.84,5.06,21.47,12.32,21.47,20.45S612,268.74,598.15,273.8C585.64,278.38,569.09,280.9,551.55,280.9Zm0-46.7c-37,0-59.69,11.16-59.69,19.16s22.71,19.15,59.69,19.15,59.68-11.15,59.68-19.15S588.53,234.2,551.55,234.2Z"/><path class="cls-10" d="M551.55,274.56c-17.54,0-34.1-2.52-46.61-7.09-13.84-5.06-21.46-12.32-21.46-20.45s7.62-15.39,21.46-20.45c12.51-4.57,29.07-7.09,46.61-7.09s34.09,2.52,46.6,7.09c13.84,5.06,21.47,12.32,21.47,20.45s-7.63,15.39-21.47,20.45C585.64,272,569.09,274.56,551.55,274.56Zm0-46.7c-37,0-59.69,11.16-59.69,19.16s22.71,19.16,59.69,19.16S611.23,255,611.23,247,588.53,227.86,551.55,227.86Z"/><path class="cls-9" d="M603.74,267c-16.88-4.77-32.12-11.7-42.92-19.51-11.94-8.63-17.3-17.7-15.09-25.51s11.53-12.74,26.22-13.84c13.29-1,29.9,1.09,46.78,5.86s32.12,11.71,42.92,19.51c11.94,8.64,17.29,17.7,15.08,25.52s-11.52,12.73-26.21,13.83C637.23,273.9,620.62,271.82,603.74,267Zm12.71-44.93C580.86,212,556,216.6,553.8,224.3S570.44,248.91,606,259s60.47,5.51,62.65-2.19S652,232.17,616.45,222.11Z"/><path class="cls-11" d="M605.46,260.94c-16.88-4.77-32.12-11.7-42.91-19.51-11.94-8.63-17.3-17.69-15.09-25.51s11.52-12.74,26.22-13.84c13.28-1,29.9,1.09,46.77,5.86s32.12,11.71,42.92,19.52c11.94,8.63,17.3,17.69,15.09,25.51s-11.53,12.73-26.22,13.83C639,267.8,622.34,265.72,605.46,260.94ZM618.17,216c-35.58-10.06-60.47-5.51-62.64,2.19s16.63,24.61,52.21,34.68,60.47,5.51,62.65-2.19S653.76,226.08,618.17,216Z"/><path class="cls-9" d="M581.89,301.44c-14.29.57-27.85-.94-38.18-4.26-11.44-3.67-17.88-9.34-18.14-15.95s5.71-12.78,16.81-17.35c10-4.13,23.44-6.72,37.72-7.28s27.84.94,38.18,4.26c11.43,3.67,17.88,9.34,18.14,15.95s-5.71,12.78-16.81,17.35C609.56,298.29,596.17,300.88,581.89,301.44Zm-1.52-38c-30.11,1.2-48.24,11-48,17.53s19.11,14.87,49.22,13.67,48.24-11,48-17.53S610.48,262.22,580.37,263.42Z"/><path class="cls-11" d="M581.68,296.28c-14.28.57-27.84-.94-38.18-4.26-11.43-3.67-17.87-9.34-18.14-15.95s5.71-12.78,16.82-17.35c10-4.13,23.43-6.72,37.72-7.28s27.84.94,38.18,4.26c11.43,3.67,17.87,9.34,18.13,15.95s-5.7,12.78-16.81,17.35C609.36,293.13,596,295.72,581.68,296.28Zm-1.51-38c-30.11,1.2-48.24,11-48,17.53s19.11,14.87,49.22,13.67,48.24-11,48-17.53S610.28,257.06,580.17,258.26Z"/><path class="cls-9" d="M498.43,255.25c-14.28.56-27.84-.95-38.18-4.27-11.43-3.67-17.88-9.34-18.14-15.95s5.71-12.78,16.81-17.35c10-4.13,23.44-6.71,37.72-7.28s27.85.94,38.18,4.26c11.44,3.67,17.88,9.34,18.14,16s-5.71,12.77-16.81,17.34C526.11,252.09,512.71,254.68,498.43,255.25Zm-1.51-38c-30.12,1.2-48.24,11-48,17.54s19.11,14.86,49.22,13.66,48.24-11,48-17.53S527,216,496.92,217.22Z"/><path class="cls-11" d="M498.22,250.08c-14.28.57-27.84-.94-38.18-4.26-11.43-3.67-17.87-9.34-18.13-15.95s5.7-12.78,16.81-17.35c10-4.13,23.44-6.72,37.72-7.28s27.84.94,38.18,4.26c11.43,3.67,17.87,9.34,18.14,15.95s-5.71,12.78-16.82,17.35C525.9,246.93,512.51,249.52,498.22,250.08Zm-1.51-38c-30.11,1.2-48.24,11-48,17.53s19.11,14.87,49.22,13.67,48.24-11,48-17.53S526.82,210.86,496.71,212.06Z"/><path class="cls-12" d="M278.81,148.49c-4.38,6.87-7.05,15.15-6,23.21,1.88,14,14.55,24.13,27.85,28s27.47,3,41.34,3.48c10.37.39,20.85,1.64,30.46,5.55s18.34,10.73,23,20.1,4.71,21.46-1.32,30.12c-3.25,4.67-8,8.09-12.94,10.8-3.57,2-7.72,4.07-8.78,8.05-1.53,5.76,4.34,10.46,9.42,13.37,3.9,2.24,8.06,4.55,12.55,4.4A21.91,21.91,0,0,0,403,293a92.11,92.11,0,0,0,40.31-37.28c9.16-16.27,12.85-35.77,9.46-54.09-5.25-28.3-26.87-51.41-52.48-63.6C377,126.93,351,124,325.44,124.36,307.46,124.63,288.92,132.62,278.81,148.49Z"/><path class="cls-13" d="M324.64,202.75a10.19,10.19,0,0,1,.51-3c1.27-3.8,4.41-6.58,6.8-9.78s4.08-7.7,2-11.1c-.68-1.14-1.72-2-2.39-3.17-2.35-4,.71-9,2-13.54a18,18,0,0,0-2.75-15.39c-2.33-3.14-6-6.52-4.58-10.23-4.41,1.4-4.52,7.9-2.45,12.06s5.48,8.09,5.1,12.76c-.65,8-11.65,11.68-12.95,19.6-.57,3.45.91,6.88,1.14,10.37.35,5.36-1.93,8.24-4.86,10.65C316.35,202.43,320.49,202.64,324.64,202.75Z"/><path class="cls-13" d="M434.12,237.5q-1.81-3.93-3.61-7.88c-.55-1.2-1.21-2.52-2.45-3-2.79-1-4.63,2.84-6.5,5.22-2.48,3.16-6.7,4.18-10.59,5l-12.69,2.68a28.28,28.28,0,0,1-4.49,19.31c-.34.49-.69,1-1.06,1.42,2.93-1.5,5.42-4.06,8.64-4.67,4-.77,8.31,1.75,12.15.27s5.36-6.28,7.62-9.89A18.62,18.62,0,0,1,434.12,237.5Z"/><path class="cls-13" d="M391.93,223.56a12.84,12.84,0,0,1,2.58-1.26c3.36-1.21,7.69-1.69,9.05-5,1.06-2.61-.4-5.7.54-8.36,1.48-4.21,7.52-4.46,10.34-7.91,2.47-3,1.77-7.51,3.15-11.17,1.5-3.95,5.25-6.54,7.54-10.08s2.13-9.6-1.9-10.61c-.24,6.2-6.92,11.3-12.83,9.79,1.32,8.37-4.63,17.32-12.78,19.25-3.15.74-7,.85-8.7,3.63-.88,1.43-.93,3.2-1.1,4.88a19.49,19.49,0,0,1-3.28,9.23A40.56,40.56,0,0,1,391.93,223.56Z"/><path class="cls-13" d="M372.09,208.64c.63.26,1.25.53,1.87.81.17-.17.33-.34.48-.52,4.2-4.88,1.54-12.3,1.61-18.76.07-5.76,2.49-11.85.15-17.07-1.87-4.18-6.56-7.1-6.71-11.7-.1-2.89,1.72-5.57,1.74-8.46,0-2.32-1.12-4.47-2.35-6.41a51.09,51.09,0,0,0-13.73-14.37c-1.77,1.16-1.75,3.92-.68,5.74s2.89,3,4.34,4.56a15.26,15.26,0,0,1,2.73,16.42c-.84,1.86-2.08,3.59-2.39,5.6-.5,3.19,1.38,6.16,2.46,9.18,3.23,9-1.64,20.2-10.37,23.92-1.6.68-3.43,1.25-4.31,2.76a6.7,6.7,0,0,0-.68,3C355.09,203.91,363.9,205.31,372.09,208.64Z"/><path class="cls-14" d="M316.21,318.16a48.36,48.36,0,0,1,24.28-.32,17.8,17.8,0,0,0,4.94.82,15.49,15.49,0,0,0,5.1-1.42L374,307.65a23.31,23.31,0,0,1-5.86,9.23,383.73,383.73,0,0,0,42.9-25.51c2.83-1.94,6-4.58,5.71-8-.18-2.51-2.16-4.45-4.11-6-6.95-5.47-18.42-11.7-27.58-11.41-8.76.29-19.54,6.66-27,11A115.79,115.79,0,0,0,316.21,318.16Z"/><path class="cls-15" d="M287.06,168.73c2.95,3.05,8.14,2.78,11.7.43s5.8-6.27,7.59-10.18,3.32-8,6-11.38c3.81-4.81,9.61-7.6,15.48-9.11s12-1.87,17.95-2.73c1.36-.2,3.07-.81,3.1-2.21a2.52,2.52,0,0,0-.61-1.5c-2.75-3.64-8-3.87-12.52-3.61-9.51.54-19.17,1.87-27.8,6C300.21,138.2,277.38,158.71,287.06,168.73Z"/><path class="cls-16" d="M164.91,187.61c-4,7.15-6.24,15.62-4.62,23.67,2.82,13.94,16.43,23.46,30.29,26.64s28.29,1.46,42.51,1.22c10.63-.19,21.43.49,31.51,3.9s19.46,9.77,24.84,18.94,6.2,21.32.58,30.36c-3,4.88-7.64,8.58-12.54,11.58-3.53,2.17-7.64,4.52-8.46,8.58-1.2,5.88,5.11,10.28,10.49,12.93,4.13,2,8.53,4.12,13.12,3.72a22.63,22.63,0,0,0,8.62-3.09c16.53-9,30.5-22.86,38.84-39.73s10.85-36.68,6.2-54.92c-7.18-28.17-30.78-50.21-57.76-61.06-24.52-9.86-51.36-11.4-77.46-9.59C192.68,162,174.24,171.09,164.91,187.61Z"/><path class="cls-13" d="M215.28,239.65a9.74,9.74,0,0,1,.32-3.08c1.05-3.89,4.09-6.86,6.33-10.21s3.68-8,1.36-11.28c-.77-1.11-1.89-1.93-2.65-3.05-2.66-3.94.16-9.09,1.2-13.73A18,18,0,0,0,218,183c-2.58-3-6.51-6.23-5.34-10-4.42,1.65-4.11,8.2-1.73,12.27s6.12,7.83,6,12.55c-.15,8.07-11.16,12.39-12,20.42-.36,3.51,1.37,6.88,1.83,10.38.71,5.36-1.44,8.39-4.28,11C206.78,239.78,211,239.76,215.28,239.65Z"/><path class="cls-13" d="M329.49,268.54l-4.2-7.72c-.64-1.18-1.4-2.47-2.69-2.86-2.92-.88-4.56,3.12-6.32,5.61-2.33,3.32-6.59,4.58-10.51,5.62L293,272.59a28,28,0,0,1-3.35,19.66c-.32.51-.65,1-1,1.48,2.91-1.66,5.29-4.37,8.54-5.16,4.07-1,8.61,1.29,12.45-.4s5.08-6.61,7.16-10.38A18.85,18.85,0,0,1,329.49,268.54Z"/><path class="cls-13" d="M285.44,256.85a14.13,14.13,0,0,1,2.56-1.41c3.36-1.4,7.76-2.12,8.93-5.56.92-2.69-.77-5.71,0-8.44,1.25-4.32,7.4-4.91,10.06-8.53,2.34-3.17,1.34-7.66,2.52-11.41,1.27-4.06,4.94-6.86,7.06-10.55s1.56-9.78-2.62-10.57c.15,6.25-6.36,11.75-12.5,10.56,1.88,8.34-3.62,17.67-11.84,20.06-3.17.92-7.08,1.24-8.66,4.14-.81,1.48-.75,3.27-.82,5a19.15,19.15,0,0,1-2.76,9.46A42.35,42.35,0,0,1,285.44,256.85Z"/><path class="cls-13" d="M264.19,243c.66.22,1.31.46,2,.71.16-.19.32-.37.46-.56,4-5.14.78-12.45.45-18.95-.3-5.8,1.78-12.06-.95-17.18-2.18-4.09-7.17-6.78-7.62-11.39-.28-2.9,1.41-5.7,1.25-8.61-.13-2.33-1.43-4.43-2.82-6.31A52.59,52.59,0,0,0,242,167c-1.74,1.26-1.55,4-.33,5.81s3.14,2.9,4.73,4.35a15.23,15.23,0,0,1,3.84,16.36c-.74,1.92-1.89,3.72-2.08,5.77-.31,3.23,1.81,6.11,3.11,9.09,3.87,8.86-.39,20.41-9.08,24.63-1.59.77-3.43,1.45-4.23,3a6.6,6.6,0,0,0-.51,3C246.49,239.13,255.6,240.05,264.19,243Z"/><path class="cls-17" d="M214.05,356.19a50.37,50.37,0,0,1,24.82-1.67,18.77,18.77,0,0,0,5.1.55,15.92,15.92,0,0,0,5.13-1.71l23.4-10.94a23.06,23.06,0,0,1-5.4,9.61,388.43,388.43,0,0,0,42.24-28c2.77-2.11,5.81-4.94,5.33-8.39-.34-2.51-2.49-4.35-4.59-5.79-7.46-5.13-19.59-10.75-28.94-9.95-8.94.77-19.56,7.77-26.93,12.51A116.11,116.11,0,0,0,214.05,356.19Z"/><path class="cls-15" d="M174.65,207.51c3.21,2.9,8.5,2.34,12-.22s5.53-6.63,7.12-10.65,2.88-8.25,5.38-11.78c3.59-5.05,9.34-8.18,15.25-10s12.11-2.54,18.19-3.74c1.38-.28,3.09-1,3-2.39a2.57,2.57,0,0,0-.73-1.48c-3-3.51-8.42-3.45-13-2.94-9.7,1.07-19.49,2.94-28,7.61C186.14,176.07,164.11,198,174.65,207.51Z"/><path class="cls-12" d="M68.24,289.46C68,297.67,70,306.2,75.16,312.57c9,11,25.46,13.13,39.2,9.5s25.73-11.86,38.2-18.68c9.33-5.11,19.21-9.53,29.72-11.21s21.76-.39,30.8,5.23,15.39,16,14.63,26.61c-.41,5.72-2.78,11.14-5.72,16.08-2.12,3.56-4.66,7.55-3.51,11.53,1.68,5.76,9.31,6.72,15.3,6.57,4.61-.12,9.47-.32,13.35-2.8a22.72,22.72,0,0,0,6.19-6.75c10.47-15.63,16.38-34.42,15.92-53.23s-7.45-37.53-20-51.51c-19.46-21.61-50.6-30.15-79.53-27.2-26.29,2.67-50.78,13.79-73,27.52C80.94,253.9,68.82,270.5,68.24,289.46Z"/><path class="cls-13" d="M137,312.12a10.09,10.09,0,0,1-1.15-2.87c-.87-3.94.43-8,.86-12s-.45-8.77-4-10.62c-1.2-.62-2.58-.83-3.77-1.47-4.19-2.25-4.09-8.12-5.32-12.71a18,18,0,0,0-10.49-11.81c-3.7-1.48-8.66-2.48-9.39-6.4-3.15,3.52.16,9.17,4.16,11.66s9.06,4.1,11.18,8.31c3.62,7.22-4.12,16.17-1.12,23.66,1.31,3.27,4.41,5.45,6.44,8.33,3.12,4.42,2.62,8.11,1.32,11.71C129.56,316.19,133.32,314.2,137,312.12Z"/><path class="cls-13" d="M251.58,284.6l-7.3-4.89c-1.12-.75-2.4-1.54-3.72-1.28-3,.58-2.58,4.88-3,7.9-.53,4-3.7,7.12-6.7,9.87q-4.87,4.49-9.76,9a28,28,0,0,1,6.18,19c0,.6-.11,1.19-.2,1.78,1.81-2.83,2.65-6.34,5.16-8.55,3.15-2.77,8.23-2.86,10.84-6.14s1.42-8.22,1.51-12.52A18.85,18.85,0,0,1,251.58,284.6Z"/><path class="cls-13" d="M207.15,294.73a13.55,13.55,0,0,1,1.61-2.44c2.32-2.81,5.88-5.49,5.32-9.08-.44-2.81-3.34-4.7-3.91-7.48-.9-4.4,4.28-7.78,5-12.23.59-3.89-2.38-7.4-3.09-11.27-.75-4.19,1.19-8.38,1.35-12.63s-3.17-9.38-7.23-8.13c3,5.46-.17,13.36-6.16,15.15,5.55,6.52,5,17.34-1.15,23.27-2.38,2.29-5.69,4.39-5.75,7.69,0,1.69.87,3.24,1.59,4.78a19.12,19.12,0,0,1,1.95,9.66A41.65,41.65,0,0,1,207.15,294.73Z"/><path class="cls-13" d="M181.87,292.3c.68-.11,1.37-.2,2.07-.29l.15-.7c1.13-6.4-5.1-11.39-8.42-17-3-5-4-11.5-8.83-14.77-3.83-2.61-9.49-2.66-12-6.54-1.6-2.44-1.4-5.7-2.9-8.2-1.2-2-3.33-3.26-5.43-4.28a52.68,52.68,0,0,0-19.61-5.17c-1,1.93.51,4.3,2.41,5.3s4.13,1.1,6.21,1.65a15.25,15.25,0,0,1,11,12.7c.23,2,0,4.17.83,6.07,1.23,3,4.45,4.58,7,6.61,7.55,6,9.15,18.24,3.42,26-1.05,1.42-2.36,2.87-2.35,4.63a6.74,6.74,0,0,0,1,2.93C164.43,297.15,172.92,293.73,181.87,292.3Z"/><path class="cls-14" d="M190.13,415.86a50.51,50.51,0,0,1,21.2-13A18.24,18.24,0,0,0,216.1,401a15.55,15.55,0,0,0,3.74-3.89l15.64-20.57a23,23,0,0,1-.32,11,388,388,0,0,0,24.37-44.46c1.47-3.16,2.85-7.07.82-9.9-1.48-2.07-4.23-2.7-6.75-3-9-1.07-22.35-.41-30.26,4.65-7.55,4.84-13.7,16-18,23.6A116,116,0,0,0,190.13,415.86Z"/><path class="cls-15" d="M86.12,302.55c4.19,1.08,8.62-1.87,10.52-5.76s1.81-8.44,1.34-12.74-1.29-8.64-.71-12.93c.83-6.14,4.47-11.59,8.85-16s9.54-7.88,14.35-11.77c1.1-.89,2.29-2.31,1.58-3.53a2.62,2.62,0,0,0-1.33-1c-4.32-1.69-9.06.86-12.91,3.46-8.08,5.46-15.89,11.67-21.3,19.78C81.67,269.38,72.35,299,86.12,302.55Z"/><path class="cls-18" d="M294.84,309.05c-.92,11.27.52,23.1,2,34.73a10.81,10.81,0,0,0,.65,2.91,5.29,5.29,0,0,0,2.16,2.37c2.88,1.77,5.95,1.46,8.83.86a2.92,2.92,0,0,0,1.68-.79c1.08-1.18.87-3.72.4-5.8-2.61-11.72-10.37-21.71-10.79-33.59-.07-2.07,2.58-11.7.14-11.62C298.12,298.18,295,307.16,294.84,309.05Z"/><path class="cls-18" d="M364.49,290.88c3.89,1.55,6.51,7.3,8.4,12.63q2.53,7.19,4.44,14.68a18.8,18.8,0,0,1,.71,4.05,8.84,8.84,0,0,1-2.43,6.41,13.41,13.41,0,0,1-4.89,2.78,3.38,3.38,0,0,1-2.41.31c-1.19-.42-2.15-2-2.6-3.67a19.8,19.8,0,0,1-.51-5.15,115.9,115.9,0,0,1,2.15-24.78,3.79,3.79,0,0,1,1-2.22c.55-.4,1.5.12,1.57,1.08Z"/><path class="cls-19" d="M372.8,403.72c0,2.06,0,4.43,1.05,6a4.14,4.14,0,0,0,2.62,1.63,10.08,10.08,0,0,0,6.06-.38,3.12,3.12,0,0,0,1.87-1.56c.55-1.22.33-2.95.05-4.51a108.71,108.71,0,0,0-6-20.92c-1.25-3.11-7.81-8.58-7.85-2.49,0,3.2,1.28,7.33,1.63,10.64A96,96,0,0,1,372.8,403.72Z"/><path class="cls-19" d="M331.54,399.67a10.54,10.54,0,0,1,.75,2.41,12.08,12.08,0,0,1-.05,2.82,37.77,37.77,0,0,0,1.4,13.44,7.39,7.39,0,0,1,.46,2.6,3.16,3.16,0,0,1-.7,1.7c-2.13,2.74-6.06,1-8.21-2.54s-2.9-8.3-3.26-12.74a98.06,98.06,0,0,1-.26-11.22c.08-2.38,1.63-8.06,3.32-9.17C328.57,384.6,330.28,396.5,331.54,399.67Z"/><path class="cls-19" d="M292.25,358.87c5.85-5.28,14.64-3.78,20.68,3.53l4.41-11.87c-2.18-7-4.64-14.56-9.15-18.81-2.2-2.08-5.32-4.65-4.76-8,.16-1,1.2,1.34,1.71.68,3.36-4.37,7.8-6.74,12.29-8.51a64.63,64.63,0,0,1,42.41-1.54c1.71.5,3.67,1.33,4.6,3.59,1.43,3.48-1.53,4.28-4.15,4.21q1.17,9.62,2.35,19.23l6.84,4.47c4.07-9.07,13-12.09,20.75-7.87s14,14.89,16.25,26.37c.49,2.55,1.39,5.91,3.16,6a2.1,2.1,0,0,0,1.52-.87c3.91-4.26,3.35-13.55,1.12-20.84-2.88-9.37-8-17.63-14.22-22.78s-13.37-7.18-19.82-5.57a47.53,47.53,0,0,0-9,3.76c-.91.45-2,.84-2.9-.08-1.18-1.25-.95-3.73-.56-5.56,1.12-5.34,2.14-11.52,0-16.85-2.63-6.49-8.46-8.19-13.36-8.71-15.51-1.67-31,.07-45.09,6.56a18.31,18.31,0,0,0-6.7,4.63,14,14,0,0,0-3.09,9.48c.33,7.61,6.1,13.36,7.95,20.8a10.53,10.53,0,0,1,.32,4.15,4.4,4.4,0,0,1-4,3.84c-1.77.14-3.6-.57-5.4-.86-5.14-.83-10.15,2-13.11,7.51s-3.76,13.24-2.22,20.54c.33,1.57,2.13,8.47,4.07,7.1.66-.47.57-3.34.73-4.33a31.83,31.83,0,0,1,1.14-4.76A19.92,19.92,0,0,1,292.25,358.87Z"/><path class="cls-18" d="M283.83,407.2c1,3.63,2.08,7.36,4,10.26a13.09,13.09,0,0,0,9.26,6.05c8.88,1.15,16.08-6.9,22.43-14.56,1.67,1.8,1.87,5.13,1.94,7.95.19,8.27,1.18,17.77,5.87,23.43,3.81,4.59,8.88,5.17,13.5,5.36,14.55.6,29.31-.3,42.1-8a23,23,0,0,0,8.07-7.48A20.69,20.69,0,0,0,393.81,417c-1.21-9.89-8.88-16.42-12-25.79,10.33,1.66,21.07,2.41,29.91-3.49A20,20,0,0,0,419.93,377c1.91-5.91,1.39-13.44-.54-20.11a70.72,70.72,0,0,0-8.56-18.06,155.44,155.44,0,0,1-1.56,23.43,19.36,19.36,0,0,1-1.71,6.39,9.83,9.83,0,0,1-4.31,3.85,36.16,36.16,0,0,1-19.87,4.32c-2-.14-4.3-.29-5.46,1.84a8.26,8.26,0,0,0-.78,3.49c-.22,5,1.55,10.05,3,14.95s2.53,10.53,1,14.81c-1.83,5.27-6.65,6.13-10.8,7.09-8.77,2-17,6.72-26,7.65-4.88.5-10.12-.22-14.71-4a23.83,23.83,0,0,1-8-18.2c.1-2.79.78-5.38.82-8.18s-.86-6.17-2.74-7.35-3.77.32-5.17,2c-4.86,5.76-9.15,14.58-15.89,13.54-3.83-.58-7.32-4.35-10.52-8a63.8,63.8,0,0,1-6.28-8.18c-1.52-2.45-2.57-6.71-4.27-8.61C278.5,388.65,281.49,398.56,283.83,407.2Z"/><path class="cls-20" d="M393.21,319.33c-13.1-6.58-21.78,2.22-21.78,2.22l-4.61-2.33s7.18-9.53,4-21c-2.94-10.66-24.17-18.4-63.25-5.06-23.61,8.06-5.25,38.27-5.25,38.27l-.79,8.32s-12.92-5.56-20,2.95S272.1,383.91,288,404.5s29.33-12.92,29.33-12.92l4.13,6.51s-5.29,21,5.65,30.18,50.43.08,59.43-10.4S380,384.58,380,384.58l6.86-3.5s24.07,5.25,29.83-15.2S406.31,325.91,393.21,319.33Zm13.73,44.32c-4.77,17-28.34,6.63-28.34,6.63l-7.33,8.26s12.91,18.91,5.45,27.61-40.2,16.26-49.28,8.62-.45-27.86-.45-27.86l-10.17-6.52s-8.61,31.75-21.82,14.67-12.7-41.87-6.82-48.93,21.94,2,21.94,2l.84-14.43s-19.3-24.29.28-31c32.4-11.06,51.57-4.95,52.45,4.19.92,9.56-1.34,13.81-2.59,15.28h0l5.9,9.49s9.93-12.48,20.8-7S411.72,346.69,406.94,363.65Z"/><path class="cls-18" d="M390,302.16c-.92,11.27.52,23.1,2,34.73a10.36,10.36,0,0,0,.65,2.91,5.31,5.31,0,0,0,2.16,2.38c2.87,1.77,5.95,1.45,8.83.85a2.85,2.85,0,0,0,1.68-.78c1.07-1.19.86-3.73.4-5.8-2.61-11.72-10.38-21.72-10.8-33.6-.07-2.07,2.59-11.69.14-11.61C393.3,291.3,390.18,300.28,390,302.16Z"/><path class="cls-18" d="M459.68,284c3.89,1.56,6.51,7.31,8.4,12.64,1.69,4.78,3.17,9.69,4.44,14.67a18.19,18.19,0,0,1,.7,4.05,8.76,8.76,0,0,1-2.42,6.41,13.43,13.43,0,0,1-4.89,2.79,3.46,3.46,0,0,1-2.42.31c-1.18-.42-2.14-2-2.59-3.68a19.77,19.77,0,0,1-.51-5.14,114.72,114.72,0,0,1,2.15-24.79,3.85,3.85,0,0,1,1-2.21c.56-.41,1.5.11,1.58,1.07Z"/><path class="cls-19" d="M468,396.83c0,2.06,0,4.44,1.05,6a4.16,4.16,0,0,0,2.62,1.64,10.17,10.17,0,0,0,6.06-.38,3.09,3.09,0,0,0,1.86-1.57c.56-1.21.33-2.95.05-4.5a107.79,107.79,0,0,0-6-20.92c-1.24-3.12-7.8-8.59-7.85-2.49,0,3.2,1.29,7.33,1.64,10.64A95.79,95.79,0,0,1,468,396.83Z"/><path class="cls-19" d="M426.73,392.79a11,11,0,0,1,.75,2.4,12.07,12.07,0,0,1-.05,2.82,37.83,37.83,0,0,0,1.4,13.45,7.34,7.34,0,0,1,.46,2.59,3.27,3.27,0,0,1-.7,1.71c-2.13,2.74-6.06,1-8.22-2.55s-2.9-8.29-3.25-12.74a95.71,95.71,0,0,1-.26-11.21c.08-2.39,1.63-8.07,3.31-9.18C423.76,377.72,425.47,389.61,426.73,392.79Z"/><path class="cls-19" d="M387.43,352c5.86-5.29,14.65-3.79,20.69,3.52l4.41-11.86c-2.18-7-4.64-14.57-9.15-18.82-2.21-2.07-5.32-4.65-4.76-8,.16-1,1.2,1.35,1.71.68,3.36-4.36,7.8-6.74,12.29-8.51a64.66,64.66,0,0,1,42.4-1.54c1.72.51,3.67,1.33,4.6,3.59,1.44,3.49-1.52,4.28-4.15,4.22q1.18,9.62,2.35,19.23l6.85,4.47c4.06-9.07,13-12.09,20.75-7.88s14,14.9,16.24,26.37c.5,2.56,1.4,5.92,3.16,6a2.14,2.14,0,0,0,1.53-.86c3.91-4.27,3.35-13.56,1.12-20.84-2.88-9.38-8-17.63-14.22-22.79s-13.37-7.17-19.83-5.57a47.11,47.11,0,0,0-9,3.77c-.91.45-2,.83-2.9-.09-1.18-1.25-.95-3.72-.57-5.55,1.13-5.35,2.14-11.53,0-16.85-2.63-6.5-8.46-8.19-13.36-8.72-15.52-1.66-31,.07-45.1,6.57a18.12,18.12,0,0,0-6.69,4.63,13.88,13.88,0,0,0-3.09,9.47c.33,7.61,6.1,13.36,7.95,20.81a10.66,10.66,0,0,1,.31,4.14,4.38,4.38,0,0,1-4,3.84c-1.76.14-3.59-.57-5.39-.86-5.14-.82-10.16,2.05-13.11,7.52s-3.77,13.23-2.22,20.54c.33,1.57,2.12,8.46,4.07,7.09.66-.46.57-3.34.73-4.33a30.92,30.92,0,0,1,1.14-4.76A19.81,19.81,0,0,1,387.43,352Z"/><path class="cls-18" d="M379,400.31c1,3.64,2.08,7.36,4,10.26a13.1,13.1,0,0,0,9.26,6.06c8.88,1.14,16.07-6.9,22.43-14.57,1.66,1.8,1.87,5.13,1.93,7.95.2,8.28,1.18,17.77,5.88,23.43,3.81,4.59,8.88,5.17,13.5,5.36,14.55.61,29.31-.3,42.09-8a23,23,0,0,0,8.08-7.48A20.71,20.71,0,0,0,489,410.08c-1.21-9.9-8.89-16.43-12-25.8,10.32,1.67,21.06,2.41,29.91-3.49a20.08,20.08,0,0,0,8.16-10.64c1.91-5.91,1.39-13.44-.53-20.11A70.56,70.56,0,0,0,506,332a155.61,155.61,0,0,1-1.57,23.43,19.18,19.18,0,0,1-1.71,6.39,9.9,9.9,0,0,1-4.31,3.85A36.21,36.21,0,0,1,478.57,370c-2-.14-4.3-.29-5.47,1.84a8.37,8.37,0,0,0-.77,3.48c-.22,5,1.55,10.06,3,15s2.53,10.53,1,14.8c-1.83,5.27-6.65,6.14-10.8,7.09-8.77,2-17,6.73-26,7.65-4.88.51-10.13-.22-14.71-4a23.84,23.84,0,0,1-8-18.2c.1-2.79.78-5.38.81-8.19s-.85-6.17-2.73-7.35-3.77.33-5.18,2c-4.85,5.77-9.14,14.58-15.88,13.55-3.83-.59-7.32-4.36-10.52-8a64.61,64.61,0,0,1-6.28-8.19c-1.52-2.44-2.57-6.71-4.27-8.6C373.69,381.76,376.67,391.67,379,400.31Z"/><path class="cls-20" d="M488.4,312.45c-13.11-6.58-21.79,2.21-21.79,2.21L462,312.34s7.19-9.54,4-21c-2.94-10.65-24.18-18.39-63.25-5.05-23.61,8.06-5.25,38.27-5.25,38.27l-.79,8.32s-12.92-5.57-20,2.94-9.45,41.18,6.48,61.77,29.33-12.93,29.33-12.93l4.13,6.51s-5.3,21,5.65,30.18,50.43.08,59.42-10.4-6.57-33.28-6.57-33.28l6.86-3.5s24.07,5.25,29.83-15.21S501.5,319,488.4,312.45Zm13.73,44.31c-4.77,17-28.34,6.63-28.34,6.63l-7.33,8.27s12.91,18.91,5.45,27.6-40.2,16.27-49.28,8.63-.45-27.87-.45-27.87L412,373.5s-8.61,31.75-21.82,14.68-12.71-41.87-6.82-48.93,21.94,2,21.94,2l.84-14.44s-19.3-24.28.28-31c32.4-11.06,51.57-4.94,52.45,4.19.92,9.56-1.34,13.82-2.6,15.29h0l5.89,9.49s9.94-12.47,20.81-7S506.9,339.8,502.13,356.76Z"/><path class="cls-18" d="M484.58,293.55c-.92,11.26.53,23.1,2,34.72a10.27,10.27,0,0,0,.64,2.91,5.39,5.39,0,0,0,2.17,2.38c2.87,1.77,5.95,1.45,8.83.85a2.9,2.9,0,0,0,1.68-.78c1.07-1.19.86-3.73.4-5.8-2.61-11.72-10.38-21.72-10.8-33.59-.07-2.08,2.59-11.7.14-11.62C487.86,282.68,484.74,291.66,484.58,293.55Z"/><path class="cls-18" d="M554.23,275.37c3.89,1.56,6.52,7.31,8.41,12.64q2.54,7.19,4.44,14.67a18.87,18.87,0,0,1,.7,4.06,8.71,8.71,0,0,1-2.43,6.4,13.25,13.25,0,0,1-4.88,2.79,3.46,3.46,0,0,1-2.42.31c-1.18-.42-2.14-2-2.6-3.67a20.28,20.28,0,0,1-.5-5.15,114.72,114.72,0,0,1,2.15-24.79,3.79,3.79,0,0,1,1-2.21c.56-.4,1.5.11,1.58,1.08Z"/><path class="cls-19" d="M562.55,388.22c0,2.06,0,4.43,1.05,6a4.12,4.12,0,0,0,2.62,1.64,10.17,10.17,0,0,0,6.06-.38,3.09,3.09,0,0,0,1.86-1.57c.56-1.21.33-3,.05-4.5a107.79,107.79,0,0,0-6-20.92c-1.24-3.11-7.8-8.58-7.85-2.49,0,3.2,1.29,7.33,1.64,10.64A100.13,100.13,0,0,1,562.55,388.22Z"/><path class="cls-19" d="M521.29,384.17a11,11,0,0,1,.75,2.4,12.06,12.06,0,0,1,0,2.82,37.83,37.83,0,0,0,1.4,13.45,7.38,7.38,0,0,1,.46,2.59,3.24,3.24,0,0,1-.7,1.71c-2.13,2.74-6.07,1-8.22-2.54s-2.9-8.3-3.26-12.74a98.09,98.09,0,0,1-.25-11.22c.08-2.38,1.63-8.07,3.31-9.18C518.31,369.1,520,381,521.29,384.17Z"/><path class="cls-19" d="M482,343.37c5.86-5.28,14.65-3.79,20.69,3.52q2.2-5.92,4.4-11.86c-2.17-7-4.64-14.57-9.15-18.82-2.2-2.07-5.31-4.64-4.76-8,.17-1,1.21,1.35,1.72.69,3.36-4.37,7.8-6.74,12.28-8.51a64.56,64.56,0,0,1,42.41-1.54c1.72.5,3.67,1.32,4.6,3.59,1.44,3.48-1.52,4.27-4.15,4.21q1.17,9.62,2.35,19.23l6.85,4.47c4.06-9.07,13-12.09,20.75-7.88s14,14.9,16.24,26.37c.5,2.56,1.4,5.92,3.16,6a2.21,2.21,0,0,0,1.53-.87c3.91-4.27,3.35-13.56,1.12-20.84-2.88-9.38-8-17.63-14.22-22.79s-13.37-7.17-19.83-5.57a46.84,46.84,0,0,0-9,3.77c-.92.45-2,.84-2.9-.09-1.18-1.25-1-3.72-.57-5.55,1.12-5.34,2.14-11.53,0-16.85-2.63-6.49-8.46-8.19-13.36-8.72-15.52-1.66-31,.07-45.1,6.57a18,18,0,0,0-6.69,4.63,13.9,13.9,0,0,0-3.09,9.47c.32,7.62,6.1,13.36,7.94,20.81a10.49,10.49,0,0,1,.32,4.14,4.38,4.38,0,0,1-4,3.84c-1.77.15-3.59-.57-5.39-.86-5.15-.82-10.16,2.05-13.11,7.52s-3.77,13.24-2.23,20.54c.34,1.57,2.13,8.46,4.08,7.09.65-.46.57-3.34.73-4.33A30.79,30.79,0,0,1,476.8,352,19.9,19.9,0,0,1,482,343.37Z"/><path class="cls-18" d="M473.58,391.7c1,3.63,2.08,7.35,4,10.26a13.12,13.12,0,0,0,9.26,6.05c8.88,1.15,16.07-6.9,22.43-14.56,1.66,1.8,1.87,5.13,1.93,7.94.2,8.28,1.18,17.77,5.88,23.43,3.81,4.59,8.88,5.17,13.5,5.37,14.55.6,29.31-.31,42.09-8a23,23,0,0,0,8.08-7.48,20.76,20.76,0,0,0,2.83-13.25c-1.21-9.9-8.89-16.42-12-25.79,10.32,1.66,21.06,2.41,29.91-3.5a20,20,0,0,0,8.16-10.64c1.91-5.91,1.39-13.44-.53-20.11a70.56,70.56,0,0,0-8.56-18.06A155.52,155.52,0,0,1,599,346.79a19.18,19.18,0,0,1-1.71,6.39A9.83,9.83,0,0,1,593,357a36.13,36.13,0,0,1-19.86,4.32c-2-.14-4.3-.29-5.47,1.84a8.37,8.37,0,0,0-.77,3.48c-.22,5,1.55,10.06,3,15s2.53,10.53,1,14.8c-1.84,5.27-6.65,6.14-10.8,7.1-8.78,2-17,6.72-26,7.65-4.88.5-10.13-.23-14.71-4a23.84,23.84,0,0,1-8-18.2c.1-2.79.78-5.38.81-8.19s-.85-6.16-2.73-7.35-3.77.33-5.18,2c-4.85,5.77-9.14,14.59-15.88,13.55-3.83-.59-7.32-4.36-10.52-8a63.22,63.22,0,0,1-6.28-8.19c-1.52-2.44-2.57-6.7-4.27-8.6C468.24,373.14,471.23,383.05,473.58,391.7Z"/><path class="cls-20" d="M583,303.83c-13.1-6.58-21.78,2.21-21.78,2.21l-4.61-2.32s7.19-9.54,4-21c-2.94-10.65-24.17-18.39-63.24-5.05C473.74,285.76,492.1,316,492.1,316l-.79,8.32s-12.92-5.57-20,2.95-9.45,41.17,6.48,61.76,29.33-12.93,29.33-12.93l4.12,6.52s-5.29,21,5.66,30.18,50.43.07,59.42-10.41-6.57-33.28-6.57-33.28l6.86-3.5s24.07,5.25,29.82-15.2S596.06,310.41,583,303.83Zm13.74,44.31c-4.78,17-28.34,6.64-28.34,6.64L561,363s12.92,18.91,5.45,27.6-40.2,16.27-49.27,8.63-.45-27.87-.45-27.87l-10.18-6.52s-8.6,31.75-21.81,14.68-12.71-41.87-6.82-48.93,21.94,2,21.94,2l.84-14.44s-19.31-24.28.27-31c32.41-11.07,51.58-4.95,52.46,4.19.91,9.55-1.34,13.81-2.6,15.28h0l5.89,9.49s9.94-12.48,20.81-7S601.46,331.18,596.69,348.14Z"/></svg>