<svg id="Layer_1" data-name="Layer 1" xmlns="http://www.w3.org/2000/svg" viewBox="0 0 805 733"><defs><style>.cls-1{fill:#c44d4d;}.cls-2{fill:#e55d57;}.cls-3{fill:#e8cbac;}.cls-4{fill:#e5925a;}.cls-17,.cls-5{fill:#fff;}.cls-5{opacity:0.39;}.cls-6{fill:#e0b15c;}.cls-7{fill:#f7c663;}.cls-8{fill:#f7dfcd;}.cls-9{fill:#60934c;}.cls-10{fill:#c3ea8f;}.cls-11{fill:#a8ce7c;}.cls-12{fill:#c6827b;}.cls-13{fill:#a07365;}.cls-14{fill:#e09589;}.cls-15{fill:#bc8975;}.cls-16{fill:#819b5f;}.cls-17{opacity:0.52;}</style></defs><title>Food</title><path class="cls-1" d="M512.06,635.87S499.81,678,402.84,677.72c-91.95-.24-109.21-41.85-109.21-41.85V569.53H512.06Z"/><path class="cls-2" d="M402.84,270H49.68s8.67,127.3,83.7,227.1C241.57,641,402.84,641,402.84,641s161.27,0,269.46-143.92C747.33,397.26,756,270,756,270Z"/><path class="cls-1" d="M698.44,270c-6.91,42.93-26.64,128.25-80.23,199.54C510,613.42,348.75,613.42,348.75,613.42s-52.41,0-117.51-26.66C318.73,641,402.84,641,402.84,641s161.27,0,269.46-143.92C747.33,397.26,756,270,756,270Z"/><ellipse class="cls-3" cx="402.84" cy="269.96" rx="353.16" ry="182.19"/><ellipse class="cls-4" cx="402.84" cy="329.16" rx="334.09" ry="122.99"/><path class="cls-5" d="M134.23,425c-.28,12,6.17,23,12.41,33.22,5.41,8.89,10.84,17.79,16.8,26.32a249.26,249.26,0,0,0,30,35.41c3.88,3.8,8.14,7.61,13.41,8.88s11.79-1,13.5-6.12c1.82-5.47-2.25-11-6-15.33C196.6,487,178.73,465.9,169.74,440.48c-2.11-6-3.78-12.26-7.59-17.32C155.64,414.52,134.61,408.88,134.23,425Z"/><path class="cls-6" d="M450,451.12a6.49,6.49,0,0,1-6.21-8.3c1-3.4-1.73-7.47-4.8-9.57-4.33-3-10.22-4.05-15.91-5.1l-29.39-5.42c-8.48.82-16.95,1.07-25.26,1.31l-44,1.26c-27.74.8-56.51.06-76.63-18.13-9.68-8.75-16.69-23.38-10.55-36.36,2-4.27,5.38-8.09,10.28-11.67,18.59-13.58,41.66-13.44,64-13.32,4.87,0,9.9.06,14.69-.07A189.17,189.17,0,0,0,425.52,314c12.93-8.69,19.69-17.14,20.65-25.8s-4-17.23-9.31-23.49c-11.73.55-23,1.25-33.69,2-22.71,1.52-53.82,3.62-75.91-13.54-5-3.86-7.23-8.18-6.71-12.84.54-5,4.05-8.8,10.43-11.42,18.27-7.54,39.55-9.3,59.91-5a102.84,102.84,0,0,1,51.41,27.59c24.24-1,50.19-1.35,76.42,0,15.64.81,33.61,2.41,49,11,7.5,4.2,11,10.66,9.28,16.85-1.28,4.46-4.85,6.95-6.76,8.29-5.27,3.7-10.87,7.16-16.29,10.51-16.64,10.28-32.35,20-39.51,35.95-1.34,3-1,4-1,4s.3.52,2,1.42c12.46,6.44,27.87,1.45,35.94-2.1,13.2-5.79,25.49-14.89,37.38-23.69,17.46-12.93,35.52-26.3,57.72-30.58,14.63-2.83,32,.7,37.67,14.95,3,7.44,1.92,16.3-3.15,26.35-13.2,26.19-38.45,41.76-57.31,50.21-17.26,7.73-35.59,12.75-53.32,17.59-5.69,1.56-11.59,3.17-17.32,4.84-7.83,2.28-15.35,4.7-21.28,9.15-4.58,3.44-9.33,9.5-8.92,16.18a6.52,6.52,0,0,1-2,5.13,6.44,6.44,0,0,1-5.26,1.68c-6.42-.85-13.69-1.81-20.38-5.16-8.36-4.18-13.88-11.44-14.74-19.4-.65-5.9,1.33-11.23,2.87-14.72,7.13-16.16,20.44-27.39,35.14-35.63a39.06,39.06,0,0,1-8.94-3.3,17,17,0,0,1-7.61-7c-3.25-6.34-.26-13,.72-15.21,8.78-19.58,26.94-30.81,44.51-41.66,5.27-3.26,10.71-6.62,15.67-10.1a15,15,0,0,0,1.4-1.06,10.61,10.61,0,0,0-2.82-2.19c-13-7.26-29.17-8.66-43.34-9.4-22.35-1.17-44.56-1.07-65.65-.37,4.5,7.26,7.7,16,6.64,25.54-1.41,12.68-10,24.16-26.29,35.12a202.48,202.48,0,0,1-106.23,34c-5,.13-10.14.1-15.11.07-21.14-.13-41.1-.24-56.24,10.83-3.11,2.27-5.15,4.48-6.22,6.75-3.13,6.62,1.41,15.69,7.53,21.21,16.57,15,42.47,15.53,67.58,14.8l31.92-.92a22,22,0,0,1-8.39-12.51c-2.31-9.53,2.22-19.86,12.77-29.08,23.91-20.92,59.09-28.78,89.63-20,11.22,3.21,18.27,8.7,20.95,16.32,3.47,9.89-1.22,21.13-12.89,30.85a112,112,0,0,1-31.91,18.56c6.23,1.15,13.79,2.67,20.13,7,8.3,5.68,12.37,15.51,9.9,23.9A6.48,6.48,0,0,1,450,451.12Zm222.9-143.19a35.56,35.56,0,0,0-1.7,4.07,31,31,0,0,1-4.67,9.18c-5.16,6.35-13.45,7.62-18.94,8.45a521.07,521.07,0,0,0-94.79,23.81c-21.61,7.65-47.68,19.31-57.6,41.77-1.49,3.38-2.08,6-1.84,8.08.37,3.47,3.39,7.09,7.67,9.24a35.73,35.73,0,0,0,9.64,2.92c1.72-7.34,6.42-14.29,13.39-19.53,7.67-5.76,16.77-8.7,25.44-11.23,5.84-1.7,11.78-3.32,17.53-4.9,17.25-4.71,35.09-9.59,51.43-16.91,17-7.6,39.56-21.43,51.05-44.23A28.78,28.78,0,0,0,672.86,307.93ZM424.32,359.22c-20.1,0-40.36,7.19-55.44,20.37-3.14,2.75-10.27,9.83-8.71,16.28,1.29,5.3,8,9,20.6,11.33l13.39,2.46A123.41,123.41,0,0,0,410.07,407a98.67,98.67,0,0,0,39.7-20c5.53-4.6,10.79-11.38,9-16.6-1.5-4.27-7.51-6.8-12.29-8.16A80.11,80.11,0,0,0,424.32,359.22Zm231.44-64a36.11,36.11,0,0,0-6.8.66c-19.31,3.73-35.42,15.65-52.47,28.28l-5.34,3.94a528.59,528.59,0,0,1,54.45-11.27c4.83-.74,9-1.54,10.84-3.82A21.76,21.76,0,0,0,659,307.5c.47-1.27,1-2.66,1.63-4.06a6.5,6.5,0,0,1,.72-7.71A31.05,31.05,0,0,0,655.76,295.23ZM333.94,241.78a10.84,10.84,0,0,0,1.26,1.1c18.2,14.14,45.32,12.31,67.1,10.85,6.87-.46,14-.92,21.32-1.33-24.62-18.19-59.44-23.23-87.71-11.58A15.22,15.22,0,0,0,333.94,241.78Z"/><path class="cls-7" d="M357.32,409.52a169.81,169.81,0,0,1-19.26-1.09c-5.78-.66-12.49-1.85-18.42-4.91-18.72,1.88-38.37,1.14-57.68,0-14.72-.91-33-2-47.29-12.59-15.78-11.67-23.63-32.11-23.37-60.8-11.83-.13-23.52,2-32.14,9.58a31.27,31.27,0,0,0,4.91,50.58,6.48,6.48,0,0,1-6.49,11.21,44.21,44.21,0,0,1-6.94-71.53c11.63-10.19,26.88-12.9,41.27-12.72.25-2.82.6-5.72,1.09-8.65l-1.55-.38c-11.67-2.7-24.6-.76-36.36,1.37a7.55,7.55,0,0,1-8.64,2.89,7,7,0,0,1-5-7.24c.21-3.1,2.38-6.76,7.88-7.77,13.87-2.55,29.59-5.43,45-1.87.61.14,1.21.29,1.81.45a49,49,0,0,1,9.74-16.78c9.47-10.43,24-16.3,43.15-17.44a85.35,85.35,0,0,1,31.57,3.6,120.82,120.82,0,0,1,33.54,4.74,97.28,97.28,0,0,1,10.67-11.67c20-18.29,50.59-24.56,76.16-15.61,8.91,3.12,15.86,7.59,20.66,13.28,11.41,13.54,10,35.92-3.06,47.9a36.19,36.19,0,0,1-13.6,7.79,181.48,181.48,0,0,1,27.14,1.66l.95-.49c24.47-12.4,57-6.59,75.69,13.51,5.18,5.57,9.17,11.87,13,18s7.4,11.66,11.92,16.43a55.9,55.9,0,0,0,16,11.62c3.36-1.43,6.68-2.91,10-4.41,15.5-7.09,31.51-15.36,43.51-27.67a48.75,48.75,0,0,0,10.09-15c-2.62.08-5.27.08-7.93,0-17.92-.82-32.39-8.48-38.7-20.49a43.64,43.64,0,0,1-3.63-10.14c-6.7,1.24-13.43,2.8-20.05,4.33-23.84,5.52-48.5,11.24-72.27,2.27-15.51-5.86-29.82-21.23-25.78-38.2,2.4-10.09,11.18-18.46,22.92-21.86,9.65-2.79,19.64-2.08,28.46-1.46,14.07,1,28.63,2,42.55,7.26,16.33,6.15,28.47,17.49,33.33,31.13.23.65.45,1.31.65,2,1.79-.21,3.57-.37,5.36-.5,22.24-1.61,39.83,5.85,47,20a31.56,31.56,0,0,1,3.38,12,109.37,109.37,0,0,1,16.77.16c15.87,1.59,27.95,9.32,32.34,20.65,3.55,9.17,1.67,20.51-4.89,29.59-6.19,8.57-15.27,13.92-21.56,17.2a132,132,0,0,1-74.2,14,103.76,103.76,0,0,1-27.56-6.67c-13.4,5.34-28.12,9.88-43.37,11.14-22.1,1.82-43.31-3.15-63.9-10.08A177,177,0,0,1,357.32,409.52Zm-4.38-13a163.64,163.64,0,0,0,72.6-14.92q-5.16-2-10.3-3.93c-7.07-2.71-14.25-5.47-21.49-8a111.87,111.87,0,0,1-11.47,10.81A97.31,97.31,0,0,1,352.94,396.52ZM204.25,331c0,17.75,3.52,38.65,18.12,49.45,11.18,8.27,27.37,9.27,40.38,10.07,15.4.95,30.54,1.61,44.94.95a26.74,26.74,0,0,1-1.85-16.06c.11-.6.24-1.2.38-1.8-22.3-5.56-45.15-17.21-66.88-34.47a43.23,43.23,0,0,1-6.29-3.69c-5.49-.68-10.89-1.6-16.1-2.49l-4.59-.77C209.74,331.77,207,331.36,204.25,331Zm114.69,45.13c-.14.51-.26,1-.35,1.56-.53,3-.55,7.21,2.35,10.69a13,13,0,0,0,1.88,1.83c19.25-2.41,36.78-8.1,51.33-19.85,2.05-1.65,4-3.41,5.92-5.25l-1.24-.38c-3.8,4.12-9.4,7.17-15.15,8.82A106.2,106.2,0,0,1,318.94,376.15Zm137.87,2.51c16,4.7,31.9,7.5,48.34,6.14a122.75,122.75,0,0,0,29.23-6.39,65.79,65.79,0,0,1-10-8.63c-5.38-5.68-9.48-12.14-13.45-18.39-3.72-5.86-7.23-11.38-11.6-16.09-10.52-11.33-26.57-17-42-15.8,12.62,5,20.31,13,22,23.05,1.32,8.09-.93,20.53-19.23,33.82C459,377.15,457.89,377.91,456.81,378.66Zm111,0a101.51,101.51,0,0,0,10.73,1.73,119,119,0,0,0,66.85-12.64c8.14-4.24,13.56-8.47,17-13.3,4-5.49,5.26-12.29,3.31-17.33-3.05-7.89-13.14-11.6-21.56-12.45a105.45,105.45,0,0,0-16.86,0c-2.65,9.56-8.53,18.39-14.78,24.8C599.75,362.56,583.6,371.28,567.78,378.64ZM402.89,359.17c5.72,2.09,11.39,4.27,17,6.42C427,368.31,434,371,441,373.47q5.9-3.53,11.47-7.57c7.15-5.2,15.4-13.1,14.06-21.26-1.54-9.37-15-13.83-20.75-15.31q-5.53-1.43-11.08-2.38c-10.83,6.76-19.28,17-28.16,27.85Zm-75.81,5a90.62,90.62,0,0,0,33-3q.94-.27,1.89-.63c-14.62-2.89-25.25-2.05-33.3,2.61Q327.88,363.58,327.08,364.15Zm-57.82-20.09c11.86,7,26.43,13.89,42.4,17.61a33.87,33.87,0,0,1,10.56-9.79c14.42-8.32,31.38-6.37,43.4-3.87-4.52-2.48-9.94-3.72-15.65-5-6.65-1.53-13.53-3.11-19.89-6.81-.64-.37-1.25-.75-1.86-1.15-15.11,2.92-30.7,5.9-46.09,7.85C277.91,343.41,273.6,343.86,269.26,344.06Zm114.38,8.62c2.06.62,4.12,1.27,6.16,1.94,2.23-2.61,4.45-5.3,6.7-8.05,6.13-7.46,12.39-15.07,19.63-21.65-20.65-1.05-41.63,1.65-63.17,5.46,7.11,1.63,14.46,3.33,21.12,7.61,4.83,3.1,7.87,6.89,9,11.27A16.15,16.15,0,0,1,383.64,352.68ZM305.3,305.23c-7.34,10-15.67,19.3-27.17,25.09l2.37-.29c12-1.52,24.19-3.7,36.22-6a130.14,130.14,0,0,1-10.29-16.75C306.05,306.6,305.68,305.91,305.3,305.23Zm-65,18c10.85.94,21.36.43,30.67-3.85,11.32-5.21,19.29-15.1,27-26.21a45.38,45.38,0,0,0-5.38-6.29,40.53,40.53,0,0,0-14-8.55A83.58,83.58,0,0,0,255.94,282c-12.8,4-26.28,14.09-25.61,26.71a18,18,0,0,0,2.8,8.55c2,1.62,3.93,3.25,5.88,4.87ZM313.5,293.4c1.49,2.55,2.9,5.13,4.3,7.69,4.17,7.64,8.16,15,13.73,20.11,16.45-3.17,33.12-6.25,49.84-8a62.07,62.07,0,0,1-8.93-2.11c-9.86-3.15-18.72-8.2-27.29-13.08-3.7-2.11-7.52-4.29-11.3-6.23A127.51,127.51,0,0,0,319,285.3C317.18,287.93,315.35,290.64,313.5,293.4ZM204.84,318.06c3.38.39,6.62.87,9.64,1.37l.31.06a90,90,0,0,0-9.45-5.94C205.14,315.06,205,316.58,204.84,318.06ZM576,292.88a28.3,28.3,0,0,0,2.2,6c6.15,11.7,22.85,13.36,27.83,13.58,3.2.15,6.42.09,9.71-.06a18.37,18.37,0,0,0-1.94-6.84c-5.62-11-21.55-13.89-34.58-12.95C578.12,292.68,577,292.77,576,292.88Zm-367.66,7.65a87.74,87.74,0,0,1,9.12,5.14c.86-12.42,9.26-22.52,20-29.28-8,1.79-16.19,5.2-21.94,11.53A36.41,36.41,0,0,0,208.31,300.53Zm118.94-25.95c4.21,1.68,8.4,3.58,12.53,5.7s8,4.32,11.78,6.5c8.36,4.76,16.25,9.26,24.82,12,10.33,3.3,24.55,3.9,33.46-4.29,8-7.37,9-21.68,1.92-30-3.28-3.89-8.34-7.06-15-9.4-21.2-7.42-46.57-2.22-63.14,12.95A75.7,75.7,0,0,0,327.25,274.58Zm156.88-22.36a45.44,45.44,0,0,0-12.64,1.52c-7.15,2.07-12.61,6.95-13.92,12.42-2.23,9.41,7.27,19.13,17.76,23.08,20.1,7.59,41.8,2.56,64.78-2.77,6.5-1.5,13.12-3,19.79-4.29-3.68-9.87-13-18.22-25.55-23-12.15-4.58-25.75-5.54-38.91-6.46C491.69,252.49,487.88,252.22,484.13,252.22ZM304.93,281.1c.23.27.47.54.7.82l.39-.57Z"/><path class="cls-8" d="M402.84,98.12A636.08,636.08,0,0,1,538.1,112.2c41.17,9,78.08,21.82,109.71,38.13C679,166.41,703.35,185,720.24,205.61s25.4,42.21,25.4,64.35-8.55,43.79-25.4,64.35S679,373.5,647.81,389.58c-31.63,16.32-68.54,29.15-109.71,38.13-42.82,9.35-88.32,14.08-135.26,14.08s-92.44-4.73-135.25-14.08c-41.18-9-78.09-21.81-109.72-38.13-31.17-16.08-55.54-34.67-72.42-55.27S60,292.1,60,270s8.55-43.79,25.41-64.35,41.25-39.2,72.42-55.28C189.5,134,226.41,121.19,267.59,112.2A636,636,0,0,1,402.84,98.12Zm0-10.35c-195,0-353.16,81.57-353.16,182.19S207.8,452.15,402.84,452.15,756,370.58,756,270,597.89,87.77,402.84,87.77Z"/><path class="cls-9" d="M320.2,274.16c-16.52,0-32.11-2.38-43.9-6.68-13-4.77-20.21-11.61-20.21-19.26s7.18-14.5,20.21-19.26c11.79-4.31,27.38-6.68,43.9-6.68s32.12,2.37,43.9,6.68c13,4.76,20.22,11.6,20.22,19.26s-7.18,14.49-20.22,19.26C352.32,271.78,336.73,274.16,320.2,274.16Zm0-44c-34.83,0-56.21,10.51-56.21,18.05s21.38,18,56.21,18,56.22-10.51,56.22-18S355,230.17,320.2,230.17Z"/><path class="cls-10" d="M320.2,268.19c-16.52,0-32.11-2.38-43.9-6.68-13-4.77-20.21-11.61-20.21-19.26s7.18-14.5,20.21-19.26c11.79-4.31,27.38-6.68,43.9-6.68s32.12,2.37,43.9,6.68c13,4.76,20.22,11.6,20.22,19.26s-7.18,14.49-20.22,19.26C352.32,265.81,336.73,268.19,320.2,268.19Zm0-44c-34.83,0-56.21,10.51-56.21,18.05s21.38,18,56.21,18,56.22-10.51,56.22-18S355,224.2,320.2,224.2Z"/><path class="cls-9" d="M369.36,261.11c-15.9-4.5-30.25-11-40.42-18.38-11.25-8.13-16.29-16.67-14.21-24s10.85-12,24.69-13c12.52-.94,28.16,1,44.06,5.52s30.26,11,40.43,18.37c11.24,8.14,16.29,16.67,14.21,24s-10.86,12-24.7,13C400.91,267.56,385.26,265.6,369.36,261.11Zm12-42.33c-33.51-9.48-56.95-5.18-59,2.07S338,244,371.51,253.51s57,5.19,59-2.06S414.85,228.27,381.33,218.78Z"/><path class="cls-11" d="M371,255.36c-15.9-4.49-30.26-11-40.43-18.37-11.24-8.14-16.29-16.67-14.21-24s10.86-12,24.7-13c12.51-.93,28.16,1,44.06,5.52s30.25,11,40.42,18.38c11.25,8.13,16.29,16.67,14.21,24s-10.85,12-24.69,13C402.53,261.82,386.89,259.86,371,255.36ZM383,213c-33.52-9.48-57-5.19-59,2.06s15.67,23.18,49.19,32.67,56.95,5.19,59-2.07S416.47,222.52,383,213Z"/><path class="cls-9" d="M348.78,293.51c-13.45.54-26.22-.89-36-4-10.77-3.46-16.84-8.79-17.09-15s5.38-12,15.84-16.34c9.46-3.89,22.08-6.33,35.53-6.86s26.22.89,36,4c10.77,3.46,16.84,8.8,17.08,15s-5.37,12-15.83,16.34C374.85,290.54,362.23,293,348.78,293.51Zm-1.43-35.81c-28.36,1.12-45.43,10.38-45.19,16.51s18,14,46.36,12.87,45.44-10.38,45.2-16.51S375.72,256.57,347.35,257.7Z"/><path class="cls-11" d="M348.59,288.65c-13.46.53-26.23-.89-36-4-10.77-3.46-16.84-8.79-17.09-15s5.38-12,15.84-16.34c9.46-3.89,22.07-6.33,35.53-6.86s26.22.89,36,4c10.77,3.46,16.83,8.8,17.08,15s-5.38,12-15.83,16.34C374.66,285.68,362,288.11,348.59,288.65Zm-1.43-35.81C318.8,254,301.73,263.21,302,269.35s18,14,46.36,12.87,45.44-10.38,45.19-16.51S375.52,251.71,347.16,252.84Z"/><path class="cls-9" d="M500.17,259.7c-13.45.53-26.22-.89-36-4-10.77-3.46-16.84-8.79-17.09-15s5.38-12,15.84-16.33c9.46-3.89,22.08-6.33,35.53-6.86s26.22.89,36,4c10.77,3.46,16.84,8.8,17.08,15s-5.37,12-15.83,16.34C526.24,256.73,513.62,259.16,500.17,259.7Zm-1.43-35.82c-28.36,1.13-45.43,10.38-45.19,16.52s18,14,46.36,12.87,45.44-10.38,45.19-16.51S527.1,222.76,498.74,223.88Z"/><path class="cls-11" d="M500,254.84c-13.46.53-26.23-.89-36-4-10.76-3.46-16.83-8.79-17.08-15s5.38-12,15.84-16.33c9.45-3.89,22.07-6.33,35.52-6.86s26.23.89,36,4c10.76,3.46,16.83,8.8,17.08,15S546,243.67,535.5,248C526.05,251.87,513.43,254.3,500,254.84ZM498.55,219c-28.36,1.13-45.43,10.38-45.19,16.52s18,14,46.36,12.87,45.44-10.38,45.19-16.52S526.91,217.9,498.55,219Z"/><path class="cls-9" d="M456.88,279.37c-13.45.53-26.22-.89-36-4-10.77-3.46-16.84-8.79-17.08-15s5.37-12,15.83-16.34c9.46-3.89,22.08-6.33,35.53-6.86s26.23.89,36,4c10.77,3.46,16.84,8.8,17.09,15s-5.38,12-15.84,16.34C483,276.4,470.34,278.83,456.88,279.37Zm-1.42-35.81c-28.36,1.12-45.44,10.37-45.19,16.51s18,14,46.36,12.87,45.43-10.38,45.19-16.51S483.82,242.43,455.46,243.56Z"/><path class="cls-10" d="M456.69,274.51c-13.45.53-26.23-.89-36-4-10.77-3.46-16.84-8.79-17.09-15s5.38-12,15.84-16.33c9.46-3.89,22.08-6.33,35.53-6.86s26.22.89,36,4c10.77,3.46,16.84,8.8,17.08,15s-5.37,12-15.83,16.34C482.76,271.54,470.14,274,456.69,274.51Zm-1.43-35.82c-28.36,1.13-45.43,10.38-45.19,16.52s18,14,46.36,12.87,45.44-10.38,45.19-16.51S483.62,237.57,455.26,238.69Z"/><path class="cls-12" d="M486.3,290c-9.61,5.16-19.59,10.64-25.79,19.62s-7.23,22.53.71,30c5.18,4.88,12.71,6.08,19.73,7.24,13.09,2.15,27,5.36,36.05,15,4,4.29,6.89,9.62,11.1,13.74,10.11,9.91,25.91,10.95,40,9.35a147.58,147.58,0,0,0,49.39-14.68c9.33-4.67,18.33-10.49,24.75-18.71s10-19.16,7.46-29.29c-2.82-11.42-12.47-19.73-22-26.65-15-10.89-31.25-20.47-49.12-25.35C545.6,261.29,515,274.57,486.3,290Z"/><path class="cls-13" d="M649.48,321.57a39.83,39.83,0,0,1-7.26,14.71c-6.42,8.22-15.42,14-24.75,18.71a147.65,147.65,0,0,1-49.39,14.68c-14.07,1.6-29.87.56-40-9.35-4.2-4.12-7.05-9.45-11.09-13.74-9.09-9.65-23-12.86-36.05-15-7-1.16-14.55-2.36-19.73-7.24a17.37,17.37,0,0,1-4.44-6.91c-2.39,7.86-1.42,16.69,4.44,22.22,5.18,4.88,12.7,6.08,19.73,7.24,13.09,2.15,27,5.36,36.05,15,4,4.29,6.89,9.62,11.09,13.74,10.12,9.91,25.92,10.95,40,9.35a147.65,147.65,0,0,0,49.39-14.68c9.33-4.67,18.33-10.49,24.75-18.71s10-19.16,7.46-29.29C649.62,322.06,649.55,321.81,649.48,321.57Z"/><path class="cls-14" d="M577.9,270.46c-22.11-6-43.15-2.06-63.26,5.87,10.55,0,21.54,2.72,31.66,5.9,9.1,2.86,18.56,6.35,24.64,13.69,5.57,6.72,8.07,16.37,15.71,20.6,2.37,1.32,5.85,1.73,7.39-.51,2.25-3.27-2-6.92-4.06-10.32-1.63-2.72-1.7-6.5.38-8.9s6.38-2.65,8.32-.14c1.4,1.81,1.44,4.6,3.3,6,2.73,2,6.34-.8,8.53-3.38,2.5-2.94,5-6,6.28-9.63q.12-.35.21-.69C604.84,281,591.87,274.28,577.9,270.46Z"/><path class="cls-14" d="M493.75,297.19c-3.43-1-7.51-2.31-8.45-5.75a5.27,5.27,0,0,1-.16-1A118.48,118.48,0,0,0,469.47,300c3.12,2.48,9.53,1.48,13.3,1.76,13.6,1,27.88,4.3,37.52,14.68,1.94,2.09,5.21,4.54,7.16,2.44A72.09,72.09,0,0,0,493.75,297.19Z"/><path class="cls-15" d="M409.36,336.65c-8.46,6.89-17.22,14.16-21.61,24.14s-2.85,23.49,6.36,29.34c6,3.82,13.63,3.58,20.74,3.39,13.26-.36,27.49.17,38.24,7.93,4.78,3.45,8.58,8.14,13.49,11.4,11.81,7.82,27.52,5.85,41,1.63a148,148,0,0,0,45.74-23.75c8.27-6.35,16-13.77,20.76-23.05s6.16-20.7,1.8-30.17c-4.93-10.69-16-17-26.64-22-16.77-7.86-34.55-14.2-53-15.62C462.17,297.25,434.64,316.07,409.36,336.65Z"/><path class="cls-13" d="M575.57,336.82a39.93,39.93,0,0,1-4.36,15.83c-4.75,9.28-12.49,16.7-20.76,23.05a147.58,147.58,0,0,1-45.73,23.74c-13.52,4.23-29.23,6.2-41-1.63-4.91-3.25-8.71-7.95-13.49-11.4-10.76-7.76-25-8.29-38.24-7.93-7.12.2-14.74.43-20.74-3.38a17.4,17.4,0,0,1-5.67-5.94c-.86,8.17,1.76,16.66,8.56,21,6,3.82,13.63,3.58,20.74,3.39,13.26-.36,27.49.17,38.24,7.93,4.78,3.45,8.58,8.14,13.49,11.4,11.81,7.82,27.52,5.85,41,1.63a147.82,147.82,0,0,0,45.73-23.75c8.28-6.35,16-13.77,20.77-23.05s6.16-20.7,1.79-30.17C575.8,337.28,575.68,337.05,575.57,336.82Z"/><path class="cls-14" d="M495.62,300.16c-22.85-1.76-42.76,6.13-61,17.72,10.37-2,21.67-1.41,32.21-.19,9.47,1.09,19.42,2.73,26.78,8.79,6.74,5.54,11,14.54,19.31,17.26,2.58.85,6.08.59,7.17-1.9,1.58-3.63-3.3-6.41-6-9.37-2.11-2.36-2.89-6.06-1.3-8.8s5.76-3.82,8.14-1.72c1.72,1.52,2.29,4.25,4.37,5.23,3.06,1.45,6.07-2,7.74-4.93,1.89-3.36,3.83-6.82,4.35-10.64,0-.24.06-.48.08-.72C524.07,305.39,510.06,301.27,495.62,300.16Z"/><path class="cls-14" d="M418,342.31c-3.55-.35-7.8-.85-9.38-4.06a5.13,5.13,0,0,1-.35-1,120,120,0,0,0-13.58,12.37c3.53,1.85,9.64-.35,13.39-.78,13.55-1.58,28.2-1.05,39.62,7.32,2.3,1.69,6,3.48,7.49,1.05A71.94,71.94,0,0,0,418,342.31Z"/><path class="cls-12" d="M324.49,345.21c-9.33,5.65-19,11.64-24.73,20.92S293.69,389,302,396.07c5.43,4.61,13,5.43,20.08,6.22,13.18,1.47,27.2,4,36.78,13.13,4.26,4.08,7.37,9.26,11.78,13.16,10.61,9.38,26.44,9.6,40.42,7.28a147.78,147.78,0,0,0,48.57-17.2c9.07-5.15,17.76-11.42,23.75-20s9-19.65,5.95-29.63C485.92,357.8,475.85,350,466,343.58c-15.53-10.11-32.25-18.84-50.35-22.8C382.24,313.48,352.38,328.32,324.49,345.21Z"/><path class="cls-13" d="M489.09,368.34a39.86,39.86,0,0,1-6.5,15.07c-6,8.54-14.68,14.81-23.75,20a147.78,147.78,0,0,1-48.57,17.2c-14,2.32-29.8,2.1-40.42-7.28-4.41-3.9-7.52-9.08-11.78-13.16-9.58-9.17-23.6-11.66-36.78-13.13-7.07-.8-14.65-1.61-20.08-6.22a17.27,17.27,0,0,1-4.78-6.67c-2,8-.56,16.74,5.57,22,5.42,4.61,13,5.43,20.08,6.22,13.18,1.47,27.2,4,36.78,13.13,4.25,4.08,7.37,9.26,11.78,13.16,10.61,9.38,26.44,9.6,40.41,7.28a147.75,147.75,0,0,0,48.58-17.2c9.07-5.14,17.76-11.42,23.75-20s9-19.65,5.95-29.63Z"/><path class="cls-14" d="M415,321c-22.39-4.89-43.19.17-62.88,9.12,10.54-.51,21.66,1.6,31.93,4.26,9.23,2.39,18.86,5.39,25.31,12.41,5.91,6.42,8.9,15.93,16.74,19.76,2.44,1.2,5.94,1.43,7.36-.89,2.08-3.38-2.38-6.8-4.59-10.1-1.76-2.63-2-6.4-.07-8.9s6.23-3,8.3-.57c1.49,1.74,1.68,4.52,3.6,5.78,2.83,1.86,6.29-1.13,8.35-3.82,2.34-3.06,4.73-6.22,5.78-9.93.06-.23.12-.47.17-.71C442.42,330.09,429.12,324.07,415,321Z"/><path class="cls-14" d="M332.3,352c-3.47-.84-7.61-1.92-8.73-5.32a5.09,5.09,0,0,1-.21-1,118,118,0,0,0-15.16,10.37c3.24,2.32,9.6,1,13.37,1.07,13.64.32,28.07,2.87,38.23,12.73,2.05,2,5.44,4.27,7.27,2.08A71.9,71.9,0,0,0,332.3,352Z"/><path class="cls-11" d="M298.89,300.92A28.94,28.94,0,1,1,270,272,28.94,28.94,0,0,1,298.89,300.92Z"/><path class="cls-16" d="M288.79,279.92a28.93,28.93,0,0,1-41,32.81,29.19,29.19,0,0,1-6.39-4.33,28.93,28.93,0,1,0,47.35-28.48Z"/><path class="cls-17" d="M249.91,293.27a9,9,0,0,0-.1,3.87,4.11,4.11,0,0,0,2.36,2.92c2.15.82,4.51-.93,5.59-3s1.43-4.42,2.6-6.42c1.79-3.05,5.18-4.72,8.38-6.24,1.56-.74,3.38-1.9,3.22-3.62a2.83,2.83,0,0,0-1.77-2.19c-3.15-1.35-9.52-.08-12.43,1.78C253.62,283.05,250.86,288.62,249.91,293.27Z"/><path class="cls-11" d="M165.35,283.63A23.34,23.34,0,1,1,142,260.29,23.33,23.33,0,0,1,165.35,283.63Z"/><path class="cls-16" d="M157.21,266.69a23.33,23.33,0,0,1-38.19,23,23.33,23.33,0,1,0,38.19-23Z"/><path class="cls-17" d="M125.85,277.46a7.31,7.31,0,0,0-.08,3.12,3.3,3.3,0,0,0,1.9,2.35c1.74.66,3.64-.75,4.51-2.4s1.16-3.56,2.1-5.17c1.44-2.46,4.18-3.81,6.76-5,1.26-.6,2.72-1.54,2.59-2.92a2.27,2.27,0,0,0-1.42-1.77c-2.54-1.09-7.68-.07-10,1.43C128.85,269.21,126.62,273.7,125.85,277.46Z"/><circle class="cls-11" cx="198.3" cy="279.22" r="25" transform="translate(-109.09 430.23) rotate(-80.78)"/><path class="cls-16" d="M214.57,261.07a25,25,0,0,1-35.39,28.36,25.22,25.22,0,0,1-5.53-3.74,25,25,0,1,0,40.92-24.62Z"/><path class="cls-17" d="M181,272.62a7.69,7.69,0,0,0-.08,3.34,3.53,3.53,0,0,0,2,2.52c1.87.71,3.9-.8,4.83-2.57s1.24-3.82,2.25-5.54c1.55-2.64,4.48-4.08,7.25-5.39,1.34-.64,2.91-1.65,2.78-3.14A2.46,2.46,0,0,0,198.5,260c-2.72-1.17-8.23-.07-10.74,1.54C184.18,263.78,181.79,268.59,181,272.62Z"/><circle class="cls-11" cx="220.81" cy="311.5" r="28.93"/><path class="cls-16" d="M239.64,290.5A28.94,28.94,0,0,1,192.29,319a28.94,28.94,0,1,0,47.35-28.49Z"/><path class="cls-17" d="M200.77,303.86a8.83,8.83,0,0,0-.1,3.86,4.08,4.08,0,0,0,2.35,2.92c2.16.82,4.51-.93,5.59-3s1.43-4.42,2.6-6.41c1.79-3.06,5.19-4.73,8.39-6.24,1.56-.74,3.37-1.91,3.21-3.63a2.79,2.79,0,0,0-1.77-2.18c-3.14-1.36-9.52-.09-12.42,1.77C204.48,293.63,201.71,299.2,200.77,303.86Z"/><path class="cls-11" d="M254.22,351.48a25,25,0,1,1-25-25A25,25,0,0,1,254.22,351.48Z"/><path class="cls-16" d="M245.49,333.33a25,25,0,0,1-35.39,28.36,25.22,25.22,0,0,1-5.53-3.74,25,25,0,1,0,40.92-24.62Z"/><path class="cls-17" d="M211.9,344.88a7.69,7.69,0,0,0-.09,3.34,3.55,3.55,0,0,0,2,2.52c1.87.71,3.9-.8,4.84-2.57s1.23-3.82,2.24-5.54c1.55-2.64,4.48-4.08,7.25-5.39,1.35-.64,2.91-1.65,2.78-3.13a2.43,2.43,0,0,0-1.53-1.89c-2.72-1.17-8.23-.08-10.74,1.53C215.1,336,212.72,340.85,211.9,344.88Z"/><circle class="cls-11" cx="281.09" cy="333.74" r="25" transform="translate(-93.36 557.75) rotate(-80.78)"/><path class="cls-16" d="M297.37,315.59A25,25,0,0,1,262,343.94a25.19,25.19,0,0,1-5.53-3.73,25,25,0,1,0,40.92-24.62Z"/><path class="cls-17" d="M263.77,327.13a7.69,7.69,0,0,0-.08,3.34,3.54,3.54,0,0,0,2,2.53c1.87.71,3.9-.81,4.83-2.57s1.24-3.82,2.25-5.55c1.55-2.63,4.48-4.08,7.25-5.39,1.34-.64,2.91-1.64,2.78-3.13a2.44,2.44,0,0,0-1.53-1.89c-2.72-1.17-8.23-.08-10.74,1.53C267,318.3,264.59,323.11,263.77,327.13Z"/><circle class="cls-11" cx="160.75" cy="321.75" r="28.93"/><path class="cls-16" d="M179.58,300.75a28.92,28.92,0,0,1-41,32.81,29.26,29.26,0,0,1-6.4-4.33,28.93,28.93,0,1,0,47.35-28.48Z"/><path class="cls-17" d="M140.71,314.1a8.88,8.88,0,0,0-.1,3.87,4.12,4.12,0,0,0,2.35,2.92c2.16.82,4.51-.93,5.59-3s1.43-4.42,2.6-6.42c1.79-3.05,5.19-4.72,8.39-6.24,1.56-.74,3.37-1.9,3.21-3.62a2.79,2.79,0,0,0-1.77-2.19c-3.14-1.35-9.52-.08-12.42,1.78C144.42,303.88,141.66,309.45,140.71,314.1Z"/></svg>