<svg id="Layer_1" data-name="Layer 1" xmlns="http://www.w3.org/2000/svg" xmlns:xlink="http://www.w3.org/1999/xlink" viewBox="0 0 805 733"><defs><style>.cls-1{fill:url(#linear-gradient);}.cls-2,.cls-4{opacity:0.3;}.cls-3{fill:url(#linear-gradient-2);}.cls-21,.cls-4,.cls-5{fill:#fff;}.cls-5{opacity:0.4;}.cls-6{fill:url(#linear-gradient-3);}.cls-7{fill:url(#linear-gradient-4);}.cls-8{fill:url(#linear-gradient-5);}.cls-9{fill:url(#linear-gradient-6);}.cls-10{fill:url(#linear-gradient-7);}.cls-11{fill:url(#linear-gradient-8);}.cls-12{fill:url(#linear-gradient-9);}.cls-13{fill:url(#linear-gradient-10);}.cls-14{fill:url(#linear-gradient-11);}.cls-15{fill:url(#linear-gradient-12);}.cls-16{fill:url(#linear-gradient-13);}.cls-17{fill:url(#linear-gradient-14);}.cls-18{fill:url(#linear-gradient-15);}.cls-19{fill:url(#linear-gradient-16);}.cls-20{fill:url(#linear-gradient-17);}</style><linearGradient id="linear-gradient" x1="215.46" y1="529.15" x2="610.2" y2="529.15" gradientUnits="userSpaceOnUse"><stop offset="0" stop-color="#f16c01"/><stop offset="0.59" stop-color="#d94700"/><stop offset="1" stop-color="#cb3100"/></linearGradient><linearGradient id="linear-gradient-2" x1="162.94" y1="452.12" x2="661.32" y2="452.12" xlink:href="#linear-gradient"/><linearGradient id="linear-gradient-3" x1="137.37" y1="276.35" x2="668.94" y2="276.35" gradientUnits="userSpaceOnUse"><stop offset="0" stop-color="#ffb19b"/><stop offset="1" stop-color="#ff989d"/></linearGradient><linearGradient id="linear-gradient-4" x1="295.78" y1="384.13" x2="687.97" y2="384.13" gradientUnits="userSpaceOnUse"><stop offset="0" stop-color="#ff353e"/><stop offset="1" stop-color="#cd060b"/></linearGradient><linearGradient id="linear-gradient-5" x1="194.32" y1="284.37" x2="642.63" y2="284.37" xlink:href="#linear-gradient-4"/><linearGradient id="linear-gradient-6" x1="370.81" y1="123.09" x2="460.45" y2="123.09" gradientUnits="userSpaceOnUse"><stop offset="0" stop-color="#ffcac7"/><stop offset="1" stop-color="#ee92ab"/></linearGradient><linearGradient id="linear-gradient-7" x1="268.06" y1="211.87" x2="575.67" y2="211.87" xlink:href="#linear-gradient-4"/><linearGradient id="linear-gradient-8" x1="196.53" y1="250.17" x2="612.19" y2="250.17" gradientUnits="userSpaceOnUse"><stop offset="0" stop-color="#ff6a72"/><stop offset="1" stop-color="#d3353e"/></linearGradient><linearGradient id="linear-gradient-9" x1="289.44" y1="189.77" x2="507.13" y2="189.77" xlink:href="#linear-gradient-8"/><linearGradient id="linear-gradient-10" x1="341.07" y1="156.43" x2="488.68" y2="156.43" xlink:href="#linear-gradient-4"/><linearGradient id="linear-gradient-11" x1="139.04" y1="353.4" x2="663.39" y2="353.4" xlink:href="#linear-gradient-8"/><linearGradient id="linear-gradient-12" x1="174.6" y1="320.58" x2="635.06" y2="320.58" xlink:href="#linear-gradient-8"/><linearGradient id="linear-gradient-13" x1="148.11" y1="399.27" x2="656.02" y2="399.27" xlink:href="#linear-gradient-6"/><linearGradient id="linear-gradient-14" x1="229.41" y1="231.54" x2="436.34" y2="231.54" xlink:href="#linear-gradient-6"/><linearGradient id="linear-gradient-15" x1="196.31" y1="260.61" x2="592.68" y2="260.61" xlink:href="#linear-gradient-6"/><linearGradient id="linear-gradient-16" x1="164.27" y1="341.39" x2="653.92" y2="341.39" xlink:href="#linear-gradient-6"/><linearGradient id="linear-gradient-17" x1="294.54" y1="183.95" x2="494.52" y2="183.95" xlink:href="#linear-gradient-6"/></defs><title>Food</title><path class="cls-1" d="M610.2,529.15C610.2,624.61,549.94,702,412.83,702,279,702,215.46,624.61,215.46,529.15s88.36-172.84,197.37-172.84S610.2,433.69,610.2,529.15Z"/><path class="cls-2" d="M618.05,505.25c0,59.62-92.08,108-205.66,108s-205.67-48.34-205.67-108,92.09-108,205.67-108S618.05,445.61,618.05,505.25Z"/><path class="cls-3" d="M661.32,452.12c0,75.8-111.56,137.25-249.19,137.25S162.94,527.92,162.94,452.12,274.5,314.87,412.13,314.87,661.32,376.32,661.32,452.12Z"/><path class="cls-2" d="M656,406.22c0,59.62-103.11,115.25-238.27,115.25-46.05,0-95.57-12.9-132.35-22.65-71.21-18.88-118.85-53.29-118.85-92.6,0-59.64,109.57-108,244.74-108S656,346.58,656,406.22Z"/><path class="cls-4" d="M398.33,550.69c-5,21.48-61.85,21.62-125.5-1.09-57.37-20.45-99.34-55.32-94.36-76.8s40,18.38,102.06,37.51C345.12,530.22,403.3,529.22,398.33,550.69Z"/><path class="cls-4" d="M320,622.54c-5.23,17.32-19.13,36.54-35.6,31.58-17.83-5.38-40-45.16-40.91-58.8C242.38,578.85,323.31,611.51,320,622.54Z"/><path class="cls-5" d="M277.64,527.84c-2.76,8.44-25.84-.36-50.53-11.73-22.25-10.25-41.89-27.61-37-35,5-7.7,18,8.26,41.52,19.55C257,512.84,280.39,519.43,277.64,527.84Z"/><path class="cls-6" d="M425.08,59.82c4.25-1.06-5.31,53.12,7.44,53.12s27.23,13.82,29,20.2,22,1.06,31.55,9.56S601.47,155.46,611,215s35.06,57.38,35.06,57.38,32.49-25.5,20,74.39S428.27,509.31,309.26,489.11c-93.15-15.8-181.08-79.1-171.11-144.59,1.42-9.36.87-27,7.56-35.58,11.16-14.34,15.75-10,25.4-18.54l25.5-36.12s24.54-26.94,23-52.13c-.54-8.48,9.83-27.1,34-18.2,73.94,27.22,24.86,36.33,24.86,36.33s9.57-101,66.95-64.82,20.89,5.33,20.89,5.33S361.28,75.58,425.08,59.82Z"/><path class="cls-7" d="M295.81,486.49s262.63,27.6,349.49-114.26c25.83-42.17,9.55-84.69.8-99.89-13.15-22.84,83.67.52,20,130.18C600.68,535.61,292.21,505.92,295.81,486.49Z"/><path class="cls-8" d="M196,243.92c3.71-8.46,17.84,120.73,265.55,91.11,200-23.9,141.12-130.22,144.24-136s55.57,22.24,29.7,85c-32.71,79.39-195,96.18-278.4,81.83C246,346.73,183.06,273.49,196,243.92Z"/><path class="cls-9" d="M390.88,172.66S357,153.42,377.23,110.71,416.69,65.35,418.47,67s-19.08,49.41-3.59,63.75,4.16-11.34,16-13.28,43.89,17,22.21,44.88S392.31,176.88,390.88,172.66Z"/><path class="cls-10" d="M286.94,170.86c9,1.07-16.22,34,4.25,52.6,29.11,26.44,90.71,51.92,172.41,20.46,123.53-47.57,13-99.14,38.41-100.82,98.88-6.55,107.42,110.55-31.27,133.25-88.9,14.56-160.54-7.4-191.32-42.79C254,204.33,277.91,169.79,286.94,170.86Z"/><path class="cls-11" d="M562.94,162.3c18.85,21.65,20.65,68.07-49.64,100.95-90.22,42.2-209.76,10.22-205.45,13.1,23.7,15.8,169.82,45.93,250.08-22.07,14.23-12.07,23.5-22.72,29.25-32.12-10.43,30.62-49.49,65.41-145.39,85.48-161.55,33.79-244.74-78.41-244.74-78.41C190.34,273.34,248.69,329,345.91,337s234-28.49,260.35-93.37S562.94,162.3,562.94,162.3Zm4.35,1.71c-1-.43-1.85-.79-2.53-1C565.61,163.27,566.45,163.61,567.29,164Z"/><path class="cls-12" d="M314.56,152.8S262,199.55,337.42,221.87,515.57,199.11,479,138.68c0,0,53.58,8.69,12.88,65.75C449,264.61,213.09,252.16,314.56,152.8Z"/><path class="cls-13" d="M461.54,133.14c2.84,7.2,2.19,13.35-.64,18.6-11.23,16-27.2,11.19-34,8.09-30.77-15.62-38.41-54.38-38.41-54.38-17.71,44.63-3.46,60.52,6,68.3-15-3.6-26.41-13.95-28-29.85,0,0-31.83-1.2-24.39,34.93,4.26,20.69,43.48,32.16,77.31,27.59,30.84-3.86,59.49-23.72,66.91-41.84C498,136.28,461.54,133.14,461.54,133.14Z"/><path class="cls-14" d="M641.69,243.92c0,4,14.4,122.74-202.79,175.33-227.15,55-293-94.45-298.63-84.09s5.6,60.42,79.72,99.76,306.69,55.91,409.38-75.44C697.91,271.81,641.69,239.94,641.69,243.92Z"/><path class="cls-15" d="M386.8,384.14c150.68.13,229.81-37.33,248.26-99.16,0,0-41.82,100.83-255.56,83.79,0,0-145.29-12-184.82-111.75,0,0-23.18.2-19.73,28C178.65,314.87,236.1,384,386.8,384.14Z"/><path class="cls-16" d="M148.11,370.49s41.52,87.28,200.31,92.22,242-18.34,307.6-142.13c0,0-4.68,66.34-122.58,124.66S192.32,487,148.11,370.49Z"/><path class="cls-17" d="M271.34,188s-27.2-20.45-39.95,1.76,33.8,110.48,205,91.14C436.34,280.91,248.12,276.35,271.34,188Z"/><path class="cls-18" d="M219.57,202.15s29.08,92.19,147,100.7S575.19,247.27,583,207.41c8.31-42.45,30.5,30.08-43,77.57s-212,64.61-303.65-4.07C159.65,223.46,216.13,178.77,219.57,202.15Z"/><path class="cls-19" d="M641.69,243.92s15.51,30.14-29.19,76.83c-44.59,38.14-141.65,74.86-262.14,61.58C218.29,367.75,175,285,175,285c-42.06,14.84,42,119.9,219.46,118.31,64-.58,88.7-11.24,82.85-9.43-170.56,52.69-282.94-31.52-282.94-31.52-29.3-12.68-27.23,32.56,85.81,65.35s259.69-10.08,331.67-83.56S641.69,243.92,641.69,243.92Z"/><path class="cls-20" d="M331.56,161.4s-31,38.16,49.92,49S507.26,157,479,138.68c0,0,23.18,5.21,12.87,40.73s-109.62,70-172.28,35.67c-33.49-18.31-28-43.64-14.49-56C316.91,148.37,335.52,148.24,331.56,161.4Z"/><path class="cls-21" d="M409.1,69.33S380,90.78,373.66,119.62,391.42,86.34,409.1,69.33Z"/><path class="cls-21" d="M320,162.3s-19.65,13-5.84,27.47,34.54,26.19,73.32,25.66-40.38,10.4-70.14-12.22-12.22-40.91-5.84-43.56S325.79,157.05,320,162.3Z"/><path class="cls-21" d="M255.43,187.76s-19.13,18.18,8.77,43.77S200.21,202.63,255.43,187.76Z"/><path class="cls-21" d="M215.46,207.41s5,63.33,93.37,91.17-54.43,5.75-86.48-39.18S207.25,202.76,215.46,207.41Z"/><path class="cls-21" d="M174.6,296.72s13.62,41.8,83.75,73.77-25.57-3.55-54.76-25.95C172.27,320.51,167.36,305.76,174.6,296.72Z"/><path class="cls-21" d="M171.67,345.07c-3,3.28-9.78-3.53-16.89-10s-7.51-17.61-4.55-20.88,8.18,2.57,15.29,9S174.64,341.8,171.67,345.07Z"/><path class="cls-21" d="M215.46,384.14S298.2,434.86,431,412.55s-13.82,19.3-77.58,16.11-89.79-8.14-133.88-29.39C204.15,391.84,192.33,373.1,215.46,384.14Z"/><path class="cls-21" d="M359.14,147.94S349,172.28,384.8,184.48,314.59,183.78,359.14,147.94Z"/><path class="cls-21" d="M208.4,296.72s50.22,62.79,144.25,73.77C352.65,370.49,253,377.75,208.4,296.72Z"/><path class="cls-21" d="M289.44,221.71s33.05,45.68,125.44,37C414.88,258.68,326.65,285.11,289.44,221.71Z"/><path class="cls-21" d="M196.53,399.27s66.57,54.6,198,45.16C394.49,444.43,271.24,479.49,196.53,399.27Z"/></svg>